{"glyphs":{"0":{"ha":883,"x_min":0,"x_max":0,"o":"m 791 505 b 706 106 791 324 763 191 b 442 -21 650 21 562 -21 b 177 108 321 -21 232 22 b 93 504 121 194 93 326 b 178 902 93 683 121 816 b 442 1030 234 987 322 1030 b 708 900 563 1030 652 987 b 791 505 764 813 791 681 m 613 197 b 645 327 629 234 640 277 b 654 505 651 376 654 436 b 645 684 654 574 651 634 b 612 813 640 735 629 778 b 548 892 597 848 575 874 b 442 918 520 909 485 918 b 337 892 400 918 365 909 b 271 812 309 874 287 847 b 239 681 255 778 245 735 b 231 504 233 627 231 568 b 238 327 231 433 233 374 b 270 199 243 279 254 237 b 333 119 285 164 306 137 b 442 91 361 100 397 91 b 548 117 485 91 520 100 b 613 197 576 135 598 162 "},"1":{"ha":883,"x_min":0,"x_max":0,"o":"m 189 0 l 189 103 l 399 103 l 399 780 l 189 780 l 189 872 b 280 879 217 872 248 874 b 354 900 313 884 337 891 b 403 943 375 911 391 926 b 424 1013 415 960 422 984 l 529 1013 l 529 103 l 735 103 l 735 0 "},"2":{"ha":883,"x_min":0,"x_max":0,"o":"m 109 0 l 109 142 l 252 264 b 385 385 300 304 344 345 b 564 586 472 469 531 536 b 612 746 596 635 612 689 b 560 869 612 798 594 839 b 415 913 525 899 477 913 b 281 892 374 913 329 906 b 141 825 234 877 187 855 l 134 825 l 134 968 b 263 1011 166 984 209 998 b 418 1031 316 1024 368 1031 b 662 956 522 1031 603 1006 b 750 753 721 906 750 838 b 735 645 750 714 745 679 b 692 551 726 612 711 581 b 630 468 675 523 654 495 b 544 378 607 441 578 411 b 394 240 496 330 446 284 l 250 116 l 793 116 l 793 0 "},"3":{"ha":883,"x_min":0,"x_max":0,"o":"m 704 486 b 758 413 726 467 743 442 b 779 299 772 384 779 346 b 753 172 779 253 770 211 b 683 72 737 134 713 100 b 563 2 649 40 609 17 b 412 -21 517 -13 467 -21 b 247 -1 356 -21 301 -14 b 113 43 193 12 148 27 l 113 184 l 123 184 b 259 121 162 159 207 138 b 410 96 311 105 361 96 b 500 111 438 96 468 101 b 578 153 533 120 559 134 b 625 218 599 172 615 194 b 640 309 635 242 640 273 b 623 399 640 345 634 375 b 575 455 611 423 595 441 b 501 484 555 469 530 479 b 408 492 472 489 441 492 l 347 492 l 347 604 l 394 604 b 558 647 463 604 518 619 b 620 773 599 676 620 718 b 604 837 620 798 615 819 b 561 882 594 856 579 871 b 498 907 541 894 521 902 b 423 913 476 911 451 913 b 286 890 380 913 335 906 b 149 825 238 875 192 853 l 142 825 l 142 967 b 271 1011 175 983 217 997 b 427 1031 325 1024 376 1031 b 557 1017 476 1031 519 1026 b 659 974 594 1008 628 994 b 732 895 691 952 716 926 b 758 787 749 864 758 828 b 698 641 758 731 738 682 b 558 562 659 599 612 572 l 558 552 b 633 529 580 548 605 541 b 704 486 661 518 684 503 "},"4":{"ha":883,"x_min":0,"x_max":0,"o":"m 666 284 l 666 0 l 536 0 l 536 284 l 52 284 l 52 440 l 541 1010 l 666 1010 l 666 393 l 816 393 l 816 284 m 536 848 l 144 393 l 536 393 "},"5":{"ha":883,"x_min":0,"x_max":0,"o":"m 785 321 b 759 186 785 274 776 229 b 688 77 742 143 718 107 b 572 4 656 46 617 21 b 416 -21 527 -13 475 -21 b 256 -4 361 -21 307 -15 b 127 38 205 8 162 22 l 127 181 l 136 181 b 267 121 173 158 217 138 b 413 96 316 105 365 96 b 506 110 445 96 476 101 b 587 157 536 119 563 135 b 632 227 607 177 622 200 b 647 321 642 254 647 286 b 629 410 647 356 641 386 b 579 467 617 434 600 453 b 493 504 556 484 527 497 b 380 514 460 511 422 514 b 266 506 341 514 302 511 b 170 490 229 500 197 495 l 170 1010 l 778 1010 l 778 891 l 301 891 l 301 623 b 361 627 321 624 340 626 b 414 628 381 628 399 628 b 557 614 468 628 516 623 b 671 565 599 605 636 588 b 755 469 707 540 735 508 b 785 321 775 429 785 380 "},"6":{"ha":883,"x_min":0,"x_max":0,"o":"m 808 328 b 706 76 808 225 774 141 b 458 -21 639 11 556 -21 b 322 2 408 -21 363 -13 b 214 71 281 17 245 40 b 124 220 175 108 145 158 b 93 444 103 282 93 356 b 122 682 93 533 103 612 b 214 866 141 751 172 812 b 368 986 253 917 305 957 b 587 1029 430 1014 504 1029 b 654 1025 614 1029 636 1028 b 709 1013 673 1023 691 1019 l 709 884 l 703 884 b 645 903 690 890 671 897 b 567 912 620 909 594 912 b 334 821 470 912 392 882 b 233 574 276 760 243 678 b 346 627 271 597 309 615 b 473 645 382 639 425 645 b 587 633 516 645 554 641 b 688 585 620 625 653 609 b 778 481 727 558 757 523 b 808 328 798 439 808 388 m 670 322 b 651 427 670 364 664 399 b 590 498 639 454 618 478 b 521 527 569 513 546 522 b 441 534 496 531 469 534 b 334 520 403 534 367 529 b 233 478 301 511 267 497 b 231 449 232 468 231 459 b 230 414 230 440 230 428 b 252 245 230 343 237 287 b 313 147 267 204 287 171 b 380 103 333 127 356 113 b 459 90 404 94 431 90 b 614 150 525 90 576 110 b 670 322 651 190 670 247 "},"7":{"ha":883,"x_min":0,"x_max":0,"o":"m 338 0 l 193 0 l 680 891 l 104 891 l 104 1010 l 795 1010 l 795 859 "},"8":{"ha":883,"x_min":0,"x_max":0,"o":"m 800 281 b 698 64 800 194 766 122 b 441 -23 630 6 545 -23 b 180 62 332 -23 245 5 b 83 279 115 118 83 191 b 132 431 83 335 99 386 b 269 539 164 476 210 512 l 269 543 b 149 638 215 572 175 604 b 110 767 123 673 110 715 b 203 957 110 843 141 906 b 441 1033 266 1008 345 1033 b 683 960 542 1033 623 1009 b 773 776 743 912 773 850 b 730 641 773 730 759 685 b 605 538 702 597 660 563 l 605 534 b 750 433 668 507 717 473 b 800 281 784 394 800 343 m 640 774 b 584 890 640 823 621 861 b 441 933 546 919 499 933 b 301 892 384 933 337 920 b 246 783 264 865 246 829 b 274 698 246 750 255 722 b 357 635 292 674 320 653 b 429 603 373 627 398 616 b 521 570 460 590 491 579 b 614 663 566 600 597 631 b 640 774 631 695 640 732 m 661 269 b 633 369 661 310 651 343 b 526 444 615 394 579 419 b 456 472 504 454 481 463 l 355 508 b 257 418 314 486 281 456 b 220 289 232 380 220 337 b 283 138 220 228 241 177 b 443 78 325 98 378 78 b 601 129 509 78 562 95 b 661 269 641 163 661 209 "},"9":{"ha":883,"x_min":0,"x_max":0,"o":"m 791 566 b 761 326 791 477 781 397 b 670 142 741 254 711 192 b 515 22 629 90 577 50 b 297 -20 453 -6 381 -20 b 231 -16 274 -20 251 -18 b 175 -4 210 -13 191 -9 l 175 125 l 182 125 b 237 106 195 119 213 112 b 317 97 261 100 288 97 b 552 187 417 97 496 127 b 651 435 609 247 642 329 b 532 380 609 409 569 391 b 411 364 495 370 455 364 b 298 376 369 364 332 368 b 197 424 264 385 231 400 b 107 529 157 451 127 486 b 77 682 87 571 77 622 b 178 933 77 785 111 869 b 427 1030 246 998 329 1030 b 562 1007 475 1030 521 1023 b 671 939 604 992 640 970 b 760 794 710 902 739 853 b 791 566 781 735 791 659 m 654 595 b 633 764 654 665 647 721 b 573 863 618 806 598 839 b 505 906 552 883 529 898 b 425 920 480 915 454 920 b 271 859 360 920 309 899 b 214 687 233 818 214 761 b 233 582 214 644 220 609 b 294 511 245 555 265 531 b 361 483 315 497 337 487 b 443 475 386 478 413 475 b 550 490 478 475 514 480 b 652 531 586 499 620 513 b 653 559 652 541 653 550 b 654 595 654 568 654 580 "}," ":{"ha":488,"x_min":0,"x_max":0,"o":""},"!":{"ha":547,"x_min":0,"x_max":0,"o":"m 332 278 l 216 278 l 197 1010 l 349 1010 m 204 0 l 204 143 l 342 143 l 342 0 "},"\"":{"ha":637,"x_min":0,"x_max":0,"o":"m 494 663 l 405 663 l 376 1055 l 524 1055 m 233 663 l 143 663 l 114 1055 l 262 1055 "},"#":{"ha":1137,"x_min":0,"x_max":0,"o":"m 779 632 l 716 377 l 925 377 l 925 286 l 692 286 l 622 0 l 534 0 l 605 286 l 422 286 l 351 0 l 264 0 l 334 286 l 132 286 l 132 377 l 358 377 l 420 632 l 212 632 l 212 724 l 444 724 l 515 1010 l 603 1010 l 532 724 l 715 724 l 786 1010 l 873 1010 l 802 724 l 1004 724 l 1004 632 m 507 633 l 444 376 l 629 376 l 693 633 "},"$":{"ha":883,"x_min":0,"x_max":0,"o":"m 787 258 b 705 83 787 188 759 129 b 490 1 650 37 578 9 l 490 -245 l 410 -245 l 410 -3 b 241 15 350 -2 294 4 b 105 58 189 26 144 40 l 105 192 l 116 192 b 162 164 125 186 140 176 b 227 135 184 152 206 143 b 309 111 250 126 277 118 b 410 98 340 103 374 99 l 410 391 b 359 402 392 395 375 398 b 317 412 344 405 330 409 b 158 496 243 431 190 459 b 110 634 126 533 110 579 b 189 804 110 701 136 758 b 410 884 242 850 315 877 l 410 1069 l 490 1069 l 490 886 b 630 869 535 885 582 879 b 751 835 678 859 718 848 l 751 702 l 741 702 b 635 757 707 723 672 741 b 490 787 598 773 550 783 l 490 495 b 534 486 503 493 518 490 b 575 477 550 482 563 479 b 731 402 642 462 695 437 b 787 258 768 367 787 319 m 410 787 b 288 747 361 783 321 770 b 238 652 255 724 238 692 b 275 559 238 611 250 580 b 410 507 299 538 344 521 m 659 240 b 619 333 659 283 645 314 b 490 380 592 353 549 368 l 490 99 b 615 140 544 104 586 118 b 659 240 644 163 659 196 "},"%":{"ha":1495,"x_min":0,"x_max":0,"o":"m 600 730 b 535 504 600 628 578 553 b 351 430 493 455 431 430 b 164 504 268 430 206 455 b 101 729 122 553 101 628 b 165 955 101 830 123 906 b 351 1029 208 1004 270 1029 b 536 954 432 1029 494 1004 b 600 730 578 904 600 830 m 539 0 l 427 0 l 956 1010 l 1068 1010 m 1394 280 b 1329 54 1394 179 1372 104 b 1144 -20 1286 5 1225 -20 b 958 55 1062 -20 1000 5 b 895 279 916 105 895 179 b 959 505 895 381 917 456 b 1144 579 1002 555 1064 579 b 1331 505 1226 579 1289 555 b 1394 280 1373 456 1394 381 m 479 730 b 449 892 479 807 469 862 b 351 939 428 923 396 939 b 252 892 304 939 271 923 b 222 729 232 862 222 807 b 252 566 222 651 232 596 b 351 520 271 535 304 520 b 449 566 396 520 428 535 b 479 730 469 596 479 651 m 1273 280 b 1243 443 1273 358 1263 412 b 1145 489 1223 474 1190 489 b 1046 443 1099 489 1066 474 b 1016 279 1026 412 1016 358 b 1046 116 1016 201 1026 147 b 1145 71 1066 86 1099 71 b 1243 116 1190 71 1223 86 b 1273 280 1263 147 1273 201 "},"&":{"ha":1009,"x_min":0,"x_max":0,"o":"m 537 808 b 499 909 537 851 524 884 b 401 946 473 934 441 946 b 299 904 359 946 325 932 b 260 802 273 877 260 843 b 287 712 260 768 269 738 b 402 619 304 686 343 655 b 503 689 446 635 480 658 b 537 808 526 719 537 759 m 345 530 b 302 503 330 523 316 514 b 260 458 288 492 274 477 b 229 394 248 440 237 419 b 217 310 221 369 217 341 b 275 150 217 244 236 191 b 439 90 314 110 368 90 b 565 120 481 90 523 100 b 669 214 606 141 641 172 m 873 551 b 856 405 873 508 867 459 b 798 250 845 351 825 299 l 1055 0 l 888 0 l 732 152 b 573 17 680 88 627 43 b 406 -21 519 -8 463 -21 b 171 61 312 -21 233 6 b 78 277 109 116 78 188 b 96 385 78 319 84 355 b 137 464 107 415 121 442 b 196 524 153 485 172 505 b 267 573 220 543 243 559 b 160 671 217 606 182 638 b 127 796 138 704 127 746 b 145 883 127 826 133 855 b 199 958 157 910 175 935 b 287 1010 221 979 251 997 b 408 1031 324 1024 364 1031 b 597 971 486 1031 549 1011 b 670 821 646 932 670 882 b 662 754 670 801 667 779 b 634 686 656 729 647 706 b 572 623 620 664 599 643 b 469 570 546 602 511 585 l 720 325 b 734 385 727 343 731 363 b 740 452 738 406 739 429 b 741 537 741 478 741 506 b 741 616 741 568 741 595 l 873 616 "},"'":{"ha":373,"x_min":0,"x_max":0,"o":"m 233 663 l 140 663 l 111 1055 l 262 1055 "},"(":{"ha":631,"x_min":0,"x_max":0,"o":"m 376 -279 b 189 21 296 -188 234 -87 b 123 388 145 130 123 252 b 189 755 123 524 145 646 b 376 1055 234 863 296 963 l 531 1055 l 531 1048 b 426 934 494 1015 459 977 b 334 783 393 891 362 841 b 268 600 307 728 284 666 b 242 388 251 533 242 462 b 267 176 242 311 250 240 b 334 -7 283 111 306 50 b 427 -158 361 -63 392 -113 b 531 -273 461 -203 496 -241 l 531 -279 "},")":{"ha":631,"x_min":0,"x_max":0,"o":"m 508 388 b 441 21 508 252 486 130 b 255 -279 397 -87 335 -188 l 100 -279 l 100 -273 b 204 -158 135 -241 169 -203 b 297 -7 240 -113 270 -63 b 364 176 325 50 347 111 b 389 388 380 240 389 311 b 363 600 389 462 380 533 b 297 783 347 666 325 728 b 204 934 269 841 238 891 b 100 1048 171 977 136 1015 l 100 1055 l 255 1055 b 441 755 335 963 397 863 b 508 388 486 646 508 524 "},"*":{"ha":883,"x_min":0,"x_max":0,"o":"m 728 527 l 482 671 l 486 427 l 399 427 l 402 671 l 157 526 l 113 601 l 372 741 l 113 882 l 157 956 l 403 812 l 399 1055 l 486 1055 l 481 812 l 728 956 l 771 881 l 513 742 l 771 602 "},"+":{"ha":1137,"x_min":0,"x_max":0,"o":"m 625 388 l 625 18 l 512 18 l 512 388 l 142 388 l 142 496 l 512 496 l 512 866 l 625 866 l 625 496 l 994 496 l 994 388 "},",":{"ha":505,"x_min":0,"x_max":0,"o":"m 199 -251 l 100 -251 l 218 193 l 390 193 "},"-":{"ha":631,"x_min":0,"x_max":0,"o":"m 104 380 l 104 503 l 527 503 l 527 380 "},".":{"ha":505,"x_min":0,"x_max":0,"o":"m 172 0 l 172 193 l 334 193 l 334 0 "},"/":{"ha":631,"x_min":0,"x_max":0,"o":"m 97 -206 l -20 -206 l 464 1055 l 583 1055 "},":":{"ha":631,"x_min":0,"x_max":0,"o":"m 235 564 l 235 758 l 397 758 l 397 564 m 235 0 l 235 193 l 397 193 l 397 0 "},";":{"ha":631,"x_min":0,"x_max":0,"o":"m 235 564 l 235 758 l 397 758 l 397 564 m 255 -251 l 156 -251 l 274 193 l 446 193 "},"<":{"ha":1137,"x_min":0,"x_max":0,"o":"m 172 400 l 172 484 l 955 832 l 955 710 l 338 442 l 955 174 l 955 52 "},"=":{"ha":1137,"x_min":0,"x_max":0,"o":"m 166 530 l 166 639 l 970 639 l 970 530 m 166 245 l 166 354 l 970 354 l 970 245 "},">":{"ha":1137,"x_min":0,"x_max":0,"o":"m 182 52 l 182 174 l 799 442 l 182 710 l 182 832 l 964 484 l 964 400 "},"?":{"ha":758,"x_min":0,"x_max":0,"o":"m 682 772 b 658 654 682 728 674 689 b 595 562 642 620 621 589 b 508 490 570 536 541 512 b 403 424 475 467 440 445 l 403 271 l 281 271 l 281 478 l 377 533 b 460 593 411 553 439 573 b 522 666 487 617 507 641 b 543 762 536 691 543 723 b 491 877 543 813 526 851 b 357 914 457 902 412 914 b 219 891 309 914 262 906 b 115 844 175 876 141 860 l 109 844 l 109 983 b 229 1016 140 995 180 1006 b 367 1030 277 1025 323 1030 b 597 959 464 1030 541 1007 b 682 772 653 912 682 850 m 275 0 l 275 143 l 414 143 l 414 0 "},"@":{"ha":1389,"x_min":0,"x_max":0,"o":"m 1268 450 b 1241 267 1268 387 1259 326 b 1162 106 1222 208 1196 155 l 864 106 l 846 185 b 749 123 812 158 780 137 b 644 101 719 108 683 101 b 461 187 568 101 507 130 b 393 428 416 245 393 325 b 477 673 393 531 421 612 b 676 765 532 734 599 765 b 764 754 709 765 738 761 b 846 720 789 746 816 735 l 846 753 l 954 753 l 954 182 l 1118 182 b 1161 309 1137 216 1152 258 b 1176 446 1171 360 1176 405 b 1145 648 1176 520 1166 587 b 1055 804 1125 708 1094 760 b 907 904 1015 847 965 880 b 707 939 848 927 781 939 b 508 899 634 939 568 925 b 354 793 448 873 397 838 b 252 634 311 749 277 696 b 215 437 227 573 215 507 b 250 233 215 363 227 295 b 350 75 274 171 307 118 b 507 -29 395 29 447 -6 b 704 -64 567 -52 633 -64 b 824 -56 743 -64 783 -61 b 943 -33 866 -51 905 -43 l 943 -129 b 821 -148 899 -138 859 -145 b 703 -153 783 -152 743 -153 b 469 -110 619 -153 541 -139 b 284 10 397 -81 336 -41 b 163 197 232 62 192 125 b 119 439 134 270 119 351 b 165 672 119 522 135 600 b 289 860 195 745 236 807 b 475 985 341 913 404 954 b 706 1030 547 1015 624 1030 b 943 988 795 1030 874 1016 b 1120 870 1013 960 1072 921 b 1230 687 1168 819 1204 759 b 1268 450 1255 616 1268 537 m 844 628 b 768 656 816 641 790 650 b 695 665 745 662 721 665 b 558 604 637 665 591 644 b 509 430 525 563 509 505 b 548 263 509 356 522 301 b 671 206 574 225 615 206 b 762 227 701 206 731 213 b 844 277 792 241 819 258 "},"A":{"ha":949,"x_min":0,"x_max":0,"o":"m 789 0 l 690 281 l 253 281 l 154 0 l 18 0 l 385 1010 l 564 1010 l 932 0 m 471 892 l 294 397 l 648 397 "},"B":{"ha":952,"x_min":0,"x_max":0,"o":"m 897 311 b 869 178 897 260 888 216 b 792 83 850 139 824 108 b 667 19 754 53 712 32 b 494 0 622 6 564 0 l 136 0 l 136 1010 l 435 1010 b 600 1002 508 1010 564 1007 b 705 968 637 996 672 985 b 786 893 742 948 769 923 b 811 783 803 862 811 826 b 774 661 811 735 799 695 b 677 580 750 627 718 600 l 677 574 b 838 485 745 560 799 530 b 897 311 878 439 897 381 m 671 766 b 659 827 671 790 667 811 b 620 868 651 844 638 858 b 543 891 599 880 573 888 b 430 895 512 894 475 895 l 270 895 l 270 604 l 444 604 b 544 610 486 604 519 606 b 613 637 569 614 592 623 b 658 689 634 650 649 668 b 671 766 667 711 671 736 m 758 305 b 739 402 758 346 751 378 b 673 463 727 426 705 446 b 594 485 651 474 625 482 b 481 490 563 489 525 490 l 270 490 l 270 115 l 448 115 b 592 124 506 115 555 118 b 684 157 630 130 660 141 b 740 218 710 175 728 195 b 758 305 752 240 758 269 "},"C":{"ha":970,"x_min":0,"x_max":0,"o":"m 848 43 b 769 13 828 33 802 23 b 679 -9 741 4 712 -3 b 572 -18 647 -15 611 -18 b 373 13 499 -18 433 -8 b 216 109 313 33 261 65 b 115 273 173 152 139 207 b 78 504 90 339 78 416 b 113 727 78 587 90 661 b 215 893 137 793 171 848 b 371 994 258 937 310 970 b 573 1028 431 1017 499 1028 b 735 1008 627 1028 681 1022 b 916 939 790 995 850 972 l 916 780 l 905 780 b 740 882 850 826 795 860 b 564 913 685 903 627 913 b 426 889 513 913 467 905 b 317 812 385 872 349 847 b 244 683 286 778 261 735 b 218 504 226 631 218 572 b 247 321 218 433 227 372 b 321 196 266 270 290 228 b 432 122 352 163 389 138 b 566 98 474 106 519 98 b 747 131 630 98 691 109 b 906 231 804 153 857 186 l 916 231 l 916 73 "},"D":{"ha":1070,"x_min":0,"x_max":0,"o":"m 989 504 b 929 254 989 412 969 329 b 769 81 889 180 836 122 b 615 19 723 52 671 32 b 391 0 558 6 483 0 l 136 0 l 136 1010 l 388 1010 b 623 988 486 1010 565 1003 b 770 930 681 974 730 955 b 931 758 839 887 893 830 b 989 504 970 687 989 602 m 848 506 b 807 706 848 585 835 652 b 684 834 779 760 738 803 b 557 881 644 857 602 872 b 396 895 512 890 458 895 l 270 895 l 270 115 l 396 115 b 565 130 461 115 517 120 b 698 182 613 139 658 157 b 811 309 748 215 786 257 b 848 506 836 362 848 427 "},"E":{"ha":878,"x_min":0,"x_max":0,"o":"m 136 0 l 136 1010 l 801 1010 l 801 890 l 270 890 l 270 614 l 801 614 l 801 494 l 270 494 l 270 119 l 801 119 l 801 0 "},"F":{"ha":798,"x_min":0,"x_max":0,"o":"m 270 890 l 270 606 l 709 606 l 709 486 l 270 486 l 270 0 l 136 0 l 136 1010 l 781 1010 l 781 890 "},"G":{"ha":1077,"x_min":0,"x_max":0,"o":"m 978 75 b 797 8 923 49 863 27 b 608 -20 732 -10 669 -20 b 391 13 529 -20 457 -9 b 224 111 326 35 270 67 b 116 275 177 154 141 209 b 78 506 91 341 78 418 b 219 888 78 667 125 795 b 608 1028 314 981 443 1028 b 784 1007 665 1028 724 1021 b 977 937 844 994 908 970 l 977 778 l 965 778 b 904 821 951 789 931 803 b 825 865 877 838 851 853 b 719 900 794 879 759 890 b 585 913 680 909 635 913 b 316 805 472 913 382 877 b 218 510 251 732 218 634 b 321 205 218 379 252 278 b 602 96 389 133 483 96 b 731 109 645 96 688 101 b 845 142 775 118 812 129 l 845 390 l 574 390 l 574 508 l 978 508 l 978 75 "},"H":{"ha":1044,"x_min":0,"x_max":0,"o":"m 774 0 l 774 494 l 270 494 l 270 0 l 136 0 l 136 1010 l 270 1010 l 270 614 l 774 614 l 774 1010 l 908 1010 l 908 0 "},"I":{"ha":585,"x_min":0,"x_max":0,"o":"m 93 0 l 93 103 l 225 103 l 225 907 l 93 907 l 93 1010 l 492 1010 l 492 907 l 359 907 l 359 103 l 492 103 l 492 0 "},"J":{"ha":631,"x_min":0,"x_max":0,"o":"m 506 262 b 425 58 506 174 479 106 b 208 -14 371 10 298 -14 b 121 -8 186 -14 157 -12 b 30 5 85 -5 54 0 l 30 131 l 37 131 b 106 111 56 125 79 118 b 189 101 133 104 161 101 b 289 115 231 101 264 106 b 343 156 313 125 331 138 b 367 222 355 174 363 196 b 372 313 370 249 372 279 l 372 903 l 158 903 l 158 1010 l 506 1010 l 506 262 "},"K":{"ha":962,"x_min":0,"x_max":0,"o":"m 773 0 l 374 450 l 273 342 l 273 0 l 139 0 l 139 1010 l 273 1010 l 273 483 l 764 1010 l 926 1010 l 475 535 l 947 0 "},"L":{"ha":773,"x_min":0,"x_max":0,"o":"m 136 0 l 136 1010 l 270 1010 l 270 119 l 774 119 l 774 0 "},"M":{"ha":1171,"x_min":0,"x_max":0,"o":"m 901 0 l 901 870 l 620 278 l 540 278 l 261 870 l 261 0 l 136 0 l 136 1010 l 319 1010 l 588 448 l 848 1010 l 1035 1010 l 1035 0 "},"N":{"ha":1039,"x_min":0,"x_max":0,"o":"m 740 0 l 261 903 l 261 0 l 136 0 l 136 1010 l 344 1010 l 781 185 l 781 1010 l 906 1010 l 906 0 "},"O":{"ha":1093,"x_min":0,"x_max":0,"o":"m 888 894 b 983 728 930 849 961 793 b 1016 505 1005 662 1016 588 b 982 281 1016 421 1005 347 b 888 117 960 215 929 160 b 741 14 847 71 798 37 b 547 -21 684 -9 619 -21 b 353 14 476 -21 411 -9 b 205 117 295 38 245 72 b 111 281 164 161 133 216 b 78 505 89 347 78 421 b 111 726 78 587 89 661 b 205 894 132 791 164 847 b 354 996 245 938 295 972 b 547 1031 413 1019 477 1031 b 742 995 619 1031 684 1019 b 888 894 799 971 848 938 m 876 505 b 788 808 876 636 847 737 b 547 915 729 879 649 915 b 306 808 445 915 364 879 b 218 505 247 737 218 636 b 307 200 218 372 248 271 b 547 95 367 130 447 95 b 787 200 648 95 728 130 b 876 505 846 271 876 372 "},"P":{"ha":838,"x_min":0,"x_max":0,"o":"m 796 705 b 773 580 796 660 788 618 b 707 481 757 542 735 509 b 584 402 673 446 631 420 b 404 376 536 385 477 376 l 270 376 l 270 0 l 136 0 l 136 1010 l 410 1010 b 564 995 470 1010 522 1005 b 675 947 606 984 643 968 b 765 850 714 921 744 889 b 796 705 786 812 796 763 m 656 701 b 638 792 656 736 650 766 b 583 855 626 818 607 839 b 508 885 561 869 536 879 b 403 895 480 891 445 895 l 270 895 l 270 491 l 383 491 b 515 506 437 491 481 496 b 598 552 549 515 577 531 b 643 621 619 574 634 597 b 656 701 652 644 656 671 "},"Q":{"ha":1093,"x_min":0,"x_max":0,"o":"m 1036 -248 b 956 -262 1009 -254 982 -259 b 875 -267 929 -265 902 -267 b 685 -202 796 -267 733 -245 b 608 -16 638 -159 612 -97 b 576 -20 597 -18 586 -19 b 547 -21 566 -21 556 -21 b 353 14 476 -21 411 -9 b 205 117 295 38 245 72 b 111 281 164 161 133 216 b 78 505 89 347 78 421 b 111 726 78 587 89 661 b 205 894 132 791 164 847 b 354 996 245 938 295 972 b 547 1031 413 1019 477 1031 b 742 995 619 1031 684 1019 b 888 894 799 971 848 938 b 983 728 930 849 961 793 b 1016 505 1005 662 1016 588 b 940 193 1016 381 991 277 b 737 15 890 108 822 49 b 774 -105 739 -37 751 -77 b 897 -148 796 -134 838 -148 b 963 -139 916 -148 938 -145 b 1018 -124 989 -134 1007 -129 l 1036 -124 l 1036 -248 m 876 505 b 788 808 876 636 847 737 b 547 915 729 879 649 915 b 306 808 445 915 364 879 b 218 505 247 737 218 636 b 307 200 218 372 248 271 b 547 95 367 130 447 95 b 787 200 648 95 728 130 b 876 505 846 271 876 372 "},"R":{"ha":966,"x_min":0,"x_max":0,"o":"m 797 0 l 459 401 l 270 401 l 270 0 l 136 0 l 136 1010 l 418 1010 b 571 998 479 1010 530 1006 b 681 956 612 990 648 976 b 767 868 718 932 746 903 b 798 735 787 833 798 789 b 743 552 798 662 779 601 b 591 441 706 503 656 466 l 971 0 m 657 726 b 642 803 657 755 652 780 b 591 859 632 825 615 844 b 522 887 572 872 549 882 b 428 895 496 892 464 895 l 270 895 l 270 513 l 406 513 b 517 525 448 513 485 517 b 597 566 548 532 575 546 b 643 632 618 585 633 607 b 657 726 652 656 657 688 "},"S":{"ha":949,"x_min":0,"x_max":0,"o":"m 869 288 b 842 172 869 249 860 210 b 765 74 824 133 798 101 b 638 6 729 45 687 22 b 465 -18 590 -10 532 -18 b 268 2 392 -18 326 -12 b 91 62 210 16 151 36 l 91 231 l 100 231 b 277 132 151 188 210 155 b 466 98 344 109 407 98 b 660 144 549 98 614 113 b 730 269 707 176 730 217 b 697 368 730 314 719 347 b 597 418 675 389 642 406 b 487 440 563 427 526 434 b 361 463 447 446 405 453 b 162 560 271 481 205 514 b 97 739 119 606 97 666 b 204 947 97 824 133 893 b 476 1028 276 1001 366 1028 b 671 1008 547 1028 612 1021 b 829 958 731 994 783 977 l 829 799 l 819 799 b 668 880 781 831 730 858 b 475 912 605 901 541 912 b 302 867 404 912 346 897 b 237 752 258 838 237 799 b 269 653 237 710 248 677 b 384 598 291 629 329 611 b 507 575 413 592 454 584 b 643 547 561 566 606 557 b 812 457 718 527 774 497 b 869 288 850 417 869 361 "},"T":{"ha":856,"x_min":0,"x_max":0,"o":"m 495 890 l 495 0 l 361 0 l 361 890 l 0 890 l 0 1010 l 856 1010 l 856 890 "},"U":{"ha":1017,"x_min":0,"x_max":0,"o":"m 896 406 b 872 214 896 332 888 268 b 793 78 856 159 829 114 b 671 3 758 44 717 19 b 508 -21 624 -13 570 -21 b 342 4 445 -21 389 -13 b 224 78 295 21 256 45 b 145 212 187 115 161 160 b 121 406 129 265 121 329 l 121 1010 l 255 1010 l 255 399 b 266 269 255 344 259 301 b 304 183 274 238 286 209 b 385 117 324 154 351 132 b 508 94 419 102 460 94 b 631 116 556 94 597 102 b 713 183 665 131 692 153 b 750 272 730 209 743 238 b 762 395 758 305 762 346 l 762 1010 l 896 1010 l 896 406 "},"V":{"ha":949,"x_min":0,"x_max":0,"o":"m 564 0 l 385 0 l 18 1010 l 161 1010 l 478 121 l 795 1010 l 932 1010 "},"W":{"ha":1373,"x_min":0,"x_max":0,"o":"m 1048 0 l 897 0 l 685 838 l 477 0 l 330 0 l 62 1010 l 200 1010 l 412 170 l 621 1010 l 758 1010 l 968 162 l 1179 1010 l 1311 1010 "},"X":{"ha":951,"x_min":0,"x_max":0,"o":"m 557 511 l 905 0 l 750 0 l 475 416 l 193 0 l 46 0 l 398 505 l 54 1010 l 209 1010 l 481 600 l 759 1010 l 906 1010 "},"Y":{"ha":854,"x_min":0,"x_max":0,"o":"m 495 443 l 495 0 l 361 0 l 361 429 l 4 1010 l 153 1010 l 429 558 l 707 1010 l 850 1010 "},"Z":{"ha":951,"x_min":0,"x_max":0,"o":"m 85 0 l 85 125 l 705 890 l 109 890 l 109 1010 l 859 1010 l 859 888 l 233 119 l 873 119 l 873 0 "},"[":{"ha":631,"x_min":0,"x_max":0,"o":"m 162 -266 l 162 1055 l 515 1055 l 515 958 l 280 958 l 280 -169 l 515 -169 l 515 -266 "},"\\":{"ha":631,"x_min":0,"x_max":0,"o":"m 534 -206 l 47 1055 l 167 1055 l 651 -206 "},"]":{"ha":631,"x_min":0,"x_max":0,"o":"m 116 -266 l 116 -169 l 351 -169 l 351 958 l 116 958 l 116 1055 l 469 1055 l 469 -266 "},"^":{"ha":1137,"x_min":0,"x_max":0,"o":"m 876 464 l 568 889 l 260 463 l 126 463 l 526 1010 l 611 1010 l 1010 464 "},"_":{"ha":883,"x_min":0,"x_max":0,"o":"m -3 -203 l -3 -122 l 886 -122 l 886 -203 "},"`":{"ha":883,"x_min":0,"x_max":0,"o":"m 416 883 l 231 1137 l 395 1137 l 517 883 "},"a":{"ha":834,"x_min":0,"x_max":0,"o":"m 587 0 l 587 81 l 542 48 b 486 16 522 35 504 24 b 412 -11 464 5 440 -4 b 315 -21 385 -18 352 -21 b 142 47 247 -21 189 2 b 71 220 94 92 71 150 b 107 359 71 277 83 324 b 213 443 132 395 167 422 b 379 484 259 463 314 477 b 587 500 444 491 513 497 l 587 520 b 572 592 587 549 582 573 b 528 637 562 611 547 626 b 463 658 510 647 489 654 b 384 663 438 661 411 663 b 272 650 350 663 313 659 b 144 612 231 641 188 628 l 138 612 l 138 741 b 245 764 163 748 198 755 b 385 776 293 772 339 776 b 524 763 438 776 484 771 b 627 718 563 754 598 739 b 692 637 655 697 677 670 b 714 514 707 604 714 563 l 714 0 m 587 397 b 450 387 548 395 503 392 b 325 368 397 383 356 376 b 236 319 288 357 259 341 b 202 229 213 297 202 267 b 241 131 202 185 215 152 b 361 98 268 109 308 98 b 484 124 406 98 447 106 b 587 186 521 141 556 162 "},"b":{"ha":865,"x_min":0,"x_max":0,"o":"m 792 385 b 765 214 792 321 783 264 b 693 86 747 163 723 120 b 587 6 661 50 626 24 b 460 -21 549 -12 507 -21 b 348 -6 418 -21 380 -16 b 253 35 316 4 284 18 l 245 0 l 125 0 l 125 1055 l 253 1055 l 253 678 b 367 750 289 708 327 732 b 503 779 407 769 452 779 b 714 675 592 779 663 744 b 792 385 766 607 792 510 m 661 381 b 616 587 661 472 646 540 b 471 657 586 634 538 657 b 359 633 434 657 397 649 b 253 571 321 617 286 596 l 253 137 b 346 103 289 121 320 109 b 435 94 372 97 402 94 b 601 163 505 94 561 117 b 661 381 641 209 661 282 "},"c":{"ha":724,"x_min":0,"x_max":0,"o":"m 686 47 b 565 0 643 27 603 11 b 443 -17 526 -11 486 -17 b 292 7 388 -17 338 -9 b 175 80 247 23 208 47 b 98 203 142 113 116 154 b 71 378 80 253 71 311 b 173 669 71 502 105 599 b 443 775 241 740 331 775 b 571 757 486 775 529 769 b 686 712 612 745 651 730 l 686 570 l 679 570 b 558 640 640 601 600 624 b 437 665 517 656 477 665 b 266 592 365 665 308 640 b 203 378 224 543 203 472 b 265 167 203 286 224 216 b 437 94 306 118 363 94 b 516 104 463 94 489 97 b 588 130 543 111 567 119 b 640 160 607 140 624 150 b 679 188 656 171 669 180 l 686 188 l 686 47 "},"d":{"ha":865,"x_min":0,"x_max":0,"o":"m 612 0 l 612 79 b 498 5 576 48 538 23 b 368 -21 458 -12 415 -21 b 153 83 278 -21 206 14 b 73 373 100 153 73 250 b 101 545 73 437 82 494 b 175 673 119 595 144 637 b 282 751 206 707 242 733 b 410 779 323 769 366 779 b 515 766 449 779 485 774 b 612 727 546 758 578 745 l 612 1055 l 740 1055 l 740 0 m 612 621 b 520 653 578 637 547 647 b 431 662 493 659 463 662 b 264 587 360 662 304 637 b 205 376 225 538 205 467 b 251 171 205 286 220 217 b 399 100 282 124 331 100 b 509 124 435 100 472 108 b 612 186 546 140 580 161 "},"e":{"ha":827,"x_min":0,"x_max":0,"o":"m 201 366 b 222 244 201 319 208 278 b 280 159 236 209 256 181 b 364 110 304 137 332 121 b 471 94 396 99 432 94 b 626 124 522 94 574 104 b 738 185 679 145 716 165 l 745 185 l 745 46 b 613 1 702 28 658 13 b 472 -18 568 -12 521 -18 b 178 84 346 -18 248 16 b 72 374 107 152 72 249 b 173 669 72 498 106 597 b 440 779 241 742 330 779 b 676 689 542 779 621 749 b 760 435 732 629 760 545 l 760 366 m 635 463 b 585 618 635 530 618 582 b 433 673 552 655 501 673 b 270 613 365 673 311 653 b 201 463 230 573 207 523 l 635 463 "},"f":{"ha":488,"x_min":0,"x_max":0,"o":"m 526 932 b 471 944 512 936 494 940 b 412 951 449 949 429 951 b 293 915 357 951 317 939 b 256 783 268 890 256 847 l 256 758 l 486 758 l 486 650 l 260 650 l 260 0 l 132 0 l 132 650 l 46 650 l 46 758 l 132 758 l 132 783 b 199 990 132 873 155 942 b 393 1062 244 1038 309 1062 b 470 1058 422 1062 447 1061 b 533 1048 493 1055 514 1052 l 533 932 "},"g":{"ha":865,"x_min":0,"x_max":0,"o":"m 740 86 b 652 -197 740 -42 711 -137 b 383 -287 594 -257 504 -287 b 266 -278 343 -287 304 -284 b 153 -254 227 -273 190 -265 l 153 -124 l 159 -124 b 258 -154 180 -132 213 -142 b 394 -172 304 -166 349 -172 b 502 -157 437 -172 473 -167 b 568 -113 530 -146 552 -132 b 602 -50 584 -96 595 -74 b 612 34 609 -25 612 3 l 612 103 b 502 34 574 72 537 49 b 368 12 467 19 422 12 b 153 110 278 12 206 44 b 73 386 100 175 73 267 b 101 554 73 451 82 507 b 176 677 119 602 144 642 b 283 752 205 709 241 734 b 408 779 325 770 367 779 b 518 765 452 779 489 774 b 612 725 548 756 579 743 l 621 758 l 740 758 l 740 86 m 612 621 b 518 654 578 637 547 648 b 431 664 489 661 460 664 b 265 593 361 664 305 640 b 205 389 225 546 205 478 b 250 195 205 304 220 239 b 398 130 279 151 329 130 b 510 151 435 130 472 137 b 612 208 547 165 581 184 "},"h":{"ha":879,"x_min":0,"x_max":0,"o":"m 631 0 l 631 431 b 625 529 631 466 629 499 b 603 601 621 560 614 584 b 554 643 592 620 575 634 b 471 657 533 653 505 657 b 362 631 437 657 400 649 b 253 566 324 614 288 592 l 253 0 l 125 0 l 125 1055 l 253 1055 l 253 673 b 376 751 293 706 334 732 b 507 779 419 769 463 779 b 694 705 589 779 651 754 b 759 492 737 655 759 584 l 759 0 "},"i":{"ha":381,"x_min":0,"x_max":0,"o":"m 119 884 l 119 1017 l 262 1017 l 262 884 m 127 0 l 127 758 l 254 758 l 254 0 "},"j":{"ha":478,"x_min":0,"x_max":0,"o":"m 218 884 l 218 1017 l 361 1017 l 361 884 m 353 -18 b 286 -219 353 -107 331 -174 b 104 -287 240 -264 180 -287 b 32 -281 86 -287 62 -285 b -42 -268 3 -278 -22 -273 l -42 -146 l -35 -146 b 16 -163 -23 -151 -6 -157 b 79 -173 37 -170 58 -173 b 157 -159 111 -173 137 -168 b 202 -119 177 -150 192 -137 b 221 -53 212 -101 218 -79 b 226 40 224 -28 226 3 l 226 650 l 68 650 l 68 758 l 353 758 l 353 -18 "},"k":{"ha":822,"x_min":0,"x_max":0,"o":"m 645 0 l 341 332 l 258 253 l 258 0 l 131 0 l 131 1055 l 258 1055 l 258 378 l 627 758 l 787 758 l 435 408 l 813 0 "},"l":{"ha":381,"x_min":0,"x_max":0,"o":"m 127 0 l 127 1055 l 254 1055 l 254 0 "},"m":{"ha":1351,"x_min":0,"x_max":0,"o":"m 1103 0 l 1103 431 b 1099 526 1103 464 1102 495 b 1080 598 1096 556 1090 580 b 1036 642 1070 618 1055 632 b 951 657 1016 652 988 657 b 844 630 916 657 880 648 b 737 562 809 612 773 590 b 741 526 739 552 740 540 b 742 485 741 512 742 498 l 742 0 l 614 0 l 614 431 b 610 527 614 465 613 497 b 591 599 607 557 601 581 b 547 643 581 618 566 633 b 463 657 527 652 499 657 b 358 631 428 657 393 649 b 253 566 323 614 288 592 l 253 0 l 125 0 l 125 758 l 253 758 l 253 673 b 372 751 293 706 332 732 b 498 779 412 769 454 779 b 630 746 550 779 594 768 b 710 656 666 724 692 694 b 851 750 762 699 809 731 b 987 779 894 769 939 779 b 1172 703 1071 779 1132 753 b 1231 492 1211 653 1231 582 l 1231 0 "},"n":{"ha":879,"x_min":0,"x_max":0,"o":"m 631 0 l 631 431 b 625 529 631 466 629 499 b 603 601 621 560 614 584 b 554 643 592 620 575 634 b 471 657 533 653 505 657 b 362 631 437 657 400 649 b 253 566 324 614 288 592 l 253 0 l 125 0 l 125 758 l 253 758 l 253 673 b 376 751 293 706 334 732 b 507 779 419 769 463 779 b 694 705 589 779 651 754 b 759 492 737 655 759 584 l 759 0 "},"o":{"ha":843,"x_min":0,"x_max":0,"o":"m 771 378 b 676 86 771 255 739 158 b 422 -21 613 15 528 -21 b 166 86 315 -21 230 15 b 72 378 103 158 72 255 b 166 671 72 502 103 599 b 422 779 230 743 315 779 b 676 671 528 779 613 743 b 771 378 739 599 771 502 m 640 378 b 582 597 640 477 620 549 b 422 669 543 645 490 669 b 261 597 353 669 299 645 b 203 378 223 549 203 477 b 261 162 203 283 223 211 b 422 89 300 113 353 89 b 582 162 490 89 543 113 b 640 378 620 210 640 283 "},"p":{"ha":865,"x_min":0,"x_max":0,"o":"m 792 388 b 766 219 792 326 783 270 b 691 90 748 169 723 125 b 586 13 661 57 626 31 b 457 -15 545 -6 502 -15 b 350 -2 418 -15 382 -11 b 253 38 318 7 286 20 l 253 -279 l 125 -279 l 125 758 l 253 758 l 253 678 b 367 750 287 707 325 731 b 503 779 410 769 455 779 b 716 675 594 779 665 744 b 792 388 767 606 792 510 m 661 385 b 614 589 661 476 645 544 b 470 657 583 635 535 657 b 359 633 433 657 397 649 b 253 571 322 618 287 597 l 253 142 b 346 109 289 125 320 114 b 435 100 372 103 402 100 b 601 172 506 100 561 124 b 661 385 641 220 661 290 "},"q":{"ha":865,"x_min":0,"x_max":0,"o":"m 612 -279 l 612 85 b 495 10 573 52 534 26 b 369 -15 456 -7 414 -15 b 154 89 279 -15 207 20 b 73 376 100 159 73 254 b 101 549 73 441 83 499 b 176 675 120 599 145 641 b 281 751 205 708 241 733 b 408 779 321 769 363 779 b 516 765 449 779 485 774 b 612 725 548 756 580 743 l 621 758 l 740 758 l 740 -279 m 612 621 b 519 654 577 637 546 648 b 431 664 492 661 462 664 b 262 589 357 664 301 639 b 205 382 224 539 205 470 b 251 178 205 294 220 226 b 397 106 282 130 331 106 b 509 131 434 106 472 114 b 612 193 546 147 580 167 "},"r":{"ha":593,"x_min":0,"x_max":0,"o":"m 591 618 b 536 628 572 623 554 626 b 473 631 518 630 497 631 b 359 605 433 631 395 623 b 253 538 322 588 287 565 l 253 0 l 125 0 l 125 758 l 253 758 l 253 646 b 387 732 304 686 348 715 b 505 758 426 749 465 758 b 553 756 527 758 543 757 b 598 749 563 755 578 753 l 598 618 "},"s":{"ha":724,"x_min":0,"x_max":0,"o":"m 667 218 b 581 48 667 149 638 92 b 347 -18 524 4 446 -18 b 192 2 290 -18 239 -12 b 75 45 145 15 106 30 l 75 189 l 81 189 b 216 116 122 158 166 134 b 357 90 265 98 312 90 b 489 117 413 90 457 99 b 536 202 521 135 536 163 b 511 270 536 232 528 255 b 412 309 493 285 460 298 b 341 323 394 313 370 318 b 261 341 312 329 285 335 b 120 419 195 359 148 385 b 78 545 92 453 78 495 b 97 633 78 576 84 605 b 156 707 110 660 130 685 b 253 757 181 728 214 745 b 384 776 292 770 335 776 b 521 759 429 776 475 770 b 637 719 568 748 606 735 l 637 583 l 630 583 b 511 643 597 607 558 627 b 374 668 465 660 419 668 b 256 641 328 668 288 659 b 208 562 224 623 208 597 b 237 491 208 530 218 507 b 330 452 256 475 287 462 b 409 436 353 447 379 441 b 481 421 438 431 462 426 b 618 351 541 408 586 384 b 667 218 651 318 667 274 "},"t":{"ha":547,"x_min":0,"x_max":0,"o":"m 519 7 b 440 -9 495 0 469 -5 b 365 -15 412 -13 387 -15 b 189 47 288 -15 229 6 b 128 248 148 89 128 156 l 128 650 l 42 650 l 42 758 l 128 758 l 128 975 l 256 975 l 256 758 l 519 758 l 519 650 l 256 650 l 256 305 b 258 212 256 265 257 234 b 277 149 260 190 267 169 b 318 110 287 131 301 118 b 398 97 336 101 362 97 b 463 106 419 97 441 100 b 512 121 486 112 502 117 l 519 121 l 519 7 "},"u":{"ha":879,"x_min":0,"x_max":0,"o":"m 626 0 l 626 84 b 503 6 583 50 542 24 b 372 -21 463 -12 420 -21 b 186 52 293 -21 231 3 b 120 266 142 100 120 172 l 120 758 l 248 758 l 248 326 b 253 228 248 288 249 255 b 276 157 257 200 264 177 b 323 114 288 137 304 123 b 408 100 343 105 371 100 b 516 126 441 100 477 109 b 626 192 556 143 592 165 l 626 758 l 753 758 l 753 0 "},"v":{"ha":822,"x_min":0,"x_max":0,"o":"m 474 0 l 346 0 l 41 758 l 180 758 l 414 155 l 647 758 l 781 758 "},"w":{"ha":1137,"x_min":0,"x_max":0,"o":"m 881 0 l 763 0 l 568 584 l 375 0 l 258 0 l 58 758 l 191 758 l 330 171 l 519 758 l 625 758 l 819 171 l 950 758 l 1078 758 "},"x":{"ha":822,"x_min":0,"x_max":0,"o":"m 621 0 l 406 291 l 189 0 l 41 0 l 336 378 l 43 758 l 204 758 l 418 471 l 632 758 l 781 758 l 484 385 l 781 0 "},"y":{"ha":822,"x_min":0,"x_max":0,"o":"m 338 -279 l 202 -279 l 343 37 l 41 758 l 180 758 l 412 196 l 647 758 l 781 758 "},"z":{"ha":730,"x_min":0,"x_max":0,"o":"m 63 0 l 63 94 l 505 651 l 73 651 l 73 758 l 663 758 l 663 667 l 220 108 l 675 108 l 675 0 "},"{":{"ha":882,"x_min":0,"x_max":0,"o":"m 653 -266 b 456 -198 572 -266 506 -243 b 380 -3 406 -153 380 -88 l 380 98 b 324 277 380 174 362 234 b 152 342 287 320 229 342 l 117 342 l 117 448 l 152 448 b 324 512 229 448 287 469 b 380 692 362 556 380 615 l 380 793 b 456 988 380 878 406 943 b 653 1055 506 1033 572 1055 l 755 1055 l 755 962 l 677 962 b 544 919 616 962 571 947 b 502 781 516 890 502 845 l 502 663 b 450 504 502 600 484 547 b 304 403 415 461 366 428 l 304 387 b 450 285 366 362 415 328 b 502 127 484 242 502 190 l 502 8 b 544 -130 502 -55 516 -101 b 677 -172 571 -158 616 -172 l 755 -172 l 755 -266 "},"|":{"ha":631,"x_min":0,"x_max":0,"o":"m 256 -266 l 256 1055 l 374 1055 l 374 -266 "},"}":{"ha":882,"x_min":0,"x_max":0,"o":"m 730 342 b 557 277 652 342 595 320 b 501 98 520 234 501 174 l 501 -3 b 426 -198 501 -88 476 -153 b 229 -266 375 -243 309 -266 l 127 -266 l 127 -172 l 204 -172 b 338 -130 266 -172 310 -158 b 380 8 366 -101 380 -55 l 380 127 b 432 285 380 190 397 242 b 577 387 467 328 515 362 l 577 403 b 432 504 515 428 467 461 b 380 663 397 547 380 600 l 380 781 b 338 919 380 845 366 890 b 204 962 310 947 266 962 l 127 962 l 127 1055 l 229 1055 b 426 988 309 1055 375 1033 b 501 793 476 943 501 878 l 501 692 b 557 512 501 615 520 556 b 730 448 595 469 652 448 l 764 448 l 764 342 "},"~":{"ha":1137,"x_min":0,"x_max":0,"o":"m 1010 629 b 995 496 1009 584 1004 540 b 950 380 985 453 970 414 b 875 298 929 346 904 318 b 763 269 845 279 808 269 b 650 295 720 269 683 277 b 543 391 617 313 581 345 b 443 498 497 448 464 483 b 378 519 422 512 400 519 b 280 460 335 519 303 500 b 240 268 257 421 244 356 l 127 268 b 142 400 128 313 133 357 b 186 516 151 443 166 481 b 262 597 205 550 231 577 b 374 628 293 618 330 628 b 487 602 416 628 453 619 b 594 505 520 584 556 552 b 683 408 630 461 660 428 b 759 377 706 387 731 377 b 862 446 805 377 840 400 b 897 629 884 491 895 552 l 1010 629 "},"¡":{"ha":547,"x_min":0,"x_max":0,"o":"m 204 867 l 204 1010 l 342 1010 l 342 867 m 197 0 l 215 732 l 330 732 l 349 0 "},"¢":{"ha":883,"x_min":0,"x_max":0,"o":"m 760 50 b 650 14 727 37 691 25 b 519 -4 610 3 566 -3 l 519 -245 l 439 -245 l 439 -1 b 196 111 336 8 255 45 b 108 378 137 176 108 265 b 198 643 108 487 138 576 b 439 760 259 711 339 750 l 439 1000 l 519 1000 l 519 762 b 652 745 566 761 610 755 b 760 709 694 735 730 723 l 760 572 l 752 572 b 656 629 727 592 695 611 b 519 663 616 648 571 659 l 519 94 b 659 130 573 99 620 111 b 752 186 698 149 729 168 l 760 186 l 760 50 m 439 662 b 292 577 378 653 329 625 b 237 378 256 530 237 463 b 289 184 237 296 255 231 b 439 96 323 136 373 107 "},"£":{"ha":883,"x_min":0,"x_max":0,"o":"m 93 0 l 93 140 b 208 226 146 155 185 183 b 243 416 231 269 243 332 l 123 416 l 123 509 l 243 509 l 243 720 b 329 942 243 810 271 884 b 553 1029 386 1000 461 1029 b 676 1018 601 1029 642 1026 b 771 995 710 1010 742 1003 l 771 855 l 764 855 b 671 900 736 874 705 889 b 561 916 636 911 600 916 b 419 860 498 916 450 898 b 372 707 387 823 372 772 l 372 509 l 653 509 l 653 416 l 372 416 l 372 374 b 330 225 372 317 358 268 b 221 123 302 183 265 149 l 221 116 l 789 116 l 789 0 "},"¤":{"ha":883,"x_min":0,"x_max":0,"o":"m 718 100 l 557 258 b 503 233 538 247 519 238 b 442 226 486 228 466 226 b 381 234 421 226 401 229 b 328 258 362 240 344 248 l 168 98 l 94 175 l 252 334 b 228 389 241 350 233 369 b 220 448 222 409 220 429 b 227 508 220 472 222 492 b 252 562 232 525 241 543 l 94 723 l 169 798 l 328 638 b 382 662 345 649 362 657 b 442 671 402 668 422 671 b 502 663 462 671 482 668 b 557 639 522 657 540 649 l 715 798 l 792 724 l 633 563 b 657 509 644 546 652 528 b 665 448 663 490 665 470 b 657 388 665 428 662 408 b 633 334 651 368 643 350 l 792 174 m 564 448 b 529 536 564 481 552 510 b 442 574 505 561 476 574 b 356 536 409 574 381 561 b 320 448 332 512 320 482 b 356 360 320 415 332 386 b 442 323 379 335 408 323 b 528 360 475 323 504 335 b 564 448 552 384 564 414 "},"¥":{"ha":883,"x_min":0,"x_max":0,"o":"m 504 439 l 504 407 l 756 407 l 756 313 l 505 313 l 505 220 l 756 220 l 756 126 l 505 126 l 505 0 l 378 0 l 378 126 l 127 126 l 127 220 l 378 220 l 378 313 l 127 313 l 127 407 l 379 407 l 379 439 l 73 1010 l 217 1010 l 442 563 l 670 1010 l 808 1010 "},"¦":{"ha":631,"x_min":0,"x_max":0,"o":"m 256 514 l 256 1055 l 374 1055 l 374 514 m 256 -266 l 256 275 l 374 275 l 374 -266 "},"§":{"ha":883,"x_min":0,"x_max":0,"o":"m 765 408 b 725 281 765 360 752 317 b 618 189 698 244 663 213 l 618 184 b 713 103 662 163 694 136 b 743 -7 733 71 743 34 b 721 -106 743 -42 736 -75 b 654 -186 706 -137 684 -164 b 540 -243 622 -212 584 -231 b 390 -261 496 -255 446 -261 b 274 -252 351 -261 312 -258 b 155 -222 237 -246 197 -236 l 155 -90 l 162 -90 b 277 -132 198 -107 236 -121 b 411 -149 317 -144 362 -149 b 557 -116 472 -149 520 -138 b 612 -24 593 -94 612 -64 b 598 36 612 1 607 21 b 555 75 590 50 575 63 b 478 103 536 85 511 94 l 374 129 b 173 219 277 152 210 182 b 117 361 135 256 117 303 b 155 485 117 406 130 447 b 263 581 181 523 217 555 l 263 586 b 166 668 217 608 185 635 b 138 778 147 701 138 738 b 159 877 138 814 145 848 b 227 957 174 907 196 933 b 337 1010 255 980 292 997 b 492 1030 382 1024 434 1030 b 608 1021 531 1030 570 1027 b 726 991 646 1014 685 1005 l 726 860 l 720 860 b 616 899 693 872 659 885 b 470 919 573 912 525 919 b 327 888 413 919 365 909 b 269 798 288 867 269 837 b 284 735 269 772 274 751 b 328 695 294 719 308 706 b 401 667 347 685 372 675 b 508 640 431 659 467 650 b 705 555 598 619 664 591 b 765 408 745 520 765 470 m 597 271 b 627 315 610 286 620 300 b 637 376 633 330 637 350 b 626 435 637 399 633 419 b 595 474 618 451 608 464 b 549 501 582 485 567 494 b 493 519 532 508 513 514 b 435 534 475 524 456 529 b 356 555 414 539 388 546 b 323 533 348 551 337 544 b 287 502 309 523 297 513 b 258 455 276 490 266 474 b 245 393 249 436 245 415 b 255 335 245 370 248 351 b 286 295 262 319 272 306 b 331 269 298 285 313 276 b 389 250 350 261 369 255 l 447 235 b 525 214 469 230 495 223 b 561 238 534 219 546 227 b 597 271 576 248 588 259 "},"¨":{"ha":883,"x_min":0,"x_max":0,"o":"m 515 884 l 515 1017 l 650 1017 l 650 884 m 235 884 l 235 1017 l 370 1017 l 370 884 "},"©":{"ha":1389,"x_min":0,"x_max":0,"o":"m 1281 444 b 1109 30 1281 282 1224 144 b 694 -142 995 -85 856 -142 b 280 30 533 -142 394 -85 b 108 444 165 144 108 282 b 280 859 108 606 165 744 b 694 1031 394 974 533 1031 b 1109 859 856 1031 995 974 b 1281 444 1224 744 1281 606 m 1202 444 b 1054 805 1202 584 1153 705 b 694 956 954 905 835 956 b 335 805 554 956 435 905 b 186 444 236 705 186 584 b 335 83 186 304 236 184 b 694 -67 435 -17 554 -67 b 1054 83 835 -67 954 -17 b 1202 444 1153 184 1202 304 m 932 175 b 820 135 894 157 856 144 b 713 122 784 126 749 122 b 470 205 611 122 530 150 b 380 448 410 261 380 342 b 472 688 380 549 411 629 b 713 775 532 746 613 775 b 832 759 754 775 793 770 b 932 724 871 748 904 736 l 932 601 l 922 601 b 828 652 897 619 866 636 b 710 675 790 668 750 675 b 560 617 646 675 596 656 b 506 448 524 579 506 522 b 558 281 506 376 523 320 b 710 222 592 241 643 222 b 820 241 748 222 784 228 b 922 296 855 255 889 273 l 932 296 l 932 175 "},"ª":{"ha":758,"x_min":0,"x_max":0,"o":"m 525 376 l 525 439 l 489 413 b 443 388 478 405 463 397 b 385 367 422 379 403 372 b 308 360 367 362 341 360 b 162 418 250 360 201 379 b 102 565 122 456 102 505 b 134 683 102 613 113 652 b 218 753 155 713 183 736 b 352 788 253 769 298 781 b 525 802 406 795 463 800 l 525 814 b 513 872 525 838 521 858 b 478 907 505 887 493 898 b 426 922 463 915 445 920 b 363 926 406 925 385 926 b 250 909 326 926 288 920 b 166 884 212 899 184 890 l 157 884 l 157 1000 b 250 1020 177 1006 208 1013 b 364 1031 291 1027 329 1031 b 576 974 462 1031 533 1012 b 640 808 619 935 640 880 l 640 376 m 525 706 b 416 698 494 704 457 701 b 317 682 375 694 342 689 b 248 644 288 674 265 661 b 221 572 230 627 221 602 b 252 494 221 537 231 512 b 347 469 273 477 304 469 b 447 491 384 469 417 476 b 525 540 476 506 502 523 "},"«":{"ha":895,"x_min":0,"x_max":0,"o":"m 419 414 l 419 471 l 777 755 l 777 627 l 535 442 l 777 257 l 777 130 m 113 412 l 113 473 l 486 774 l 486 642 l 234 442 l 486 243 l 486 110 "},"¬":{"ha":1137,"x_min":0,"x_max":0,"o":"m 871 39 l 871 408 l 142 408 l 142 517 l 987 517 l 987 39 "},"®":{"ha":1389,"x_min":0,"x_max":0,"o":"m 1281 444 b 1109 30 1281 282 1224 144 b 694 -142 995 -85 856 -142 b 280 30 533 -142 394 -85 b 108 444 165 144 108 282 b 280 859 108 606 165 744 b 694 1031 394 974 533 1031 b 1109 859 856 1031 995 974 b 1281 444 1224 744 1281 606 m 1202 444 b 1054 805 1202 584 1153 705 b 694 956 954 905 835 956 b 335 805 554 956 435 905 b 186 444 236 705 186 584 b 335 83 186 304 236 184 b 694 -67 435 -17 554 -67 b 1054 83 835 -67 954 -17 b 1202 444 1153 184 1202 304 m 921 146 l 696 387 l 587 387 l 587 146 l 475 146 l 475 766 l 686 766 b 791 761 729 766 764 765 b 873 734 819 757 846 748 b 936 679 901 719 922 700 b 956 596 949 657 956 629 b 917 487 956 552 943 516 b 812 417 892 457 857 434 l 1072 146 m 833 589 b 824 632 833 605 830 619 b 792 663 818 645 807 655 b 747 678 778 671 763 676 b 688 682 732 680 712 682 l 587 682 l 587 472 l 673 472 b 745 478 701 472 725 474 b 795 500 766 483 782 490 b 825 538 810 512 819 524 b 833 589 831 551 833 568 "},"¯":{"ha":883,"x_min":0,"x_max":0,"o":"m 1 1131 l -3 1213 l 886 1213 l 886 1131 "},"°":{"ha":753,"x_min":0,"x_max":0,"o":"m 648 757 b 570 564 648 681 622 617 b 376 486 517 512 453 486 b 183 564 300 486 236 512 b 104 757 131 616 104 680 b 183 949 104 833 131 897 b 376 1028 236 1002 300 1028 b 570 949 453 1028 518 1002 b 648 757 622 897 648 833 m 536 757 b 491 873 536 803 521 842 b 376 920 461 905 422 920 b 262 873 330 920 292 905 b 216 757 231 842 216 803 b 263 640 216 710 232 671 b 376 593 294 609 332 593 b 491 641 422 593 461 609 b 536 757 521 673 536 711 "},"±":{"ha":1137,"x_min":0,"x_max":0,"o":"m 146 121 l 146 229 l 512 229 l 512 515 l 146 515 l 146 622 l 512 622 l 512 991 l 625 991 l 625 622 l 991 622 l 991 515 l 625 515 l 625 229 l 991 229 l 991 121 "},"²":{"ha":753,"x_min":0,"x_max":0,"o":"m 140 384 l 140 490 l 265 569 b 356 634 303 594 333 616 b 470 739 415 681 453 716 b 495 831 487 762 495 793 b 459 903 495 862 483 886 b 361 929 435 921 402 929 b 243 908 321 929 282 922 b 152 867 204 895 174 881 l 143 867 l 143 989 b 251 1018 175 1001 211 1010 b 369 1030 290 1026 330 1030 b 554 977 450 1030 512 1012 b 618 839 597 941 618 895 b 585 721 618 794 607 755 b 474 608 563 686 526 649 b 384 545 449 589 419 568 l 287 482 l 656 482 l 656 384 "},"³":{"ha":753,"x_min":0,"x_max":0,"o":"m 648 554 b 626 465 648 520 641 490 b 566 404 611 439 591 419 b 477 369 540 388 510 376 b 366 357 443 361 406 357 b 247 368 324 357 284 361 b 140 397 209 374 174 384 l 140 518 l 150 518 b 244 474 168 502 200 487 b 373 454 288 460 331 454 b 486 478 418 454 456 462 b 531 553 516 494 531 519 b 491 631 531 591 518 617 b 375 651 464 644 426 651 l 278 651 l 278 747 l 365 747 b 477 773 415 747 453 755 b 513 845 501 790 513 814 b 480 910 513 873 502 894 b 376 935 457 926 423 935 b 257 913 341 935 301 928 b 161 868 213 899 181 884 l 152 868 l 152 989 b 261 1019 185 1001 222 1011 b 380 1031 300 1027 340 1031 b 565 985 460 1031 521 1015 b 630 867 608 954 630 915 b 593 768 630 826 618 793 b 495 711 568 742 535 723 l 495 706 b 604 657 538 698 574 682 b 648 554 634 632 648 597 "},"´":{"ha":883,"x_min":0,"x_max":0,"o":"m 468 883 l 367 883 l 488 1137 l 653 1137 "},"µ":{"ha":891,"x_min":0,"x_max":0,"o":"m 642 0 l 635 80 b 551 11 608 51 580 28 b 446 -14 522 -6 487 -14 b 344 9 407 -14 373 -6 b 256 77 315 25 286 48 l 256 -279 l 129 -279 l 129 758 l 256 758 l 256 189 b 331 135 271 172 296 153 b 445 107 366 116 404 107 b 553 130 487 107 523 115 b 635 193 583 145 610 166 l 635 758 l 762 758 l 762 0 "},"¶":{"ha":883,"x_min":0,"x_max":0,"o":"m 650 -246 l 650 922 l 505 922 l 505 -246 l 404 -246 l 404 402 b 178 490 310 404 235 434 b 93 712 121 546 93 620 b 181 931 93 806 122 879 b 434 1010 240 984 324 1010 l 750 1010 l 750 -246 "},"·":{"ha":505,"x_min":0,"x_max":0,"o":"m 172 347 l 172 538 l 334 538 l 334 347 "},"¸":{"ha":883,"x_min":0,"x_max":0,"o":"m 597 -60 b 535 -229 597 -134 576 -190 b 374 -287 493 -267 440 -287 b 309 -282 357 -287 335 -285 b 239 -269 283 -279 260 -275 l 239 -161 l 245 -161 b 293 -176 257 -165 273 -170 b 357 -185 313 -182 334 -185 b 460 -159 404 -185 438 -176 b 494 -73 483 -141 494 -112 b 492 -28 494 -59 493 -45 b 488 14 490 -12 489 2 l 591 14 b 595 -17 592 5 593 -5 b 597 -60 596 -29 597 -43 "},"¹":{"ha":753,"x_min":0,"x_max":0,"o":"m 203 384 l 203 467 l 361 467 l 361 852 l 197 852 l 197 928 b 264 932 218 928 240 929 b 321 945 289 935 308 939 b 361 970 338 952 352 961 b 378 1013 371 980 377 994 l 470 1013 l 470 467 l 620 467 l 620 384 "},"º":{"ha":758,"x_min":0,"x_max":0,"o":"m 675 695 b 593 448 675 589 648 506 b 379 360 538 389 466 360 b 162 450 288 360 216 390 b 82 695 109 510 82 592 b 162 941 82 799 109 880 b 379 1031 216 1001 288 1031 b 593 943 466 1031 538 1001 b 675 695 648 884 675 801 m 552 695 b 506 870 552 773 537 831 b 379 928 476 909 433 928 b 251 869 324 928 281 909 b 205 695 221 830 205 772 b 251 521 205 618 221 560 b 379 463 281 482 324 463 b 506 520 433 463 476 482 b 552 695 537 559 552 617 "},"»":{"ha":895,"x_min":0,"x_max":0,"o":"m 410 110 l 410 243 l 661 442 l 410 642 l 410 774 l 783 473 l 783 412 m 118 130 l 118 257 l 360 442 l 118 627 l 118 755 l 476 471 l 476 414 "},"¼":{"ha":1389,"x_min":0,"x_max":0,"o":"m 258 383 l 258 845 l 116 845 l 116 924 b 228 939 162 924 199 929 b 277 1013 256 949 273 974 l 370 1013 l 370 383 m 427 0 l 315 0 l 844 1010 l 956 1010 m 1149 149 l 1149 0 l 1047 0 l 1047 149 l 732 149 l 732 275 l 1048 640 l 1149 640 l 1149 239 l 1259 239 l 1259 149 m 1050 511 l 810 239 l 1050 239 "},"½":{"ha":1389,"x_min":0,"x_max":0,"o":"m 258 383 l 258 845 l 116 845 l 116 924 b 228 939 162 924 199 929 b 277 1013 256 949 273 974 l 370 1013 l 370 383 m 427 0 l 315 0 l 844 1010 l 956 1010 m 859 0 l 859 100 l 966 182 b 1038 243 997 206 1021 226 b 1134 350 1088 289 1119 325 b 1156 442 1148 374 1156 405 b 1126 515 1156 474 1146 498 b 1044 540 1106 531 1079 540 b 948 519 1013 540 981 533 b 872 477 916 506 891 492 l 862 477 l 862 599 b 957 629 891 611 923 621 b 1061 640 991 636 1026 640 b 1224 587 1132 640 1186 622 b 1282 450 1263 551 1282 505 b 1254 337 1282 408 1272 371 b 1154 223 1235 304 1202 266 b 1073 158 1132 204 1105 182 l 988 94 l 1326 94 l 1326 0 "},"¾":{"ha":1389,"x_min":0,"x_max":0,"o":"m 538 560 b 517 474 538 528 531 499 b 465 413 504 449 486 428 b 387 377 441 396 415 384 b 292 366 359 370 327 366 b 188 376 255 366 220 370 b 95 406 155 383 124 393 l 95 524 l 106 524 b 184 480 123 508 149 494 b 290 460 219 467 254 460 b 384 485 328 460 359 469 b 421 559 409 502 421 526 b 387 635 421 596 410 622 b 292 655 365 648 333 655 l 197 655 l 197 749 l 281 749 b 373 775 321 749 351 758 b 405 846 394 792 405 816 b 377 910 405 873 396 894 b 290 935 359 926 330 935 b 194 913 260 935 228 928 b 117 869 159 899 133 885 l 105 869 l 105 987 b 199 1017 134 1000 165 1010 b 304 1029 233 1025 268 1029 b 465 981 373 1029 426 1013 b 522 867 503 950 522 912 b 489 770 522 828 511 796 b 404 714 467 745 439 726 l 404 709 b 498 661 440 701 472 686 b 538 560 525 636 538 603 m 488 0 l 376 0 l 905 1010 l 1017 1010 m 1187 149 l 1187 0 l 1085 0 l 1085 149 l 770 149 l 770 275 l 1086 640 l 1187 640 l 1187 239 l 1297 239 l 1297 149 m 1088 511 l 848 239 l 1088 239 "},"¿":{"ha":758,"x_min":0,"x_max":0,"o":"m 345 867 l 345 1010 l 483 1010 l 483 867 m 650 27 b 530 -7 612 14 572 2 b 391 -20 488 -16 442 -20 b 161 51 294 -20 217 3 b 77 237 105 98 77 160 b 100 355 77 282 84 321 b 163 448 116 389 137 420 b 256 524 190 476 221 501 l 355 586 l 355 739 l 477 739 l 477 532 b 382 476 450 517 418 498 b 298 416 347 454 319 434 b 238 342 273 395 253 371 b 215 248 223 314 215 283 b 267 133 215 196 232 158 b 401 96 301 108 346 96 b 537 118 447 96 493 103 b 643 165 582 133 617 149 l 650 165 l 650 27 "},"À":{"ha":949,"x_min":0,"x_max":0,"o":"m 789 0 l 690 281 l 253 281 l 154 0 l 18 0 l 385 1010 l 564 1010 l 932 0 m 471 892 l 294 397 l 648 397 m 484 1136 l 298 1390 l 463 1390 l 585 1136 "},"Á":{"ha":949,"x_min":0,"x_max":0,"o":"m 789 0 l 690 281 l 253 281 l 154 0 l 18 0 l 385 1010 l 564 1010 l 932 0 m 471 892 l 294 397 l 648 397 m 463 1136 l 361 1136 l 483 1390 l 648 1390 "},"Â":{"ha":949,"x_min":0,"x_max":0,"o":"m 789 0 l 690 281 l 253 281 l 154 0 l 18 0 l 385 1010 l 564 1010 l 932 0 m 471 892 l 294 397 l 648 397 m 593 1133 l 467 1306 l 342 1133 l 237 1133 l 392 1390 l 546 1390 l 701 1133 "},"Ã":{"ha":949,"x_min":0,"x_max":0,"o":"m 789 0 l 690 281 l 253 281 l 154 0 l 18 0 l 385 1010 l 564 1010 l 932 0 m 471 892 l 294 397 l 648 397 m 759 1351 b 707 1196 754 1282 736 1230 b 587 1143 677 1161 637 1143 b 519 1157 562 1143 540 1148 b 460 1195 498 1165 478 1178 b 406 1239 439 1214 421 1229 b 357 1253 391 1248 375 1253 b 304 1223 334 1253 316 1243 b 284 1141 293 1202 286 1175 l 195 1141 b 249 1295 199 1209 217 1260 b 367 1348 281 1330 320 1348 b 432 1334 389 1348 411 1343 b 492 1297 453 1325 473 1313 b 549 1255 514 1278 532 1264 b 596 1241 565 1246 581 1241 b 650 1272 619 1241 637 1251 b 671 1351 663 1293 670 1319 l 759 1351 "},"Ä":{"ha":949,"x_min":0,"x_max":0,"o":"m 789 0 l 690 281 l 253 281 l 154 0 l 18 0 l 385 1010 l 564 1010 l 932 0 m 471 892 l 294 397 l 648 397 m 547 1137 l 547 1270 l 682 1270 l 682 1137 m 267 1137 l 267 1270 l 401 1270 l 401 1137 "},"Å":{"ha":949,"x_min":0,"x_max":0,"o":"m 789 0 l 688 281 l 254 281 l 154 0 l 18 0 l 370 954 b 273 1038 329 974 297 1002 b 237 1161 249 1074 237 1115 b 306 1324 237 1226 260 1280 b 474 1390 352 1368 408 1390 b 643 1324 541 1390 597 1368 b 711 1161 688 1280 711 1226 b 676 1038 711 1116 700 1075 b 580 954 652 1001 620 973 l 932 0 m 610 1160 b 571 1257 610 1199 597 1231 b 474 1296 545 1283 513 1296 b 377 1257 435 1296 403 1283 b 338 1160 351 1230 338 1198 b 377 1062 338 1121 351 1088 b 474 1023 403 1036 436 1023 b 571 1062 513 1023 545 1036 b 610 1160 597 1088 610 1121 m 471 882 l 296 397 l 646 397 "},"Æ":{"ha":1367,"x_min":0,"x_max":0,"o":"m 649 0 l 649 377 l 294 377 l 150 0 l 9 0 l 412 1010 l 1289 1010 l 1289 890 l 781 890 l 781 614 l 1289 614 l 1289 494 l 781 494 l 781 119 l 1289 119 l 1289 0 m 649 898 l 500 898 l 338 490 l 649 490 "},"Ç":{"ha":970,"x_min":0,"x_max":0,"o":"m 848 43 b 769 13 828 33 802 23 b 753 8 764 12 759 10 b 732 3 747 6 740 4 b 734 -27 733 -6 733 -16 b 735 -60 735 -39 735 -50 b 672 -229 735 -134 714 -190 b 509 -287 629 -267 575 -287 b 443 -282 491 -287 469 -285 b 372 -269 416 -279 392 -275 l 372 -159 l 378 -159 b 426 -176 389 -164 406 -169 b 491 -185 447 -182 468 -185 b 596 -158 539 -185 574 -176 b 629 -73 618 -140 629 -111 b 629 -44 629 -64 629 -55 b 627 -16 628 -34 628 -25 b 599 -18 618 -17 609 -17 b 572 -18 589 -18 581 -18 b 373 13 499 -18 433 -8 b 216 109 313 33 261 65 b 115 273 173 152 139 207 b 78 504 90 339 78 416 b 113 727 78 587 90 661 b 215 893 137 793 171 848 b 371 994 258 937 310 970 b 573 1028 431 1017 499 1028 b 735 1008 627 1028 681 1022 b 916 939 790 995 850 972 l 916 780 l 905 780 b 740 882 850 826 795 860 b 564 913 685 903 627 913 b 426 889 513 913 467 905 b 317 812 385 872 349 847 b 244 683 286 778 261 735 b 218 504 226 631 218 572 b 247 321 218 433 227 372 b 321 196 266 270 290 228 b 432 122 352 163 389 138 b 566 98 474 106 519 98 b 747 131 630 98 691 109 b 906 231 804 153 857 186 l 916 231 l 916 73 "},"È":{"ha":878,"x_min":0,"x_max":0,"o":"m 136 0 l 136 1010 l 801 1010 l 801 890 l 270 890 l 270 614 l 801 614 l 801 494 l 270 494 l 270 119 l 801 119 l 801 0 m 456 1136 l 271 1390 l 436 1390 l 557 1136 "},"É":{"ha":878,"x_min":0,"x_max":0,"o":"m 136 0 l 136 1010 l 801 1010 l 801 890 l 270 890 l 270 614 l 801 614 l 801 494 l 270 494 l 270 119 l 801 119 l 801 0 m 488 1136 l 387 1136 l 509 1390 l 673 1390 "},"Ê":{"ha":878,"x_min":0,"x_max":0,"o":"m 136 0 l 136 1010 l 801 1010 l 801 890 l 270 890 l 270 614 l 801 614 l 801 494 l 270 494 l 270 119 l 801 119 l 801 0 m 591 1133 l 466 1306 l 341 1133 l 236 1133 l 391 1390 l 545 1390 l 699 1133 "},"Ë":{"ha":878,"x_min":0,"x_max":0,"o":"m 136 0 l 136 1010 l 801 1010 l 801 890 l 270 890 l 270 614 l 801 614 l 801 494 l 270 494 l 270 119 l 801 119 l 801 0 m 569 1137 l 569 1270 l 704 1270 l 704 1137 m 289 1137 l 289 1270 l 424 1270 l 424 1137 "},"Ì":{"ha":585,"x_min":0,"x_max":0,"o":"m 93 0 l 93 103 l 225 103 l 225 907 l 93 907 l 93 1010 l 492 1010 l 492 907 l 359 907 l 359 103 l 492 103 l 492 0 m 284 1136 l 99 1390 l 264 1390 l 385 1136 "},"Í":{"ha":585,"x_min":0,"x_max":0,"o":"m 93 0 l 93 103 l 225 103 l 225 907 l 93 907 l 93 1010 l 492 1010 l 492 907 l 359 907 l 359 103 l 492 103 l 492 0 m 307 1136 l 205 1136 l 327 1390 l 492 1390 "},"Î":{"ha":585,"x_min":0,"x_max":0,"o":"m 93 0 l 93 103 l 225 103 l 225 907 l 93 907 l 93 1010 l 492 1010 l 492 907 l 359 907 l 359 103 l 492 103 l 492 0 m 418 1133 l 293 1306 l 168 1133 l 63 1133 l 218 1390 l 372 1390 l 526 1133 "},"Ï":{"ha":585,"x_min":0,"x_max":0,"o":"m 93 0 l 93 103 l 225 103 l 225 907 l 93 907 l 93 1010 l 492 1010 l 492 907 l 359 907 l 359 103 l 492 103 l 492 0 m 366 1137 l 366 1270 l 500 1270 l 500 1137 m 85 1137 l 85 1270 l 220 1270 l 220 1137 "},"Ð":{"ha":1077,"x_min":0,"x_max":0,"o":"m 996 504 b 936 254 996 412 976 329 b 776 81 896 180 842 122 b 622 19 730 52 678 32 b 397 0 565 6 490 0 l 142 0 l 142 502 l 9 502 l 9 599 l 142 599 l 142 1010 l 395 1010 b 630 988 493 1010 572 1003 b 777 930 688 974 737 955 b 938 758 846 887 899 830 b 996 504 976 687 996 602 m 855 506 b 814 706 855 585 841 652 b 690 834 786 760 745 803 b 564 881 651 857 608 872 b 403 895 519 890 465 895 l 275 895 l 275 599 l 520 599 l 520 502 l 275 502 l 275 115 l 403 115 b 572 130 467 115 524 120 b 705 182 620 139 664 157 b 818 309 755 215 792 257 b 855 506 843 362 855 427 "},"Ñ":{"ha":1039,"x_min":0,"x_max":0,"o":"m 740 0 l 261 903 l 261 0 l 136 0 l 136 1010 l 344 1010 l 781 185 l 781 1010 l 906 1010 l 906 0 m 819 1351 b 767 1196 814 1282 797 1230 b 647 1143 737 1161 697 1143 b 579 1157 623 1143 600 1148 b 520 1195 558 1165 539 1178 b 466 1239 499 1214 481 1229 b 418 1253 452 1248 435 1253 b 365 1223 394 1253 377 1243 b 345 1141 353 1202 346 1175 l 256 1141 b 309 1295 259 1209 277 1260 b 427 1348 341 1330 381 1348 b 493 1334 450 1348 472 1343 b 553 1297 514 1325 534 1313 b 609 1255 574 1278 593 1264 b 656 1241 626 1246 642 1241 b 710 1272 680 1241 697 1251 b 732 1351 723 1293 730 1319 l 819 1351 "},"Ò":{"ha":1093,"x_min":0,"x_max":0,"o":"m 888 894 b 983 728 930 849 961 793 b 1016 505 1005 662 1016 588 b 982 281 1016 421 1005 347 b 888 117 960 215 929 160 b 741 14 847 71 798 37 b 547 -21 684 -9 619 -21 b 353 14 476 -21 411 -9 b 205 117 295 38 245 72 b 111 281 164 161 133 216 b 78 505 89 347 78 421 b 111 726 78 587 89 661 b 205 894 132 791 164 847 b 354 996 245 938 295 972 b 547 1031 413 1019 477 1031 b 742 995 619 1031 684 1019 b 888 894 799 971 848 938 m 876 505 b 788 808 876 636 847 737 b 547 915 729 879 649 915 b 306 808 445 915 364 879 b 218 505 247 737 218 636 b 307 200 218 372 248 271 b 547 95 367 130 447 95 b 787 200 648 95 728 130 b 876 505 846 271 876 372 m 531 1136 l 346 1390 l 511 1390 l 632 1136 "},"Ó":{"ha":1093,"x_min":0,"x_max":0,"o":"m 888 894 b 983 728 930 849 961 793 b 1016 505 1005 662 1016 588 b 982 281 1016 421 1005 347 b 888 117 960 215 929 160 b 741 14 847 71 798 37 b 547 -21 684 -9 619 -21 b 353 14 476 -21 411 -9 b 205 117 295 38 245 72 b 111 281 164 161 133 216 b 78 505 89 347 78 421 b 111 726 78 587 89 661 b 205 894 132 791 164 847 b 354 996 245 938 295 972 b 547 1031 413 1019 477 1031 b 742 995 619 1031 684 1019 b 888 894 799 971 848 938 m 876 505 b 788 808 876 636 847 737 b 547 915 729 879 649 915 b 306 808 445 915 364 879 b 218 505 247 737 218 636 b 307 200 218 372 248 271 b 547 95 367 130 447 95 b 787 200 648 95 728 130 b 876 505 846 271 876 372 m 549 1136 l 448 1136 l 570 1390 l 734 1390 "},"Ô":{"ha":1093,"x_min":0,"x_max":0,"o":"m 888 894 b 983 728 930 849 961 793 b 1016 505 1005 662 1016 588 b 982 281 1016 421 1005 347 b 888 117 960 215 929 160 b 741 14 847 71 798 37 b 547 -21 684 -9 619 -21 b 353 14 476 -21 411 -9 b 205 117 295 38 245 72 b 111 281 164 161 133 216 b 78 505 89 347 78 421 b 111 726 78 587 89 661 b 205 894 132 791 164 847 b 354 996 245 938 295 972 b 547 1031 413 1019 477 1031 b 742 995 619 1031 684 1019 b 888 894 799 971 848 938 m 876 505 b 788 808 876 636 847 737 b 547 915 729 879 649 915 b 306 808 445 915 364 879 b 218 505 247 737 218 636 b 307 200 218 372 248 271 b 547 95 367 130 447 95 b 787 200 648 95 728 130 b 876 505 846 271 876 372 m 663 1133 l 537 1306 l 412 1133 l 307 1133 l 462 1390 l 616 1390 l 770 1133 "},"Õ":{"ha":1093,"x_min":0,"x_max":0,"o":"m 888 894 b 983 728 930 849 961 793 b 1016 505 1005 662 1016 588 b 982 281 1016 421 1005 347 b 888 117 960 215 929 160 b 741 14 847 71 798 37 b 547 -21 684 -9 619 -21 b 353 14 476 -21 411 -9 b 205 117 295 38 245 72 b 111 281 164 161 133 216 b 78 505 89 347 78 421 b 111 726 78 587 89 661 b 205 894 132 791 164 847 b 354 996 245 938 295 972 b 547 1031 413 1019 477 1031 b 742 995 619 1031 684 1019 b 888 894 799 971 848 938 m 876 505 b 788 808 876 636 847 737 b 547 915 729 879 649 915 b 306 808 445 915 364 879 b 218 505 247 737 218 636 b 307 200 218 372 248 271 b 547 95 367 130 447 95 b 787 200 648 95 728 130 b 876 505 846 271 876 372 m 819 1351 b 766 1196 814 1282 796 1230 b 646 1143 736 1161 696 1143 b 578 1157 622 1143 599 1148 b 519 1195 558 1165 538 1178 b 466 1239 498 1214 480 1229 b 417 1253 451 1248 435 1253 b 364 1223 394 1253 376 1243 b 344 1141 352 1202 346 1175 l 255 1141 b 309 1295 259 1209 276 1260 b 427 1348 341 1330 380 1348 b 492 1334 449 1348 471 1343 b 552 1297 513 1325 533 1313 b 609 1255 573 1278 592 1264 b 656 1241 625 1246 641 1241 b 710 1272 679 1241 697 1251 b 731 1351 723 1293 730 1319 l 819 1351 "},"Ö":{"ha":1093,"x_min":0,"x_max":0,"o":"m 886 894 b 981 728 928 849 959 793 b 1014 505 1003 662 1014 588 b 980 281 1014 421 1003 347 b 886 117 958 215 927 160 b 739 14 845 71 796 37 b 545 -21 682 -9 617 -21 b 351 14 474 -21 409 -9 b 203 117 293 38 243 72 b 109 281 162 161 131 216 b 76 505 87 347 76 421 b 109 726 76 587 87 661 b 203 894 130 791 162 847 b 352 996 243 938 293 972 b 545 1031 411 1019 475 1031 b 740 995 617 1031 682 1019 b 886 894 797 971 846 938 m 874 505 b 786 808 874 636 845 737 b 545 915 727 879 647 915 b 303 808 443 915 362 879 b 216 505 245 737 216 636 b 305 200 216 372 245 271 b 545 95 365 130 445 95 b 785 200 646 95 726 130 b 874 505 844 271 874 372 m 616 1137 l 616 1270 l 751 1270 l 751 1137 m 336 1137 l 336 1270 l 471 1270 l 471 1137 "},"×":{"ha":1137,"x_min":0,"x_max":0,"o":"m 864 71 l 568 370 l 273 71 l 197 146 l 496 442 l 197 738 l 273 813 l 568 515 l 864 813 l 939 738 l 641 442 l 939 146 "},"Ø":{"ha":1093,"x_min":0,"x_max":0,"o":"m 1016 505 b 982 281 1016 421 1005 347 b 888 117 960 215 929 160 b 741 14 847 71 798 37 b 547 -21 684 -9 619 -21 b 400 -1 495 -21 446 -14 b 279 56 355 12 314 31 l 171 -99 l 81 -99 l 220 100 b 115 270 175 146 140 202 b 78 505 90 338 78 416 b 111 726 78 587 89 661 b 205 894 132 791 164 847 b 354 996 245 938 295 972 b 547 1031 413 1019 477 1031 b 692 1012 600 1031 649 1025 b 814 956 736 1000 777 981 l 910 1093 l 1000 1093 l 872 911 b 978 742 918 866 953 809 b 1016 505 1003 675 1016 596 m 744 854 b 656 901 718 875 689 891 b 547 916 624 911 588 916 b 412 890 498 916 452 908 b 306 811 371 873 336 846 b 239 682 277 777 255 734 b 216 505 223 630 216 571 b 236 334 216 441 222 384 b 295 206 249 283 269 241 l 744 854 m 878 505 b 858 676 878 567 871 625 b 798 804 844 728 824 770 l 348 155 b 438 109 375 135 405 120 b 547 94 471 99 507 94 b 684 121 597 94 643 103 b 788 199 725 139 760 165 b 856 331 818 236 841 280 b 878 505 871 382 878 440 "},"Ù":{"ha":1017,"x_min":0,"x_max":0,"o":"m 896 406 b 872 214 896 332 888 268 b 793 78 856 159 829 114 b 671 3 758 44 717 19 b 508 -21 624 -13 570 -21 b 342 4 445 -21 389 -13 b 224 78 295 21 256 45 b 145 212 187 115 161 160 b 121 406 129 265 121 329 l 121 1010 l 255 1010 l 255 399 b 266 269 255 344 259 301 b 304 183 274 238 286 209 b 385 117 324 154 351 132 b 508 94 419 102 460 94 b 631 116 556 94 597 102 b 713 183 665 131 692 153 b 750 272 730 209 743 238 b 762 395 758 305 762 346 l 762 1010 l 896 1010 l 896 406 m 531 1136 l 346 1390 l 511 1390 l 632 1136 "},"Ú":{"ha":1017,"x_min":0,"x_max":0,"o":"m 896 406 b 872 214 896 332 888 268 b 793 78 856 159 829 114 b 671 3 758 44 717 19 b 508 -21 624 -13 570 -21 b 342 4 445 -21 389 -13 b 224 78 295 21 256 45 b 145 212 187 115 161 160 b 121 406 129 265 121 329 l 121 1010 l 255 1010 l 255 399 b 266 269 255 344 259 301 b 304 183 274 238 286 209 b 385 117 324 154 351 132 b 508 94 419 102 460 94 b 631 116 556 94 597 102 b 713 183 665 131 692 153 b 750 272 730 209 743 238 b 762 395 758 305 762 346 l 762 1010 l 896 1010 l 896 406 m 543 1136 l 441 1136 l 563 1390 l 728 1390 "},"Û":{"ha":1017,"x_min":0,"x_max":0,"o":"m 896 406 b 872 214 896 332 888 268 b 793 78 856 159 829 114 b 671 3 758 44 717 19 b 508 -21 624 -13 570 -21 b 342 4 445 -21 389 -13 b 224 78 295 21 256 45 b 145 212 187 115 161 160 b 121 406 129 265 121 329 l 121 1010 l 255 1010 l 255 399 b 266 269 255 344 259 301 b 304 183 274 238 286 209 b 385 117 324 154 351 132 b 508 94 419 102 460 94 b 631 116 556 94 597 102 b 713 183 665 131 692 153 b 750 272 730 209 743 238 b 762 395 758 305 762 346 l 762 1010 l 896 1010 l 896 406 m 627 1133 l 502 1306 l 377 1133 l 272 1133 l 427 1390 l 581 1390 l 735 1133 "},"Ü":{"ha":1017,"x_min":0,"x_max":0,"o":"m 896 406 b 872 214 896 332 888 268 b 793 78 856 159 829 114 b 671 3 758 44 717 19 b 508 -21 624 -13 570 -21 b 342 4 445 -21 389 -13 b 224 78 295 21 256 45 b 145 212 187 115 161 160 b 121 406 129 265 121 329 l 121 1010 l 255 1010 l 255 399 b 266 269 255 344 259 301 b 304 183 274 238 286 209 b 385 117 324 154 351 132 b 508 94 419 102 460 94 b 631 116 556 94 597 102 b 713 183 665 131 692 153 b 750 272 730 209 743 238 b 762 395 758 305 762 346 l 762 1010 l 896 1010 l 896 406 m 581 1137 l 581 1270 l 716 1270 l 716 1137 m 301 1137 l 301 1270 l 436 1270 l 436 1137 "},"Ý":{"ha":854,"x_min":0,"x_max":0,"o":"m 495 443 l 495 0 l 361 0 l 361 429 l 4 1010 l 153 1010 l 429 558 l 707 1010 l 850 1010 m 449 1136 l 348 1136 l 469 1390 l 634 1390 "},"Þ":{"ha":841,"x_min":0,"x_max":0,"o":"m 796 534 b 772 414 796 492 788 452 b 708 318 757 376 735 344 b 581 243 673 284 630 259 b 404 218 531 227 472 218 l 270 218 l 270 0 l 136 0 l 136 1010 l 270 1010 l 270 827 l 409 827 b 565 811 469 827 521 822 b 676 766 609 801 646 786 b 764 673 714 742 743 711 b 796 534 786 634 796 588 m 656 530 b 639 615 656 563 651 591 b 583 675 627 640 609 660 b 507 704 562 689 536 699 b 403 713 478 710 444 713 l 270 713 l 270 331 l 383 331 b 515 345 437 331 481 336 b 599 389 550 354 578 369 b 643 452 619 408 633 429 b 656 530 652 475 656 501 "},"ß":{"ha":861,"x_min":0,"x_max":0,"o":"m 790 326 b 698 82 790 229 759 148 b 458 -16 637 17 557 -16 b 389 -11 438 -16 415 -15 b 326 3 363 -8 342 -3 l 326 115 l 332 115 b 394 92 351 104 372 96 b 466 86 417 88 441 86 b 553 106 499 86 529 93 b 613 159 578 119 598 137 b 647 237 629 182 640 208 b 658 332 654 266 658 297 b 586 502 658 407 634 463 b 380 559 539 540 470 559 l 380 661 b 539 701 451 661 504 674 b 591 829 574 728 591 770 b 584 875 591 845 589 860 b 556 918 579 890 570 904 b 508 950 544 931 528 942 b 437 962 488 958 464 962 b 367 952 411 962 388 958 b 309 916 346 945 327 933 b 268 846 292 899 278 876 b 253 737 258 817 253 780 l 253 0 l 125 0 l 125 732 b 150 879 125 788 134 837 b 218 983 166 920 189 955 b 319 1042 245 1009 279 1029 b 444 1062 360 1055 401 1062 b 645 1003 526 1062 594 1042 b 723 842 697 964 723 910 b 675 705 723 791 707 746 b 550 623 643 665 601 638 l 550 617 b 726 516 624 600 683 567 b 790 326 769 466 790 403 "},"à":{"ha":834,"x_min":0,"x_max":0,"o":"m 587 0 l 587 81 l 542 48 b 486 16 522 35 504 24 b 412 -11 464 5 440 -4 b 315 -21 385 -18 352 -21 b 142 47 247 -21 189 2 b 71 220 94 92 71 150 b 107 359 71 277 83 324 b 213 443 132 395 167 422 b 379 484 259 463 314 477 b 587 500 444 491 513 497 l 587 520 b 572 592 587 549 582 573 b 528 637 562 611 547 626 b 463 658 510 647 489 654 b 384 663 438 661 411 663 b 272 650 350 663 313 659 b 144 612 231 641 188 628 l 138 612 l 138 741 b 245 764 163 748 198 755 b 385 776 293 772 339 776 b 524 763 438 776 484 771 b 627 718 563 754 598 739 b 692 637 655 697 677 670 b 714 514 707 604 714 563 l 714 0 m 587 397 b 450 387 548 395 503 392 b 325 368 397 383 356 376 b 236 319 288 357 259 341 b 202 229 213 297 202 267 b 241 131 202 185 215 152 b 361 98 268 109 308 98 b 484 124 406 98 447 106 b 587 186 521 141 556 162 m 399 883 l 214 1137 l 379 1137 l 500 883 "},"á":{"ha":834,"x_min":0,"x_max":0,"o":"m 587 0 l 587 81 l 542 48 b 486 16 522 35 504 24 b 412 -11 464 5 440 -4 b 315 -21 385 -18 352 -21 b 142 47 247 -21 189 2 b 71 220 94 92 71 150 b 107 359 71 277 83 324 b 213 443 132 395 167 422 b 379 484 259 463 314 477 b 587 500 444 491 513 497 l 587 520 b 572 592 587 549 582 573 b 528 637 562 611 547 626 b 463 658 510 647 489 654 b 384 663 438 661 411 663 b 272 650 350 663 313 659 b 144 612 231 641 188 628 l 138 612 l 138 741 b 245 764 163 748 198 755 b 385 776 293 772 339 776 b 524 763 438 776 484 771 b 627 718 563 754 598 739 b 692 637 655 697 677 670 b 714 514 707 604 714 563 l 714 0 m 587 397 b 450 387 548 395 503 392 b 325 368 397 383 356 376 b 236 319 288 357 259 341 b 202 229 213 297 202 267 b 241 131 202 185 215 152 b 361 98 268 109 308 98 b 484 124 406 98 447 106 b 587 186 521 141 556 162 m 448 883 l 347 883 l 469 1137 l 633 1137 "},"â":{"ha":834,"x_min":0,"x_max":0,"o":"m 587 0 l 587 81 l 542 48 b 486 16 522 35 504 24 b 412 -11 464 5 440 -4 b 315 -21 385 -18 352 -21 b 142 47 247 -21 189 2 b 71 220 94 92 71 150 b 107 359 71 277 83 324 b 213 443 132 395 167 422 b 379 484 259 463 314 477 b 587 500 444 491 513 497 l 587 520 b 572 592 587 549 582 573 b 528 637 562 611 547 626 b 463 658 510 647 489 654 b 384 663 438 661 411 663 b 272 650 350 663 313 659 b 144 612 231 641 188 628 l 138 612 l 138 741 b 245 764 163 748 198 755 b 385 776 293 772 339 776 b 524 763 438 776 484 771 b 627 718 563 754 598 739 b 692 637 655 697 677 670 b 714 514 707 604 714 563 l 714 0 m 587 397 b 450 387 548 395 503 392 b 325 368 397 383 356 376 b 236 319 288 357 259 341 b 202 229 213 297 202 267 b 241 131 202 185 215 152 b 361 98 268 109 308 98 b 484 124 406 98 447 106 b 587 186 521 141 556 162 m 544 880 l 418 1053 l 294 880 l 189 880 l 343 1137 l 497 1137 l 652 880 "},"ã":{"ha":834,"x_min":0,"x_max":0,"o":"m 587 0 l 587 81 l 542 48 b 486 16 522 35 504 24 b 412 -11 464 5 440 -4 b 315 -21 385 -18 352 -21 b 142 47 247 -21 189 2 b 71 220 94 92 71 150 b 107 359 71 277 83 324 b 213 443 132 395 167 422 b 379 484 259 463 314 477 b 587 500 444 491 513 497 l 587 520 b 572 592 587 549 582 573 b 528 637 562 611 547 626 b 463 658 510 647 489 654 b 384 663 438 661 411 663 b 272 650 350 663 313 659 b 144 612 231 641 188 628 l 138 612 l 138 741 b 245 764 163 748 198 755 b 385 776 293 772 339 776 b 524 763 438 776 484 771 b 627 718 563 754 598 739 b 692 637 655 697 677 670 b 714 514 707 604 714 563 l 714 0 m 587 397 b 450 387 548 395 503 392 b 325 368 397 383 356 376 b 236 319 288 357 259 341 b 202 229 213 297 202 267 b 241 131 202 185 215 152 b 361 98 268 109 308 98 b 484 124 406 98 447 106 b 587 186 521 141 556 162 m 704 1098 b 652 943 699 1029 682 977 b 532 890 622 908 582 890 b 464 904 507 890 485 895 b 405 942 443 912 423 925 b 351 986 384 961 366 976 b 302 1000 336 995 320 1000 b 250 970 279 1000 261 990 b 229 888 238 949 231 922 l 140 888 b 194 1042 144 956 162 1008 b 312 1095 226 1077 265 1095 b 377 1081 335 1095 356 1090 b 437 1044 398 1073 418 1060 b 494 1002 459 1025 478 1011 b 541 988 511 993 526 988 b 595 1019 564 988 582 998 b 616 1098 608 1040 615 1066 l 704 1098 "},"ä":{"ha":834,"x_min":0,"x_max":0,"o":"m 587 0 l 587 81 l 542 48 b 486 16 522 35 504 24 b 412 -11 464 5 440 -4 b 315 -21 385 -18 352 -21 b 142 47 247 -21 189 2 b 71 220 94 92 71 150 b 107 359 71 277 83 324 b 213 443 132 395 167 422 b 379 484 259 463 314 477 b 587 500 444 491 513 497 l 587 520 b 572 592 587 549 582 573 b 528 637 562 611 547 626 b 463 658 510 647 489 654 b 384 663 438 661 411 663 b 272 650 350 663 313 659 b 144 612 231 641 188 628 l 138 612 l 138 741 b 245 764 163 748 198 755 b 385 776 293 772 339 776 b 524 763 438 776 484 771 b 627 718 563 754 598 739 b 692 637 655 697 677 670 b 714 514 707 604 714 563 l 714 0 m 587 397 b 450 387 548 395 503 392 b 325 368 397 383 356 376 b 236 319 288 357 259 341 b 202 229 213 297 202 267 b 241 131 202 185 215 152 b 361 98 268 109 308 98 b 484 124 406 98 447 106 b 587 186 521 141 556 162 m 493 884 l 493 1017 l 628 1017 l 628 884 m 213 884 l 213 1017 l 348 1017 l 348 884 "},"å":{"ha":834,"x_min":0,"x_max":0,"o":"m 587 0 l 587 81 l 542 48 b 486 16 522 35 504 24 b 412 -11 464 5 440 -4 b 315 -21 385 -18 352 -21 b 142 47 247 -21 189 2 b 71 220 94 92 71 150 b 107 359 71 277 83 324 b 213 443 132 395 167 422 b 379 484 259 463 314 477 b 587 500 444 491 513 497 l 587 520 b 572 592 587 549 582 573 b 528 637 562 611 547 626 b 463 658 510 647 489 654 b 384 663 438 661 411 663 b 272 650 350 663 313 659 b 144 612 231 641 188 628 l 138 612 l 138 741 b 245 764 163 748 198 755 b 385 776 293 772 339 776 b 524 763 438 776 484 771 b 627 718 563 754 598 739 b 692 637 655 697 677 670 b 714 514 707 604 714 563 l 714 0 m 587 397 b 450 387 548 395 503 392 b 325 368 397 383 356 376 b 236 319 288 357 259 341 b 202 229 213 297 202 267 b 241 131 202 185 215 152 b 361 98 268 109 308 98 b 484 124 406 98 447 106 b 587 186 521 141 556 162 m 648 1105 b 579 941 648 1041 625 986 b 411 874 533 897 477 874 b 243 941 346 874 290 896 b 174 1105 197 985 174 1040 b 243 1269 174 1170 197 1225 b 411 1335 289 1313 345 1335 b 579 1269 477 1335 534 1313 b 648 1105 625 1225 648 1170 m 550 1105 b 510 1204 550 1144 537 1177 b 411 1244 484 1231 451 1244 b 312 1204 371 1244 338 1231 b 272 1105 285 1178 272 1145 b 312 1006 272 1066 285 1033 b 411 966 339 980 372 966 b 510 1006 451 966 484 980 b 550 1105 537 1033 550 1066 "},"æ":{"ha":1326,"x_min":0,"x_max":0,"o":"m 703 379 b 723 247 703 328 709 283 b 781 157 736 210 756 180 b 864 109 804 135 832 119 b 970 94 896 99 932 94 b 1118 122 1021 94 1070 103 b 1235 185 1166 140 1205 162 l 1243 185 l 1243 46 b 1118 2 1208 30 1166 16 b 972 -18 1070 -11 1021 -18 b 779 18 897 -18 832 -6 b 647 123 725 41 681 76 l 602 83 b 536 37 581 65 559 49 b 444 -4 508 20 477 7 b 315 -20 410 -14 367 -20 b 142 46 248 -20 190 2 b 71 215 94 90 71 146 b 107 351 71 271 83 316 b 212 431 132 386 167 412 b 376 467 255 449 310 461 b 585 479 442 474 511 477 l 585 520 b 569 593 585 550 579 574 b 526 637 559 612 544 627 b 460 659 507 648 486 655 b 382 665 435 663 409 665 b 268 650 346 665 308 660 b 146 612 227 641 186 628 l 137 612 l 137 741 b 244 764 162 748 198 756 b 382 777 291 773 337 777 b 562 746 454 777 514 767 b 672 652 610 725 646 694 b 787 743 703 689 742 720 b 941 779 833 767 884 779 b 1173 692 1039 779 1116 750 b 1258 435 1230 634 1258 548 l 1258 379 m 1135 477 b 1119 557 1132 507 1127 534 b 1084 617 1110 581 1099 600 b 1024 659 1069 635 1049 649 b 934 673 1000 668 970 673 b 783 623 874 673 823 656 b 705 477 742 589 716 540 l 1135 477 m 606 202 b 586 283 597 226 590 253 b 578 378 581 313 578 345 b 442 373 531 377 486 375 b 321 356 399 371 359 366 b 235 312 286 347 257 332 b 202 224 213 291 202 262 b 241 129 202 182 215 150 b 361 98 268 108 307 98 b 493 127 406 98 450 107 b 606 202 537 146 575 171 "},"ç":{"ha":724,"x_min":0,"x_max":0,"o":"m 686 47 b 637 27 671 41 655 34 b 591 10 620 20 604 14 b 595 -22 593 2 594 -9 b 597 -60 596 -35 597 -48 b 535 -229 597 -134 576 -190 b 374 -287 493 -267 440 -287 b 309 -282 357 -287 335 -285 b 239 -269 283 -279 260 -275 l 239 -161 l 245 -161 b 293 -176 257 -165 273 -170 b 357 -185 313 -182 334 -185 b 460 -159 404 -185 438 -176 b 494 -73 483 -141 494 -112 b 493 -42 494 -63 493 -52 b 490 -13 492 -32 491 -22 b 470 -16 483 -14 476 -15 b 443 -17 463 -17 454 -17 b 292 7 388 -17 338 -9 b 175 80 247 23 208 47 b 98 203 142 113 116 154 b 71 378 80 253 71 311 b 173 669 71 502 105 599 b 443 775 241 740 331 775 b 571 757 486 775 529 769 b 686 712 612 745 651 730 l 686 570 l 679 570 b 558 640 640 601 600 624 b 437 665 517 656 477 665 b 266 592 365 665 308 640 b 203 378 224 543 203 472 b 265 167 203 286 224 216 b 437 94 306 118 363 94 b 516 104 463 94 489 97 b 588 130 543 111 567 119 b 640 160 607 140 624 150 b 679 188 656 171 669 180 l 686 188 l 686 47 "},"è":{"ha":827,"x_min":0,"x_max":0,"o":"m 201 366 b 222 244 201 319 208 278 b 280 159 236 209 256 181 b 364 110 304 137 332 121 b 471 94 396 99 432 94 b 626 124 522 94 574 104 b 738 185 679 145 716 165 l 745 185 l 745 46 b 613 1 702 28 658 13 b 472 -18 568 -12 521 -18 b 178 84 346 -18 248 16 b 72 374 107 152 72 249 b 173 669 72 498 106 597 b 440 779 241 742 330 779 b 676 689 542 779 621 749 b 760 435 732 629 760 545 l 760 366 m 635 463 b 585 618 635 530 618 582 b 433 673 552 655 501 673 b 270 613 365 673 311 653 b 201 463 230 573 207 523 l 635 463 m 414 883 l 229 1137 l 393 1137 l 515 883 "},"é":{"ha":827,"x_min":0,"x_max":0,"o":"m 201 366 b 222 244 201 319 208 278 b 280 159 236 209 256 181 b 364 110 304 137 332 121 b 471 94 396 99 432 94 b 626 124 522 94 574 104 b 738 185 679 145 716 165 l 745 185 l 745 46 b 613 1 702 28 658 13 b 472 -18 568 -12 521 -18 b 178 84 346 -18 248 16 b 72 374 107 152 72 249 b 173 669 72 498 106 597 b 440 779 241 742 330 779 b 676 689 542 779 621 749 b 760 435 732 629 760 545 l 760 366 m 635 463 b 585 618 635 530 618 582 b 433 673 552 655 501 673 b 270 613 365 673 311 653 b 201 463 230 573 207 523 l 635 463 m 466 883 l 365 883 l 486 1137 l 651 1137 "},"ê":{"ha":827,"x_min":0,"x_max":0,"o":"m 201 366 b 222 244 201 319 208 278 b 280 159 236 209 256 181 b 364 110 304 137 332 121 b 471 94 396 99 432 94 b 626 124 522 94 574 104 b 738 185 679 145 716 165 l 745 185 l 745 46 b 613 1 702 28 658 13 b 472 -18 568 -12 521 -18 b 178 84 346 -18 248 16 b 72 374 107 152 72 249 b 173 669 72 498 106 597 b 440 779 241 742 330 779 b 676 689 542 779 621 749 b 760 435 732 629 760 545 l 760 366 m 635 463 b 585 618 635 530 618 582 b 433 673 552 655 501 673 b 270 613 365 673 311 653 b 201 463 230 573 207 523 l 635 463 m 561 880 l 435 1053 l 311 880 l 205 880 l 360 1137 l 514 1137 l 669 880 "},"ë":{"ha":827,"x_min":0,"x_max":0,"o":"m 201 366 b 222 244 201 319 208 278 b 280 159 236 209 256 181 b 364 110 304 137 332 121 b 471 94 396 99 432 94 b 626 124 522 94 574 104 b 738 185 679 145 716 165 l 745 185 l 745 46 b 613 1 702 28 658 13 b 472 -18 568 -12 521 -18 b 178 84 346 -18 248 16 b 72 374 107 152 72 249 b 173 669 72 498 106 597 b 440 779 241 742 330 779 b 676 689 542 779 621 749 b 760 435 732 629 760 545 l 760 366 m 635 463 b 585 618 635 530 618 582 b 433 673 552 655 501 673 b 270 613 365 673 311 653 b 201 463 230 573 207 523 l 635 463 m 510 884 l 510 1017 l 645 1017 l 645 884 m 230 884 l 230 1017 l 365 1017 l 365 884 "},"ì":{"ha":381,"x_min":0,"x_max":0,"o":"m 127 0 l 127 758 l 254 758 l 254 0 m 171 883 l -14 1137 l 151 1137 l 272 883 "},"í":{"ha":381,"x_min":0,"x_max":0,"o":"m 127 0 l 127 758 l 254 758 l 254 0 m 210 883 l 109 883 l 230 1137 l 395 1137 "},"î":{"ha":381,"x_min":0,"x_max":0,"o":"m 286 880 l 189 1061 l 92 880 l -7 880 l 113 1137 l 267 1137 l 388 880 m 127 0 l 127 758 l 254 758 l 254 0 "},"ï":{"ha":381,"x_min":0,"x_max":0,"o":"m 250 884 l 250 1017 l 378 1017 l 378 884 m 3 884 l 3 1017 l 132 1017 l 132 884 m 127 0 l 127 758 l 254 758 l 254 0 "},"ð":{"ha":850,"x_min":0,"x_max":0,"o":"m 771 432 b 675 96 771 286 739 173 b 415 -21 611 18 524 -21 b 166 71 312 -21 228 9 b 72 328 103 132 72 217 b 165 571 72 430 103 511 b 395 661 227 631 303 661 b 520 643 444 661 485 655 b 631 589 556 631 592 613 b 564 737 617 639 594 689 b 459 860 533 786 498 826 l 280 750 l 235 816 l 396 912 b 290 985 358 942 323 967 b 178 1044 258 1003 220 1023 l 178 1055 l 378 1055 l 435 1016 l 494 975 l 636 1062 l 681 996 l 555 922 b 715 702 624 856 677 782 b 771 432 752 621 771 531 m 574 153 b 625 251 597 180 614 212 b 643 410 637 289 643 342 b 642 450 643 424 643 438 b 640 489 641 462 640 475 b 533 534 606 509 570 524 b 418 549 495 544 457 549 b 261 489 352 549 300 529 b 204 327 223 450 204 396 b 261 146 204 245 223 185 b 416 87 300 106 351 87 b 502 102 446 87 474 92 b 574 153 530 112 554 129 "},"ñ":{"ha":879,"x_min":0,"x_max":0,"o":"m 631 0 l 631 431 b 625 529 631 466 629 499 b 603 601 621 560 614 584 b 554 643 592 620 575 634 b 471 657 533 653 505 657 b 362 631 437 657 400 649 b 253 566 324 614 288 592 l 253 0 l 125 0 l 125 758 l 253 758 l 253 673 b 376 751 293 706 334 732 b 507 779 419 769 463 779 b 694 705 589 779 651 754 b 759 492 737 655 759 584 l 759 0 m 729 1098 b 677 943 724 1029 707 977 b 557 890 647 908 607 890 b 489 904 532 890 510 895 b 430 942 468 912 448 925 b 376 986 409 961 391 976 b 328 1000 361 995 345 1000 b 275 970 304 1000 286 990 b 254 888 263 949 256 922 l 165 888 b 219 1042 169 956 187 1008 b 337 1095 251 1077 290 1095 b 402 1081 360 1095 381 1090 b 463 1044 424 1073 444 1060 b 519 1002 484 1025 503 1011 b 566 988 536 993 551 988 b 620 1019 589 988 607 998 b 642 1098 633 1040 640 1066 l 729 1098 "},"ò":{"ha":843,"x_min":0,"x_max":0,"o":"m 771 378 b 676 86 771 255 739 158 b 422 -21 613 15 528 -21 b 166 86 315 -21 230 15 b 72 378 103 158 72 255 b 166 671 72 502 103 599 b 422 779 230 743 315 779 b 676 671 528 779 613 743 b 771 378 739 599 771 502 m 640 378 b 582 597 640 477 620 549 b 422 669 543 645 490 669 b 261 597 353 669 299 645 b 203 378 223 549 203 477 b 261 162 203 283 223 211 b 422 89 300 113 353 89 b 582 162 490 89 543 113 b 640 378 620 210 640 283 m 395 883 l 210 1137 l 375 1137 l 496 883 "},"ó":{"ha":843,"x_min":0,"x_max":0,"o":"m 771 378 b 676 86 771 255 739 158 b 422 -21 613 15 528 -21 b 166 86 315 -21 230 15 b 72 378 103 158 72 255 b 166 671 72 502 103 599 b 422 779 230 743 315 779 b 676 671 528 779 613 743 b 771 378 739 599 771 502 m 640 378 b 582 597 640 477 620 549 b 422 669 543 645 490 669 b 261 597 353 669 299 645 b 203 378 223 549 203 477 b 261 162 203 283 223 211 b 422 89 300 113 353 89 b 582 162 490 89 543 113 b 640 378 620 210 640 283 m 448 883 l 347 883 l 468 1137 l 633 1137 "},"ô":{"ha":843,"x_min":0,"x_max":0,"o":"m 771 378 b 676 86 771 255 739 158 b 422 -21 613 15 528 -21 b 166 86 315 -21 230 15 b 72 378 103 158 72 255 b 166 671 72 502 103 599 b 422 779 230 743 315 779 b 676 671 528 779 613 743 b 771 378 739 599 771 502 m 640 378 b 582 597 640 477 620 549 b 422 669 543 645 490 669 b 261 597 353 669 299 645 b 203 378 223 549 203 477 b 261 162 203 283 223 211 b 422 89 300 113 353 89 b 582 162 490 89 543 113 b 640 378 620 210 640 283 m 545 880 l 420 1053 l 295 880 l 190 880 l 345 1137 l 498 1137 l 653 880 "},"õ":{"ha":843,"x_min":0,"x_max":0,"o":"m 771 378 b 676 86 771 255 739 158 b 422 -21 613 15 528 -21 b 166 86 315 -21 230 15 b 72 378 103 158 72 255 b 166 671 72 502 103 599 b 422 779 230 743 315 779 b 676 671 528 779 613 743 b 771 378 739 599 771 502 m 640 378 b 582 597 640 477 620 549 b 422 669 543 645 490 669 b 261 597 353 669 299 645 b 203 378 223 549 203 477 b 261 162 203 283 223 211 b 422 89 300 113 353 89 b 582 162 490 89 543 113 b 640 378 620 210 640 283 m 704 1098 b 652 943 699 1029 682 977 b 532 890 622 908 582 890 b 464 904 507 890 485 895 b 405 942 443 912 423 925 b 351 986 384 961 366 976 b 302 1000 336 995 320 1000 b 250 970 279 1000 261 990 b 229 888 238 949 231 922 l 140 888 b 194 1042 144 956 162 1008 b 312 1095 226 1077 265 1095 b 377 1081 335 1095 356 1090 b 437 1044 398 1073 418 1060 b 494 1002 459 1025 478 1011 b 541 988 511 993 526 988 b 595 1019 564 988 582 998 b 616 1098 608 1040 615 1066 l 704 1098 "},"ö":{"ha":843,"x_min":0,"x_max":0,"o":"m 771 378 b 676 86 771 255 739 158 b 422 -21 613 15 528 -21 b 166 86 315 -21 230 15 b 72 378 103 158 72 255 b 166 671 72 502 103 599 b 422 779 230 743 315 779 b 676 671 528 779 613 743 b 771 378 739 599 771 502 m 640 378 b 582 597 640 477 620 549 b 422 669 543 645 490 669 b 261 597 353 669 299 645 b 203 378 223 549 203 477 b 261 162 203 283 223 211 b 422 89 300 113 353 89 b 582 162 490 89 543 113 b 640 378 620 210 640 283 m 494 884 l 494 1017 l 629 1017 l 629 884 m 214 884 l 214 1017 l 349 1017 l 349 884 "},"÷":{"ha":1137,"x_min":0,"x_max":0,"o":"m 488 693 l 488 880 l 649 880 l 649 693 m 142 388 l 142 496 l 994 496 l 994 388 m 488 5 l 488 191 l 649 191 l 649 5 "},"ø":{"ha":843,"x_min":0,"x_max":0,"o":"m 771 378 b 676 86 771 255 739 158 b 422 -21 613 15 528 -21 b 316 -7 384 -21 349 -16 b 228 34 284 3 255 16 l 138 -100 l 63 -100 l 179 73 b 100 202 145 108 119 151 b 72 378 81 253 72 312 b 166 671 72 502 103 599 b 422 779 230 743 315 779 b 529 764 461 779 497 774 b 614 725 561 754 589 741 l 692 842 l 768 842 l 663 685 b 743 557 697 651 724 608 b 771 378 762 507 771 447 m 551 631 b 493 660 535 644 515 654 b 422 670 470 667 447 670 b 259 595 352 670 297 645 b 201 378 221 546 201 473 b 213 262 201 335 205 296 b 248 176 221 229 232 200 l 551 631 m 642 378 b 630 496 642 422 638 461 b 595 584 622 530 610 559 l 291 129 b 350 98 309 115 328 104 b 422 87 371 91 395 87 b 583 161 490 87 543 112 b 642 378 622 210 642 283 "},"ù":{"ha":879,"x_min":0,"x_max":0,"o":"m 626 0 l 626 84 b 503 6 583 50 542 24 b 372 -21 463 -12 420 -21 b 186 52 293 -21 231 3 b 120 266 142 100 120 172 l 120 758 l 248 758 l 248 326 b 253 228 248 288 249 255 b 276 157 257 200 264 177 b 323 114 288 137 304 123 b 408 100 343 105 371 100 b 516 126 441 100 477 109 b 626 192 556 143 592 165 l 626 758 l 753 758 l 753 0 m 417 883 l 232 1137 l 397 1137 l 518 883 "},"ú":{"ha":879,"x_min":0,"x_max":0,"o":"m 626 0 l 626 84 b 503 6 583 50 542 24 b 372 -21 463 -12 420 -21 b 186 52 293 -21 231 3 b 120 266 142 100 120 172 l 120 758 l 248 758 l 248 326 b 253 228 248 288 249 255 b 276 157 257 200 264 177 b 323 114 288 137 304 123 b 408 100 343 105 371 100 b 516 126 441 100 477 109 b 626 192 556 143 592 165 l 626 758 l 753 758 l 753 0 m 456 883 l 355 883 l 476 1137 l 641 1137 "},"û":{"ha":879,"x_min":0,"x_max":0,"o":"m 626 0 l 626 84 b 503 6 583 50 542 24 b 372 -21 463 -12 420 -21 b 186 52 293 -21 231 3 b 120 266 142 100 120 172 l 120 758 l 248 758 l 248 326 b 253 228 248 288 249 255 b 276 157 257 200 264 177 b 323 114 288 137 304 123 b 408 100 343 105 371 100 b 516 126 441 100 477 109 b 626 192 556 143 592 165 l 626 758 l 753 758 l 753 0 m 560 880 l 435 1053 l 310 880 l 205 880 l 359 1137 l 513 1137 l 668 880 "},"ü":{"ha":879,"x_min":0,"x_max":0,"o":"m 626 0 l 626 84 b 503 6 583 50 542 24 b 372 -21 463 -12 420 -21 b 186 52 293 -21 231 3 b 120 266 142 100 120 172 l 120 758 l 248 758 l 248 326 b 253 228 248 288 249 255 b 276 157 257 200 264 177 b 323 114 288 137 304 123 b 408 100 343 105 371 100 b 516 126 441 100 477 109 b 626 192 556 143 592 165 l 626 758 l 753 758 l 753 0 m 513 884 l 513 1017 l 648 1017 l 648 884 m 233 884 l 233 1017 l 368 1017 l 368 884 "},"ý":{"ha":822,"x_min":0,"x_max":0,"o":"m 338 -279 l 202 -279 l 343 37 l 41 758 l 180 758 l 412 196 l 647 758 l 781 758 m 444 883 l 343 883 l 465 1137 l 629 1137 "},"þ":{"ha":865,"x_min":0,"x_max":0,"o":"m 792 388 b 766 219 792 326 783 270 b 691 90 748 169 723 125 b 586 13 661 57 626 31 b 457 -15 545 -6 502 -15 b 350 -2 418 -15 382 -11 b 253 38 318 7 286 20 l 253 -279 l 125 -279 l 125 1055 l 253 1055 l 253 678 b 367 750 287 707 325 731 b 503 779 410 769 455 779 b 716 675 594 779 665 744 b 792 388 767 606 792 510 m 661 385 b 614 589 661 476 645 544 b 470 657 583 635 535 657 b 359 633 433 657 397 649 b 253 571 322 618 287 597 l 253 142 b 346 109 289 125 320 114 b 435 100 372 103 402 100 b 601 172 506 100 561 124 b 661 385 641 220 661 290 "},"ÿ":{"ha":822,"x_min":0,"x_max":0,"o":"m 338 -279 l 202 -279 l 343 37 l 41 758 l 180 758 l 412 196 l 647 758 l 781 758 m 491 884 l 491 1017 l 626 1017 l 626 884 m 211 884 l 211 1017 l 346 1017 l 346 884 "},"Ā":{"ha":949,"x_min":0,"x_max":0,"o":"m 789 0 l 690 281 l 253 281 l 154 0 l 18 0 l 385 1010 l 564 1010 l 932 0 m 471 892 l 294 397 l 648 397 m 223 1152 l 223 1256 l 726 1256 l 726 1152 "},"ā":{"ha":834,"x_min":0,"x_max":0,"o":"m 587 0 l 587 81 l 542 48 b 486 16 522 35 504 24 b 412 -11 464 5 440 -4 b 315 -21 385 -18 352 -21 b 142 47 247 -21 189 2 b 71 220 94 92 71 150 b 107 359 71 277 83 324 b 213 443 132 395 167 422 b 379 484 259 463 314 477 b 587 500 444 491 513 497 l 587 520 b 572 592 587 549 582 573 b 528 637 562 611 547 626 b 463 658 510 647 489 654 b 384 663 438 661 411 663 b 272 650 350 663 313 659 b 144 612 231 641 188 628 l 138 612 l 138 741 b 245 764 163 748 198 755 b 385 776 293 772 339 776 b 524 763 438 776 484 771 b 627 718 563 754 598 739 b 692 637 655 697 677 670 b 714 514 707 604 714 563 l 714 0 m 587 397 b 450 387 548 395 503 392 b 325 368 397 383 356 376 b 236 319 288 357 259 341 b 202 229 213 297 202 267 b 241 131 202 185 215 152 b 361 98 268 109 308 98 b 484 124 406 98 447 106 b 587 186 521 141 556 162 m 163 905 l 163 1010 l 667 1010 l 667 905 "},"Ă":{"ha":949,"x_min":0,"x_max":0,"o":"m 789 0 l 690 281 l 253 281 l 154 0 l 18 0 l 385 1010 l 564 1010 l 932 0 m 471 892 l 294 397 l 648 397 m 729 1390 b 655 1203 725 1314 700 1251 b 474 1131 611 1155 550 1131 b 293 1203 398 1131 337 1155 b 220 1390 248 1251 224 1314 l 332 1390 b 377 1259 338 1330 353 1286 b 475 1219 401 1232 434 1219 b 571 1259 515 1219 547 1232 b 617 1390 596 1286 611 1330 l 729 1390 "},"ă":{"ha":834,"x_min":0,"x_max":0,"o":"m 587 0 l 587 81 l 542 48 b 486 16 522 35 504 24 b 412 -11 464 5 440 -4 b 315 -21 385 -18 352 -21 b 142 47 247 -21 189 2 b 71 220 94 92 71 150 b 107 359 71 277 83 324 b 213 443 132 395 167 422 b 379 484 259 463 314 477 b 587 500 444 491 513 497 l 587 520 b 572 592 587 549 582 573 b 528 637 562 611 547 626 b 463 658 510 647 489 654 b 384 663 438 661 411 663 b 272 650 350 663 313 659 b 144 612 231 641 188 628 l 138 612 l 138 741 b 245 764 163 748 198 755 b 385 776 293 772 339 776 b 524 763 438 776 484 771 b 627 718 563 754 598 739 b 692 637 655 697 677 670 b 714 514 707 604 714 563 l 714 0 m 587 397 b 450 387 548 395 503 392 b 325 368 397 383 356 376 b 236 319 288 357 259 341 b 202 229 213 297 202 267 b 241 131 202 185 215 152 b 361 98 268 109 308 98 b 484 124 406 98 447 106 b 587 186 521 141 556 162 m 667 1137 b 594 950 663 1061 638 998 b 412 878 549 902 489 878 b 231 950 336 878 275 902 b 158 1137 186 998 162 1061 l 271 1137 b 315 1006 276 1077 291 1034 b 413 966 339 979 372 966 b 510 1006 453 966 485 979 b 555 1137 534 1034 549 1077 l 667 1137 "},"Ą":{"ha":949,"x_min":0,"x_max":0,"o":"m 1071 -265 b 1010 -279 1047 -271 1027 -276 b 956 -283 993 -281 975 -283 b 805 -230 893 -283 843 -265 b 747 -79 766 -194 747 -144 b 758 1 747 -50 751 -23 l 772 51 l 690 281 l 253 281 l 154 0 l 18 0 l 385 1010 l 564 1010 l 932 0 l 866 0 b 860 -36 863 -12 861 -24 b 857 -73 858 -48 857 -60 b 885 -155 857 -110 867 -137 b 975 -181 904 -172 934 -181 b 1026 -172 991 -181 1008 -178 b 1065 -157 1045 -166 1058 -161 l 1071 -157 l 1071 -265 m 471 892 l 294 397 l 648 397 "},"ą":{"ha":834,"x_min":0,"x_max":0,"o":"m 899 -265 b 839 -279 876 -271 856 -276 b 785 -283 822 -281 804 -283 b 633 -229 722 -283 671 -265 b 576 -79 595 -194 576 -143 b 580 -33 576 -61 577 -46 l 587 0 l 587 81 l 542 48 b 486 16 522 35 504 24 b 412 -11 464 5 440 -4 b 315 -21 385 -18 352 -21 b 142 47 247 -21 189 2 b 71 220 94 92 71 150 b 107 359 71 277 83 324 b 213 443 132 395 167 422 b 379 484 259 463 314 477 b 587 500 444 491 513 497 l 587 520 b 572 592 587 549 582 573 b 528 637 562 611 547 626 b 463 658 510 647 489 654 b 384 663 438 661 411 663 b 272 650 350 663 313 659 b 144 612 231 641 188 628 l 138 612 l 138 741 b 245 764 163 748 198 755 b 385 776 293 772 339 776 b 524 763 438 776 484 771 b 627 718 563 754 598 739 b 692 637 655 697 677 670 b 714 514 707 604 714 563 l 714 0 l 694 0 b 688 -35 692 -12 690 -24 b 686 -73 686 -47 686 -59 b 714 -155 686 -110 695 -137 b 803 -181 733 -172 762 -181 b 855 -172 819 -181 837 -178 b 894 -157 873 -166 886 -161 l 899 -157 l 899 -265 m 587 397 b 450 387 548 395 503 392 b 325 368 397 383 356 376 b 236 319 288 357 259 341 b 202 229 213 297 202 267 b 241 131 202 185 215 152 b 361 98 268 109 308 98 b 484 124 406 98 447 106 b 587 186 521 141 556 162 "},"Ć":{"ha":970,"x_min":0,"x_max":0,"o":"m 848 43 b 769 13 828 33 802 23 b 679 -9 741 4 712 -3 b 572 -18 647 -15 611 -18 b 373 13 499 -18 433 -8 b 216 109 313 33 261 65 b 115 273 173 152 139 207 b 78 504 90 339 78 416 b 113 727 78 587 90 661 b 215 893 137 793 171 848 b 371 994 258 937 310 970 b 573 1028 431 1017 499 1028 b 735 1008 627 1028 681 1022 b 916 939 790 995 850 972 l 916 780 l 905 780 b 740 882 850 826 795 860 b 564 913 685 903 627 913 b 426 889 513 913 467 905 b 317 812 385 872 349 847 b 244 683 286 778 261 735 b 218 504 226 631 218 572 b 247 321 218 433 227 372 b 321 196 266 270 290 228 b 432 122 352 163 389 138 b 566 98 474 106 519 98 b 747 131 630 98 691 109 b 906 231 804 153 857 186 l 916 231 l 916 73 m 543 1136 l 441 1136 l 563 1390 l 728 1390 "},"ć":{"ha":724,"x_min":0,"x_max":0,"o":"m 686 47 b 565 0 643 27 603 11 b 443 -17 526 -11 486 -17 b 292 7 388 -17 338 -9 b 175 80 247 23 208 47 b 98 203 142 113 116 154 b 71 378 80 253 71 311 b 173 669 71 502 105 599 b 443 775 241 740 331 775 b 571 757 486 775 529 769 b 686 712 612 745 651 730 l 686 570 l 679 570 b 558 640 640 601 600 624 b 437 665 517 656 477 665 b 266 592 365 665 308 640 b 203 378 224 543 203 472 b 265 167 203 286 224 216 b 437 94 306 118 363 94 b 516 104 463 94 489 97 b 588 130 543 111 567 119 b 640 160 607 140 624 150 b 679 188 656 171 669 180 l 686 188 l 686 47 m 434 883 l 333 883 l 454 1137 l 619 1137 "},"Ĉ":{"ha":970,"x_min":0,"x_max":0,"o":"m 848 43 b 769 13 828 33 802 23 b 679 -9 741 4 712 -3 b 572 -18 647 -15 611 -18 b 373 13 499 -18 433 -8 b 216 109 313 33 261 65 b 115 273 173 152 139 207 b 78 504 90 339 78 416 b 113 727 78 587 90 661 b 215 893 137 793 171 848 b 371 994 258 937 310 970 b 573 1028 431 1017 499 1028 b 735 1008 627 1028 681 1022 b 916 939 790 995 850 972 l 916 780 l 905 780 b 740 882 850 826 795 860 b 564 913 685 903 627 913 b 426 889 513 913 467 905 b 317 812 385 872 349 847 b 244 683 286 778 261 735 b 218 504 226 631 218 572 b 247 321 218 433 227 372 b 321 196 266 270 290 228 b 432 122 352 163 389 138 b 566 98 474 106 519 98 b 747 131 630 98 691 109 b 906 231 804 153 857 186 l 916 231 l 916 73 m 680 1133 l 555 1306 l 430 1133 l 325 1133 l 479 1390 l 633 1390 l 788 1133 "},"ĉ":{"ha":724,"x_min":0,"x_max":0,"o":"m 686 47 b 565 0 643 27 603 11 b 443 -17 526 -11 486 -17 b 292 7 388 -17 338 -9 b 175 80 247 23 208 47 b 98 203 142 113 116 154 b 71 378 80 253 71 311 b 173 669 71 502 105 599 b 443 775 241 740 331 775 b 571 757 486 775 529 769 b 686 712 612 745 651 730 l 686 570 l 679 570 b 558 640 640 601 600 624 b 437 665 517 656 477 665 b 266 592 365 665 308 640 b 203 378 224 543 203 472 b 265 167 203 286 224 216 b 437 94 306 118 363 94 b 516 104 463 94 489 97 b 588 130 543 111 567 119 b 640 160 607 140 624 150 b 679 188 656 171 669 180 l 686 188 l 686 47 m 557 880 l 432 1053 l 307 880 l 202 880 l 357 1137 l 511 1137 l 665 880 "},"Ċ":{"ha":970,"x_min":0,"x_max":0,"o":"m 848 43 b 769 13 828 33 802 23 b 679 -9 741 4 712 -3 b 572 -18 647 -15 611 -18 b 373 13 499 -18 433 -8 b 216 109 313 33 261 65 b 115 273 173 152 139 207 b 78 504 90 339 78 416 b 113 727 78 587 90 661 b 215 893 137 793 171 848 b 371 994 258 937 310 970 b 573 1028 431 1017 499 1028 b 735 1008 627 1028 681 1022 b 916 939 790 995 850 972 l 916 780 l 905 780 b 740 882 850 826 795 860 b 564 913 685 903 627 913 b 426 889 513 913 467 905 b 317 812 385 872 349 847 b 244 683 286 778 261 735 b 218 504 226 631 218 572 b 247 321 218 433 227 372 b 321 196 266 270 290 228 b 432 122 352 163 389 138 b 566 98 474 106 519 98 b 747 131 630 98 691 109 b 906 231 804 153 857 186 l 916 231 l 916 73 m 484 1137 l 484 1270 l 627 1270 l 627 1137 "},"ċ":{"ha":724,"x_min":0,"x_max":0,"o":"m 686 47 b 565 0 643 27 603 11 b 443 -17 526 -11 486 -17 b 292 7 388 -17 338 -9 b 175 80 247 23 208 47 b 98 203 142 113 116 154 b 71 378 80 253 71 311 b 173 669 71 502 105 599 b 443 775 241 740 331 775 b 571 757 486 775 529 769 b 686 712 612 745 651 730 l 686 570 l 679 570 b 558 640 640 601 600 624 b 437 665 517 656 477 665 b 266 592 365 665 308 640 b 203 378 224 543 203 472 b 265 167 203 286 224 216 b 437 94 306 118 363 94 b 516 104 463 94 489 97 b 588 130 543 111 567 119 b 640 160 607 140 624 150 b 679 188 656 171 669 180 l 686 188 l 686 47 m 362 884 l 362 1017 l 506 1017 l 506 884 "},"Č":{"ha":970,"x_min":0,"x_max":0,"o":"m 848 43 b 769 13 828 33 802 23 b 679 -9 741 4 712 -3 b 572 -18 647 -15 611 -18 b 373 13 499 -18 433 -8 b 216 109 313 33 261 65 b 115 273 173 152 139 207 b 78 504 90 339 78 416 b 113 727 78 587 90 661 b 215 893 137 793 171 848 b 371 994 258 937 310 970 b 573 1028 431 1017 499 1028 b 735 1008 627 1028 681 1022 b 916 939 790 995 850 972 l 916 780 l 905 780 b 740 882 850 826 795 860 b 564 913 685 903 627 913 b 426 889 513 913 467 905 b 317 812 385 872 349 847 b 244 683 286 778 261 735 b 218 504 226 631 218 572 b 247 321 218 433 227 372 b 321 196 266 270 290 228 b 432 122 352 163 389 138 b 566 98 474 106 519 98 b 747 131 630 98 691 109 b 906 231 804 153 857 186 l 916 231 l 916 73 m 630 1133 l 476 1133 l 321 1390 l 429 1390 l 555 1216 l 680 1390 l 785 1390 "},"č":{"ha":724,"x_min":0,"x_max":0,"o":"m 686 47 b 565 0 643 27 603 11 b 443 -17 526 -11 486 -17 b 292 7 388 -17 338 -9 b 175 80 247 23 208 47 b 98 203 142 113 116 154 b 71 378 80 253 71 311 b 173 669 71 502 105 599 b 443 775 241 740 331 775 b 571 757 486 775 529 769 b 686 712 612 745 651 730 l 686 570 l 679 570 b 558 640 640 601 600 624 b 437 665 517 656 477 665 b 266 592 365 665 308 640 b 203 378 224 543 203 472 b 265 167 203 286 224 216 b 437 94 306 118 363 94 b 516 104 463 94 489 97 b 588 130 543 111 567 119 b 640 160 607 140 624 150 b 679 188 656 171 669 180 l 686 188 l 686 47 m 509 880 l 355 880 l 201 1137 l 309 1137 l 434 963 l 559 1137 l 664 1137 "},"Ď":{"ha":1070,"x_min":0,"x_max":0,"o":"m 989 504 b 929 254 989 412 969 329 b 769 81 889 180 836 122 b 615 19 723 52 671 32 b 391 0 558 6 483 0 l 136 0 l 136 1010 l 388 1010 b 623 988 486 1010 565 1003 b 770 930 681 974 730 955 b 931 758 839 887 893 830 b 989 504 970 687 989 602 m 848 506 b 807 706 848 585 835 652 b 684 834 779 760 738 803 b 557 881 644 857 602 872 b 396 895 512 890 458 895 l 270 895 l 270 115 l 396 115 b 565 130 461 115 517 120 b 698 182 613 139 658 157 b 811 309 748 215 786 257 b 848 506 836 362 848 427 m 543 1133 l 389 1133 l 235 1390 l 342 1390 l 468 1216 l 593 1390 l 698 1390 "},"ď":{"ha":899,"x_min":0,"x_max":0,"o":"m 899 713 l 812 713 l 916 1055 l 1068 1055 m 612 0 l 612 79 b 498 5 576 48 538 23 b 368 -21 458 -12 415 -21 b 153 83 278 -21 206 14 b 73 373 100 153 73 250 b 101 545 73 437 82 494 b 175 673 119 595 144 637 b 282 751 206 707 242 733 b 410 779 323 769 366 779 b 515 766 449 779 485 774 b 612 727 546 758 578 745 l 612 1055 l 740 1055 l 740 0 m 612 621 b 520 653 578 637 547 647 b 431 662 493 659 463 662 b 264 587 360 662 304 637 b 205 376 225 538 205 467 b 251 171 205 286 220 217 b 399 100 282 124 331 100 b 509 124 435 100 472 108 b 612 186 546 140 580 161 "},"Đ":{"ha":1077,"x_min":0,"x_max":0,"o":"m 996 504 b 936 254 996 412 976 329 b 776 81 896 180 842 122 b 622 19 730 52 678 32 b 397 0 565 6 490 0 l 142 0 l 142 502 l 9 502 l 9 599 l 142 599 l 142 1010 l 395 1010 b 630 988 493 1010 572 1003 b 777 930 688 974 737 955 b 938 758 846 887 899 830 b 996 504 976 687 996 602 m 855 506 b 814 706 855 585 841 652 b 690 834 786 760 745 803 b 564 881 651 857 608 872 b 403 895 519 890 465 895 l 275 895 l 275 599 l 520 599 l 520 502 l 275 502 l 275 115 l 403 115 b 572 130 467 115 524 120 b 705 182 620 139 664 157 b 818 309 755 215 792 257 b 855 506 843 362 855 427 "},"đ":{"ha":865,"x_min":0,"x_max":0,"o":"m 740 860 l 740 0 l 612 0 l 612 79 b 502 7 578 50 541 25 b 368 -21 462 -12 418 -21 b 154 81 279 -21 207 13 b 73 369 100 150 73 245 b 101 539 73 433 83 490 b 175 666 120 589 144 631 b 283 744 206 700 242 726 b 410 771 324 762 366 771 b 515 759 450 771 485 767 b 612 720 546 751 578 738 l 612 860 l 366 860 l 366 951 l 612 951 l 612 1055 l 740 1055 l 740 951 l 865 951 l 865 860 m 612 616 b 520 647 577 631 546 642 b 431 655 494 652 464 655 b 265 583 361 655 305 631 b 205 372 225 534 205 464 b 251 170 205 283 220 216 b 399 100 281 124 330 100 b 509 124 435 100 472 108 b 612 186 546 140 580 161 "},"Ē":{"ha":878,"x_min":0,"x_max":0,"o":"m 136 0 l 136 1010 l 801 1010 l 801 890 l 270 890 l 270 614 l 801 614 l 801 494 l 270 494 l 270 119 l 801 119 l 801 0 m 224 1152 l 224 1256 l 728 1256 l 728 1152 "},"ē":{"ha":827,"x_min":0,"x_max":0,"o":"m 201 366 b 222 244 201 319 208 278 b 280 159 236 209 256 181 b 364 110 304 137 332 121 b 471 94 396 99 432 94 b 626 124 522 94 574 104 b 738 185 679 145 716 165 l 745 185 l 745 46 b 613 1 702 28 658 13 b 472 -18 568 -12 521 -18 b 178 84 346 -18 248 16 b 72 374 107 152 72 249 b 173 669 72 498 106 597 b 440 779 241 742 330 779 b 676 689 542 779 621 749 b 760 435 732 629 760 545 l 760 366 m 635 463 b 585 618 635 530 618 582 b 433 673 552 655 501 673 b 270 613 365 673 311 653 b 201 463 230 573 207 523 l 635 463 m 184 905 l 184 1010 l 687 1010 l 687 905 "},"Ĕ":{"ha":878,"x_min":0,"x_max":0,"o":"m 136 0 l 136 1010 l 801 1010 l 801 890 l 270 890 l 270 614 l 801 614 l 801 494 l 270 494 l 270 119 l 801 119 l 801 0 m 739 1390 b 666 1203 735 1314 710 1251 b 484 1131 621 1155 561 1131 b 303 1203 408 1131 347 1155 b 230 1390 258 1251 234 1314 l 342 1390 b 387 1259 348 1330 363 1286 b 485 1219 411 1232 444 1219 b 582 1259 525 1219 557 1232 b 627 1390 606 1286 621 1330 l 739 1390 "},"ĕ":{"ha":827,"x_min":0,"x_max":0,"o":"m 201 366 b 222 244 201 319 208 278 b 280 159 236 209 256 181 b 364 110 304 137 332 121 b 471 94 396 99 432 94 b 626 124 522 94 574 104 b 738 185 679 145 716 165 l 745 185 l 745 46 b 613 1 702 28 658 13 b 472 -18 568 -12 521 -18 b 178 84 346 -18 248 16 b 72 374 107 152 72 249 b 173 669 72 498 106 597 b 440 779 241 742 330 779 b 676 689 542 779 621 749 b 760 435 732 629 760 545 l 760 366 m 635 463 b 585 618 635 530 618 582 b 433 673 552 655 501 673 b 270 613 365 673 311 653 b 201 463 230 573 207 523 l 635 463 m 694 1137 b 621 950 690 1061 665 998 b 439 878 576 902 516 878 b 258 950 363 878 303 902 b 185 1137 214 998 189 1061 l 298 1137 b 342 1006 303 1077 318 1034 b 440 966 366 979 399 966 b 537 1006 480 966 513 979 b 583 1137 561 1034 576 1077 l 694 1137 "},"Ė":{"ha":878,"x_min":0,"x_max":0,"o":"m 136 0 l 136 1010 l 801 1010 l 801 890 l 270 890 l 270 614 l 801 614 l 801 494 l 270 494 l 270 119 l 801 119 l 801 0 m 423 1137 l 423 1270 l 567 1270 l 567 1137 "},"ė":{"ha":827,"x_min":0,"x_max":0,"o":"m 201 366 b 222 244 201 319 208 278 b 280 159 236 209 256 181 b 364 110 304 137 332 121 b 471 94 396 99 432 94 b 626 124 522 94 574 104 b 738 185 679 145 716 165 l 745 185 l 745 46 b 613 1 702 28 658 13 b 472 -18 568 -12 521 -18 b 178 84 346 -18 248 16 b 72 374 107 152 72 249 b 173 669 72 498 106 597 b 440 779 241 742 330 779 b 676 689 542 779 621 749 b 760 435 732 629 760 545 l 760 366 m 635 463 b 585 618 635 530 618 582 b 433 673 552 655 501 673 b 270 613 365 673 311 653 b 201 463 230 573 207 523 l 635 463 m 370 884 l 370 1017 l 513 1017 l 513 884 "},"Ę":{"ha":878,"x_min":0,"x_max":0,"o":"m 833 -265 b 773 -279 810 -271 790 -276 b 719 -283 756 -281 738 -283 b 567 -229 656 -283 605 -265 b 510 -79 529 -194 510 -143 b 514 -37 510 -62 511 -48 l 522 0 l 136 0 l 136 1010 l 801 1010 l 801 890 l 270 890 l 270 614 l 801 614 l 801 494 l 270 494 l 270 119 l 801 119 l 801 0 l 629 0 b 622 -36 626 -12 624 -24 b 620 -73 621 -48 620 -60 b 648 -155 620 -110 629 -137 b 737 -181 667 -172 696 -181 b 789 -172 753 -181 771 -178 b 828 -157 807 -166 820 -161 l 833 -157 l 833 -265 "},"ę":{"ha":827,"x_min":0,"x_max":0,"o":"m 201 366 b 222 244 201 319 208 278 b 280 159 236 209 256 181 b 364 110 304 137 332 121 b 471 94 396 99 432 94 b 626 124 522 94 574 104 b 738 185 679 145 716 165 l 745 185 l 745 46 b 642 8 711 32 677 20 b 534 -14 607 -3 571 -10 b 532 -44 533 -23 533 -33 b 531 -73 531 -55 531 -64 b 559 -155 531 -110 540 -137 b 648 -181 578 -172 608 -181 b 700 -172 665 -181 682 -178 b 739 -157 719 -166 732 -161 l 745 -157 l 745 -265 b 684 -279 721 -271 701 -276 b 630 -283 667 -281 649 -283 b 478 -229 567 -283 517 -265 b 421 -79 440 -194 421 -143 b 423 -45 421 -68 422 -57 b 428 -16 425 -34 426 -24 b 166 97 316 -8 228 30 b 72 374 103 164 72 257 b 173 669 72 498 106 597 b 440 779 241 742 330 779 b 676 689 542 779 621 749 b 760 435 732 629 760 545 l 760 366 m 635 463 b 585 618 635 530 618 582 b 433 673 552 655 501 673 b 270 613 365 673 311 653 b 201 463 230 573 207 523 l 635 463 "},"Ě":{"ha":878,"x_min":0,"x_max":0,"o":"m 136 0 l 136 1010 l 801 1010 l 801 890 l 270 890 l 270 614 l 801 614 l 801 494 l 270 494 l 270 119 l 801 119 l 801 0 m 539 1133 l 385 1133 l 231 1390 l 338 1390 l 464 1216 l 589 1390 l 694 1390 "},"ě":{"ha":827,"x_min":0,"x_max":0,"o":"m 201 366 b 222 244 201 319 208 278 b 280 159 236 209 256 181 b 364 110 304 137 332 121 b 471 94 396 99 432 94 b 626 124 522 94 574 104 b 738 185 679 145 716 165 l 745 185 l 745 46 b 613 1 702 28 658 13 b 472 -18 568 -12 521 -18 b 178 84 346 -18 248 16 b 72 374 107 152 72 249 b 173 669 72 498 106 597 b 440 779 241 742 330 779 b 676 689 542 779 621 749 b 760 435 732 629 760 545 l 760 366 m 635 463 b 585 618 635 530 618 582 b 433 673 552 655 501 673 b 270 613 365 673 311 653 b 201 463 230 573 207 523 l 635 463 m 514 880 l 360 880 l 205 1137 l 313 1137 l 439 963 l 564 1137 l 669 1137 "},"Ĝ":{"ha":1077,"x_min":0,"x_max":0,"o":"m 978 75 b 797 8 923 49 863 27 b 608 -20 732 -10 669 -20 b 391 13 529 -20 457 -9 b 224 111 326 35 270 67 b 116 275 177 154 141 209 b 78 506 91 341 78 418 b 219 888 78 667 125 795 b 608 1028 314 981 443 1028 b 784 1007 665 1028 724 1021 b 977 937 844 994 908 970 l 977 778 l 965 778 b 904 821 951 789 931 803 b 825 865 877 838 851 853 b 719 900 794 879 759 890 b 585 913 680 909 635 913 b 316 805 472 913 382 877 b 218 510 251 732 218 634 b 321 205 218 379 252 278 b 602 96 389 133 483 96 b 731 109 645 96 688 101 b 845 142 775 118 812 129 l 845 390 l 574 390 l 574 508 l 978 508 l 978 75 m 707 1133 l 581 1306 l 456 1133 l 351 1133 l 506 1390 l 660 1390 l 814 1133 "},"ĝ":{"ha":865,"x_min":0,"x_max":0,"o":"m 740 86 b 652 -197 740 -42 711 -137 b 383 -287 594 -257 504 -287 b 266 -278 343 -287 304 -284 b 153 -254 227 -273 190 -265 l 153 -124 l 159 -124 b 258 -154 180 -132 213 -142 b 394 -172 304 -166 349 -172 b 502 -157 437 -172 473 -167 b 568 -113 530 -146 552 -132 b 602 -50 584 -96 595 -74 b 612 34 609 -25 612 3 l 612 103 b 502 34 574 72 537 49 b 368 12 467 19 422 12 b 153 110 278 12 206 44 b 73 386 100 175 73 267 b 101 554 73 451 82 507 b 176 677 119 602 144 642 b 283 752 205 709 241 734 b 408 779 325 770 367 779 b 518 765 452 779 489 774 b 612 725 548 756 579 743 l 621 758 l 740 758 l 740 86 m 612 621 b 518 654 578 637 547 648 b 431 664 489 661 460 664 b 265 593 361 664 305 640 b 205 389 225 546 205 478 b 250 195 205 304 220 239 b 398 130 279 151 329 130 b 510 151 435 130 472 137 b 612 208 547 165 581 184 m 562 880 l 437 1053 l 312 880 l 207 880 l 361 1137 l 515 1137 l 670 880 "},"Ğ":{"ha":1077,"x_min":0,"x_max":0,"o":"m 978 75 b 797 8 923 49 863 27 b 608 -20 732 -10 669 -20 b 391 13 529 -20 457 -9 b 224 111 326 35 270 67 b 116 275 177 154 141 209 b 78 506 91 341 78 418 b 219 888 78 667 125 795 b 608 1028 314 981 443 1028 b 784 1007 665 1028 724 1021 b 977 937 844 994 908 970 l 977 778 l 965 778 b 904 821 951 789 931 803 b 825 865 877 838 851 853 b 719 900 794 879 759 890 b 585 913 680 909 635 913 b 316 805 472 913 382 877 b 218 510 251 732 218 634 b 321 205 218 379 252 278 b 602 96 389 133 483 96 b 731 109 645 96 688 101 b 845 142 775 118 812 129 l 845 390 l 574 390 l 574 508 l 978 508 l 978 75 m 836 1390 b 763 1203 832 1314 807 1251 b 581 1131 718 1155 658 1131 b 400 1203 505 1131 444 1155 b 327 1390 355 1251 331 1314 l 439 1390 b 484 1259 445 1330 460 1286 b 582 1219 508 1232 541 1219 b 679 1259 622 1219 654 1232 b 724 1390 703 1286 718 1330 l 836 1390 "},"ğ":{"ha":865,"x_min":0,"x_max":0,"o":"m 740 86 b 652 -197 740 -42 711 -137 b 383 -287 594 -257 504 -287 b 266 -278 343 -287 304 -284 b 153 -254 227 -273 190 -265 l 153 -124 l 159 -124 b 258 -154 180 -132 213 -142 b 394 -172 304 -166 349 -172 b 502 -157 437 -172 473 -167 b 568 -113 530 -146 552 -132 b 602 -50 584 -96 595 -74 b 612 34 609 -25 612 3 l 612 103 b 502 34 574 72 537 49 b 368 12 467 19 422 12 b 153 110 278 12 206 44 b 73 386 100 175 73 267 b 101 554 73 451 82 507 b 176 677 119 602 144 642 b 283 752 205 709 241 734 b 408 779 325 770 367 779 b 518 765 452 779 489 774 b 612 725 548 756 579 743 l 621 758 l 740 758 l 740 86 m 612 621 b 518 654 578 637 547 648 b 431 664 489 661 460 664 b 265 593 361 664 305 640 b 205 389 225 546 205 478 b 250 195 205 304 220 239 b 398 130 279 151 329 130 b 510 151 435 130 472 137 b 612 208 547 165 581 184 m 694 1137 b 621 950 690 1061 665 998 b 439 878 576 902 516 878 b 258 950 363 878 303 902 b 185 1137 214 998 189 1061 l 298 1137 b 342 1006 303 1077 318 1034 b 440 966 366 979 399 966 b 537 1006 480 966 513 979 b 583 1137 561 1034 576 1077 l 694 1137 "},"Ġ":{"ha":1077,"x_min":0,"x_max":0,"o":"m 978 75 b 797 8 923 49 863 27 b 608 -20 732 -10 669 -20 b 391 13 529 -20 457 -9 b 224 111 326 35 270 67 b 116 275 177 154 141 209 b 78 506 91 341 78 418 b 219 888 78 667 125 795 b 608 1028 314 981 443 1028 b 784 1007 665 1028 724 1021 b 977 937 844 994 908 970 l 977 778 l 965 778 b 904 821 951 789 931 803 b 825 865 877 838 851 853 b 719 900 794 879 759 890 b 585 913 680 909 635 913 b 316 805 472 913 382 877 b 218 510 251 732 218 634 b 321 205 218 379 252 278 b 602 96 389 133 483 96 b 731 109 645 96 688 101 b 845 142 775 118 812 129 l 845 390 l 574 390 l 574 508 l 978 508 l 978 75 m 509 1137 l 509 1270 l 653 1270 l 653 1137 "},"ġ":{"ha":865,"x_min":0,"x_max":0,"o":"m 740 86 b 652 -197 740 -42 711 -137 b 383 -287 594 -257 504 -287 b 266 -278 343 -287 304 -284 b 153 -254 227 -273 190 -265 l 153 -124 l 159 -124 b 258 -154 180 -132 213 -142 b 394 -172 304 -166 349 -172 b 502 -157 437 -172 473 -167 b 568 -113 530 -146 552 -132 b 602 -50 584 -96 595 -74 b 612 34 609 -25 612 3 l 612 103 b 502 34 574 72 537 49 b 368 12 467 19 422 12 b 153 110 278 12 206 44 b 73 386 100 175 73 267 b 101 554 73 451 82 507 b 176 677 119 602 144 642 b 283 752 205 709 241 734 b 408 779 325 770 367 779 b 518 765 452 779 489 774 b 612 725 548 756 579 743 l 621 758 l 740 758 l 740 86 m 612 621 b 518 654 578 637 547 648 b 431 664 489 661 460 664 b 265 593 361 664 305 640 b 205 389 225 546 205 478 b 250 195 205 304 220 239 b 398 130 279 151 329 130 b 510 151 435 130 472 137 b 612 208 547 165 581 184 m 362 884 l 362 1017 l 506 1017 l 506 884 "},"Ģ":{"ha":1077,"x_min":0,"x_max":0,"o":"m 609 -73 b 608 -44 609 -63 609 -53 b 606 -19 607 -34 607 -26 b 391 13 527 -19 456 -8 b 224 111 326 35 270 67 b 116 275 177 154 141 209 b 78 506 91 341 78 418 b 219 888 78 667 125 795 b 608 1028 314 981 443 1028 b 784 1007 665 1028 724 1021 b 977 937 844 994 908 970 l 977 778 l 965 778 b 904 821 951 789 931 803 b 825 865 877 838 851 853 b 719 900 794 879 759 890 b 585 913 680 909 635 913 b 316 805 472 913 382 877 b 218 510 251 732 218 634 b 321 205 218 379 252 278 b 602 96 389 133 483 96 b 731 109 645 96 688 101 b 845 142 775 118 812 129 l 845 390 l 574 390 l 574 508 l 978 508 l 978 75 b 845 23 937 56 893 39 b 709 -11 797 7 752 -4 b 711 -33 710 -17 710 -25 b 712 -60 712 -41 712 -50 b 650 -229 712 -134 691 -190 b 489 -287 609 -267 555 -287 b 425 -282 472 -287 451 -285 b 355 -269 398 -279 375 -275 l 355 -161 l 361 -161 b 408 -176 373 -165 388 -170 b 472 -185 428 -182 449 -185 b 576 -159 519 -185 554 -176 b 609 -73 598 -141 609 -112 "},"ģ":{"ha":865,"x_min":0,"x_max":0,"o":"m 740 86 b 652 -197 740 -42 711 -137 b 383 -287 594 -257 504 -287 b 266 -278 343 -287 304 -284 b 153 -254 227 -273 190 -265 l 153 -124 l 159 -124 b 258 -154 180 -132 213 -142 b 394 -172 304 -166 349 -172 b 502 -157 437 -172 473 -167 b 568 -113 530 -146 552 -132 b 602 -50 584 -96 595 -74 b 612 34 609 -25 612 3 l 612 103 b 502 34 574 72 537 49 b 368 12 467 19 422 12 b 153 110 278 12 206 44 b 73 386 100 175 73 267 b 101 554 73 451 82 507 b 176 677 119 602 144 642 b 283 752 205 709 241 734 b 408 779 325 770 367 779 b 518 765 452 779 489 774 b 612 725 548 756 579 743 l 621 758 l 740 758 l 740 86 m 612 621 b 518 654 578 637 547 648 b 431 664 489 661 460 664 b 265 593 361 664 305 640 b 205 389 225 546 205 478 b 250 195 205 304 220 239 b 398 130 279 151 329 130 b 510 151 435 130 472 137 b 612 208 547 165 581 184 m 479 883 l 315 883 l 500 1137 l 601 1137 "},"Ĥ":{"ha":1044,"x_min":0,"x_max":0,"o":"m 774 0 l 774 494 l 270 494 l 270 0 l 136 0 l 136 1010 l 270 1010 l 270 614 l 774 614 l 774 1010 l 908 1010 l 908 0 m 646 1133 l 520 1306 l 395 1133 l 290 1133 l 445 1390 l 599 1390 l 753 1133 "},"ĥ":{"ha":879,"x_min":0,"x_max":0,"o":"m 631 0 l 631 431 b 625 529 631 466 629 499 b 603 601 621 560 614 584 b 554 643 592 620 575 634 b 471 657 533 653 505 657 b 362 631 437 657 400 649 b 253 566 324 614 288 592 l 253 0 l 125 0 l 125 1055 l 253 1055 l 253 673 b 376 751 293 706 334 732 b 507 779 419 769 463 779 b 694 705 589 779 651 754 b 759 492 737 655 759 584 l 759 0 m 589 1133 l 463 1306 l 338 1133 l 233 1133 l 388 1390 l 542 1390 l 696 1133 "},"Ħ":{"ha":1044,"x_min":0,"x_max":0,"o":"m 908 752 l 908 0 l 774 0 l 774 494 l 270 494 l 270 0 l 136 0 l 136 752 l 22 752 l 22 847 l 136 847 l 136 1010 l 270 1010 l 270 847 l 774 847 l 774 1010 l 908 1010 l 908 847 l 1022 847 l 1022 752 m 774 752 l 270 752 l 270 614 l 774 614 "},"ħ":{"ha":879,"x_min":0,"x_max":0,"o":"m 631 0 l 631 431 b 625 529 631 466 629 499 b 603 601 621 560 614 584 b 554 643 592 620 575 634 b 471 657 533 653 505 657 b 362 631 437 657 400 649 b 253 566 324 614 288 592 l 253 0 l 125 0 l 125 860 l 13 860 l 13 951 l 125 951 l 125 1055 l 253 1055 l 253 951 l 471 951 l 471 860 l 253 860 l 253 673 b 376 751 293 706 334 732 b 507 779 419 769 463 779 b 694 705 589 779 651 754 b 759 492 737 655 759 584 l 759 0 "},"Ĩ":{"ha":585,"x_min":0,"x_max":0,"o":"m 93 0 l 93 103 l 225 103 l 225 907 l 93 907 l 93 1010 l 492 1010 l 492 907 l 359 907 l 359 103 l 492 103 l 492 0 m 555 1351 b 508 1197 552 1282 537 1231 b 397 1145 480 1162 443 1145 b 333 1158 373 1145 352 1149 b 279 1196 315 1166 297 1178 b 229 1239 259 1215 242 1230 b 186 1253 215 1249 201 1253 b 139 1222 165 1253 149 1243 b 122 1141 129 1202 123 1175 l 30 1141 b 75 1289 31 1202 46 1252 b 188 1345 103 1327 141 1345 b 250 1333 211 1345 232 1341 b 304 1296 268 1325 286 1313 b 356 1255 323 1278 341 1264 b 398 1241 371 1246 385 1241 b 446 1272 419 1241 435 1251 b 463 1351 457 1292 463 1319 l 555 1351 "},"ĩ":{"ha":381,"x_min":0,"x_max":0,"o":"m 127 0 l 127 758 l 254 758 l 254 0 m 391 1082 b 356 951 391 1024 380 980 b 267 907 333 921 303 907 b 220 916 249 907 234 910 b 180 946 207 921 194 932 b 143 981 166 962 154 974 b 113 993 133 989 123 993 b 78 969 97 993 85 985 b 66 902 70 954 66 931 l -9 902 b 26 1034 -9 960 2 1004 b 114 1078 49 1063 79 1078 b 163 1068 135 1078 151 1075 b 201 1038 174 1062 187 1052 b 239 1003 216 1022 229 1011 b 269 991 249 995 259 991 b 304 1016 285 991 297 1000 b 315 1082 312 1032 315 1054 l 391 1082 "},"Ī":{"ha":585,"x_min":0,"x_max":0,"o":"m 93 0 l 93 103 l 225 103 l 225 907 l 93 907 l 93 1010 l 492 1010 l 492 907 l 359 907 l 359 103 l 492 103 l 492 0 m 64 1152 l 64 1256 l 520 1256 l 520 1152 "},"ī":{"ha":381,"x_min":0,"x_max":0,"o":"m -3 905 l -3 1010 l 384 1010 l 384 905 m 127 0 l 127 758 l 254 758 l 254 0 "},"Ĭ":{"ha":585,"x_min":0,"x_max":0,"o":"m 93 0 l 93 103 l 225 103 l 225 907 l 93 907 l 93 1010 l 492 1010 l 492 907 l 359 907 l 359 103 l 492 103 l 492 0 m 498 1358 b 449 1174 498 1282 482 1221 b 293 1104 415 1127 363 1104 b 138 1174 224 1104 172 1127 b 87 1358 104 1221 87 1282 l 194 1358 b 217 1229 194 1298 202 1255 b 293 1190 233 1203 258 1190 b 367 1227 326 1190 351 1203 b 391 1358 383 1252 391 1296 l 498 1358 "},"ĭ":{"ha":381,"x_min":0,"x_max":0,"o":"m 380 1112 b 333 943 380 1043 364 986 b 191 878 301 899 254 878 b 49 942 128 878 81 899 b 1 1112 17 985 1 1042 l 100 1112 b 122 993 100 1057 107 1017 b 191 957 136 969 159 957 b 258 990 220 957 242 968 b 281 1112 273 1012 281 1053 l 380 1112 m 127 0 l 127 758 l 254 758 l 254 0 "},"Į":{"ha":585,"x_min":0,"x_max":0,"o":"m 93 0 l 93 103 l 225 103 l 225 907 l 93 907 l 93 1010 l 492 1010 l 492 907 l 359 907 l 359 103 l 492 103 l 492 0 l 360 0 l 353 -33 b 350 -73 351 -42 350 -55 b 372 -155 350 -109 357 -137 b 454 -182 387 -173 415 -182 b 499 -175 469 -182 484 -180 b 534 -161 513 -171 525 -166 l 540 -161 l 540 -269 b 488 -279 524 -273 506 -277 b 437 -283 470 -282 453 -283 b 294 -229 376 -283 328 -265 b 241 -79 259 -192 241 -143 b 244 -38 241 -64 242 -50 b 252 0 247 -26 249 -14 "},"į":{"ha":381,"x_min":0,"x_max":0,"o":"m 119 884 l 119 1017 l 262 1017 l 262 884 m 395 -269 b 343 -279 378 -273 361 -277 b 292 -283 325 -282 308 -283 b 149 -229 232 -283 184 -265 b 96 -79 114 -194 96 -144 b 109 1 96 -51 100 -24 l 127 56 l 127 758 l 254 758 l 254 0 l 214 0 b 207 -36 211 -12 209 -24 b 205 -73 206 -48 205 -60 b 227 -155 205 -109 212 -137 b 309 -182 242 -173 269 -182 b 354 -175 324 -182 339 -180 b 389 -161 368 -171 380 -166 l 395 -161 l 395 -269 "},"İ":{"ha":585,"x_min":0,"x_max":0,"o":"m 93 0 l 93 103 l 225 103 l 225 907 l 93 907 l 93 1010 l 492 1010 l 492 907 l 359 907 l 359 103 l 492 103 l 492 0 m 220 1137 l 220 1270 l 364 1270 l 364 1137 "},"ı":{"ha":381,"x_min":0,"x_max":0,"o":"m 127 0 l 127 758 l 254 758 l 254 0 "},"Ĳ":{"ha":1209,"x_min":0,"x_max":0,"o":"m 93 0 l 93 103 l 225 103 l 225 907 l 93 907 l 93 1010 l 492 1010 l 492 907 l 359 907 l 359 103 l 492 103 l 492 0 m 1084 262 b 1003 58 1084 174 1057 106 b 785 -14 949 10 876 -14 b 699 -8 764 -14 735 -12 b 608 5 662 -5 632 0 l 608 131 l 615 131 b 684 111 634 125 656 118 b 767 101 711 104 739 101 b 866 115 809 101 842 106 b 921 156 891 125 909 138 b 944 222 933 174 941 196 b 949 313 948 249 949 279 l 949 903 l 736 903 l 736 1010 l 1084 1010 l 1084 262 "},"ĳ":{"ha":852,"x_min":0,"x_max":0,"o":"m 119 884 l 119 1017 l 262 1017 l 262 884 m 127 0 l 127 758 l 254 758 l 254 0 m 592 884 l 592 1017 l 736 1017 l 736 884 m 728 -18 b 660 -219 728 -107 705 -174 b 478 -287 615 -264 554 -287 b 407 -281 460 -287 436 -285 b 332 -268 377 -278 352 -273 l 332 -146 l 339 -146 b 390 -163 352 -151 369 -157 b 453 -173 412 -170 433 -173 b 532 -159 486 -173 512 -168 b 576 -119 552 -150 566 -137 b 596 -53 586 -101 593 -79 b 600 40 599 -28 600 3 l 600 650 l 442 650 l 442 758 l 728 758 l 728 -18 "},"Ĵ":{"ha":631,"x_min":0,"x_max":0,"o":"m 506 262 b 425 58 506 174 479 106 b 208 -14 371 10 298 -14 b 121 -8 186 -14 157 -12 b 30 5 85 -5 54 0 l 30 131 l 37 131 b 106 111 56 125 79 118 b 189 101 133 104 161 101 b 289 115 231 101 264 106 b 343 156 313 125 331 138 b 367 222 355 174 363 196 b 372 313 370 249 372 279 l 372 903 l 158 903 l 158 1010 l 506 1010 l 506 262 m 465 1133 l 340 1306 l 215 1133 l 110 1133 l 264 1390 l 418 1390 l 573 1133 "},"ĵ":{"ha":478,"x_min":0,"x_max":0,"o":"m 353 -18 b 286 -219 353 -107 331 -174 b 104 -287 240 -264 180 -287 b 32 -281 86 -287 62 -285 b -42 -268 3 -278 -22 -273 l -42 -146 l -35 -146 b 16 -163 -23 -151 -6 -157 b 79 -173 37 -170 58 -173 b 157 -159 111 -173 137 -168 b 202 -119 177 -150 192 -137 b 221 -53 212 -101 218 -79 b 226 40 224 -28 226 3 l 226 650 l 68 650 l 68 758 l 353 758 l 353 -18 m 358 880 l 233 1053 l 108 880 l 3 880 l 157 1137 l 311 1137 l 466 880 "},"Ķ":{"ha":962,"x_min":0,"x_max":0,"o":"m 773 0 l 374 450 l 273 342 l 273 0 l 139 0 l 139 1010 l 273 1010 l 273 483 l 764 1010 l 926 1010 l 475 535 l 947 0 m 593 -60 b 531 -229 593 -134 573 -190 b 370 -287 490 -267 436 -287 b 306 -282 354 -287 332 -285 b 236 -269 280 -279 256 -275 l 236 -161 l 242 -161 b 290 -176 254 -165 270 -170 b 353 -185 309 -182 331 -185 b 457 -159 400 -185 435 -176 b 490 -73 479 -141 490 -112 b 488 -28 490 -59 490 -45 b 484 14 487 -12 486 2 l 588 14 b 591 -17 589 5 590 -5 b 593 -60 593 -29 593 -43 "},"ķ":{"ha":822,"x_min":0,"x_max":0,"o":"m 645 0 l 341 332 l 258 253 l 258 0 l 131 0 l 131 1055 l 258 1055 l 258 378 l 627 758 l 787 758 l 435 408 l 813 0 m 507 -60 b 445 -229 507 -134 487 -190 b 284 -287 404 -267 350 -287 b 220 -282 267 -287 246 -285 b 150 -269 194 -279 170 -275 l 150 -161 l 156 -161 b 203 -176 168 -165 184 -170 b 267 -185 223 -182 245 -185 b 371 -159 314 -185 349 -176 b 404 -73 393 -141 404 -112 b 402 -28 404 -59 404 -45 b 398 14 401 -12 399 2 l 502 14 b 505 -17 503 5 504 -5 b 507 -60 507 -29 507 -43 "},"ĸ":{"ha":822,"x_min":0,"x_max":0,"o":"m 645 0 l 341 332 l 258 253 l 258 0 l 131 0 l 131 758 l 258 758 l 258 378 l 627 758 l 787 758 l 435 408 l 813 0 "},"Ĺ":{"ha":773,"x_min":0,"x_max":0,"o":"m 136 0 l 136 1010 l 270 1010 l 270 119 l 774 119 l 774 0 m 251 1136 l 150 1136 l 271 1390 l 436 1390 "},"ĺ":{"ha":381,"x_min":0,"x_max":0,"o":"m 127 0 l 127 1055 l 254 1055 l 254 0 m 217 1136 l 116 1136 l 237 1390 l 402 1390 "},"Ļ":{"ha":773,"x_min":0,"x_max":0,"o":"m 136 0 l 136 1010 l 270 1010 l 270 119 l 774 119 l 774 0 l 581 0 b 584 -28 582 -8 583 -18 b 585 -60 585 -39 585 -50 b 523 -229 585 -134 565 -190 b 362 -287 482 -267 428 -287 b 298 -282 345 -287 324 -285 b 228 -269 271 -279 248 -275 l 228 -161 l 234 -161 b 281 -176 246 -165 262 -170 b 345 -185 301 -182 323 -185 b 449 -159 392 -185 427 -176 b 482 -73 471 -141 482 -112 b 480 -31 482 -59 481 -45 b 477 0 479 -17 478 -7 "},"ļ":{"ha":381,"x_min":0,"x_max":0,"o":"m 127 0 l 127 1055 l 254 1055 l 254 14 l 328 14 b 330 -17 328 5 329 -5 b 332 -60 331 -30 332 -44 b 273 -229 332 -134 312 -190 b 123 -287 233 -267 184 -287 b 64 -283 107 -287 87 -286 b 3 -271 42 -280 21 -276 l 3 -162 l 9 -162 b 52 -177 20 -167 35 -172 b 106 -185 70 -183 88 -185 b 197 -158 148 -185 179 -176 b 225 -73 216 -140 225 -112 b 225 -41 225 -63 225 -53 b 223 0 225 -30 224 -16 "},"Ľ":{"ha":773,"x_min":0,"x_max":0,"o":"m 136 0 l 136 1010 l 270 1010 l 270 119 l 774 119 l 774 0 m 473 713 l 387 713 l 490 1055 l 642 1055 "},"ľ":{"ha":411,"x_min":0,"x_max":0,"o":"m 408 713 l 322 713 l 425 1055 l 578 1055 m 127 0 l 127 1055 l 254 1055 l 254 0 "},"Ŀ":{"ha":773,"x_min":0,"x_max":0,"o":"m 136 0 l 136 1010 l 270 1010 l 270 119 l 774 119 l 774 0 m 511 352 l 511 533 l 669 533 l 669 352 "},"ŀ":{"ha":637,"x_min":0,"x_max":0,"o":"m 127 0 l 127 1055 l 254 1055 l 254 0 m 431 353 l 431 532 l 587 532 l 587 353 "},"Ł":{"ha":780,"x_min":0,"x_max":0,"o":"m 142 0 l 142 363 l 16 260 l 16 370 l 142 471 l 142 1010 l 277 1010 l 277 570 l 513 762 l 513 652 l 277 462 l 277 119 l 781 119 l 781 0 "},"ł":{"ha":395,"x_min":0,"x_max":0,"o":"m 261 505 l 261 0 l 134 0 l 134 412 l 16 317 l 16 425 l 134 518 l 134 1055 l 261 1055 l 261 611 l 384 711 l 384 604 "},"Ń":{"ha":1039,"x_min":0,"x_max":0,"o":"m 740 0 l 261 903 l 261 0 l 136 0 l 136 1010 l 344 1010 l 781 185 l 781 1010 l 906 1010 l 906 0 m 549 1136 l 448 1136 l 570 1390 l 734 1390 "},"ń":{"ha":879,"x_min":0,"x_max":0,"o":"m 631 0 l 631 431 b 625 529 631 466 629 499 b 603 601 621 560 614 584 b 554 643 592 620 575 634 b 471 657 533 653 505 657 b 362 631 437 657 400 649 b 253 566 324 614 288 592 l 253 0 l 125 0 l 125 758 l 253 758 l 253 673 b 376 751 293 706 334 732 b 507 779 419 769 463 779 b 694 705 589 779 651 754 b 759 492 737 655 759 584 l 759 0 m 468 883 l 367 883 l 488 1137 l 653 1137 "},"Ņ":{"ha":1039,"x_min":0,"x_max":0,"o":"m 740 0 l 261 903 l 261 0 l 136 0 l 136 1010 l 344 1010 l 781 185 l 781 1010 l 906 1010 l 906 0 m 595 -60 b 533 -229 595 -134 575 -190 b 372 -287 492 -267 438 -287 b 308 -282 356 -287 334 -285 b 238 -269 282 -279 258 -275 l 238 -161 l 244 -161 b 292 -176 256 -165 272 -170 b 355 -185 312 -182 333 -185 b 459 -159 402 -185 437 -176 b 492 -73 481 -141 492 -112 b 490 -28 492 -59 492 -45 b 486 14 489 -12 488 2 l 590 14 b 593 -17 591 5 592 -5 b 595 -60 595 -29 595 -43 "},"ņ":{"ha":879,"x_min":0,"x_max":0,"o":"m 631 0 l 631 431 b 625 529 631 466 629 499 b 603 601 621 560 614 584 b 554 643 592 620 575 634 b 471 657 533 653 505 657 b 362 631 437 657 400 649 b 253 566 324 614 288 592 l 253 0 l 125 0 l 125 758 l 253 758 l 253 673 b 376 751 293 706 334 732 b 507 779 419 769 463 779 b 694 705 589 779 651 754 b 759 492 737 655 759 584 l 759 0 m 517 -60 b 455 -229 517 -134 497 -190 b 294 -287 414 -267 360 -287 b 230 -282 278 -287 256 -285 b 160 -269 204 -279 180 -275 l 160 -161 l 166 -161 b 214 -176 178 -165 194 -170 b 277 -185 234 -182 255 -185 b 381 -159 324 -185 359 -176 b 414 -73 403 -141 414 -112 b 412 -28 414 -59 414 -45 b 408 14 411 -12 410 2 l 512 14 b 515 -17 513 5 514 -5 b 517 -60 517 -29 517 -43 "},"Ň":{"ha":1039,"x_min":0,"x_max":0,"o":"m 740 0 l 261 903 l 261 0 l 136 0 l 136 1010 l 344 1010 l 781 185 l 781 1010 l 906 1010 l 906 0 m 626 1133 l 472 1133 l 317 1390 l 425 1390 l 551 1216 l 675 1390 l 781 1390 "},"ň":{"ha":879,"x_min":0,"x_max":0,"o":"m 631 0 l 631 431 b 625 529 631 466 629 499 b 603 601 621 560 614 584 b 554 643 592 620 575 634 b 471 657 533 653 505 657 b 362 631 437 657 400 649 b 253 566 324 614 288 592 l 253 0 l 125 0 l 125 758 l 253 758 l 253 673 b 376 751 293 706 334 732 b 507 779 419 769 463 779 b 694 705 589 779 651 754 b 759 492 737 655 759 584 l 759 0 m 535 880 l 381 880 l 227 1137 l 334 1137 l 460 963 l 585 1137 l 690 1137 "},"ŉ":{"ha":1015,"x_min":0,"x_max":0,"o":"m 767 0 l 767 431 b 761 529 767 466 765 499 b 739 601 757 560 749 584 b 690 643 727 620 711 634 b 607 657 668 653 641 657 b 498 631 572 657 536 649 b 389 566 460 614 423 592 l 389 0 l 261 0 l 261 758 l 389 758 l 389 673 b 512 751 428 706 470 732 b 643 779 555 769 598 779 b 830 705 725 779 787 754 b 895 492 873 655 895 584 l 895 0 m 94 676 l 0 676 l 112 1055 l 277 1055 "},"Ŋ":{"ha":1039,"x_min":0,"x_max":0,"o":"m 261 903 l 261 0 l 136 0 l 136 1010 l 344 1010 l 781 250 l 781 1010 l 906 1010 l 906 -16 b 836 -216 906 -102 883 -169 b 644 -287 790 -263 726 -287 b 590 -284 627 -287 609 -286 b 538 -277 572 -282 555 -280 l 538 -163 l 545 -163 b 580 -170 555 -166 567 -168 b 620 -174 593 -172 606 -174 b 744 -137 677 -174 719 -161 b 781 -7 769 -113 781 -69 "},"ŋ":{"ha":879,"x_min":0,"x_max":0,"o":"m 631 431 b 625 529 631 466 629 499 b 603 601 621 560 614 584 b 554 643 592 620 575 634 b 471 657 533 653 505 657 b 362 631 437 657 400 649 b 253 566 324 614 288 592 l 253 0 l 125 0 l 125 758 l 253 758 l 253 673 b 376 751 293 706 334 732 b 507 779 419 769 463 779 b 694 705 589 779 651 754 b 759 492 737 655 759 584 l 759 -19 b 690 -218 759 -105 736 -172 b 498 -287 644 -264 580 -287 b 446 -284 481 -287 463 -286 b 393 -278 428 -283 411 -281 l 393 -164 l 401 -164 b 436 -171 411 -166 422 -169 b 474 -174 450 -173 462 -174 b 558 -161 508 -174 537 -170 b 607 -123 580 -153 597 -140 b 627 -61 617 -106 623 -85 b 631 33 630 -37 631 -6 "},"Ō":{"ha":1093,"x_min":0,"x_max":0,"o":"m 888 894 b 983 728 930 849 961 793 b 1016 505 1005 662 1016 588 b 982 281 1016 421 1005 347 b 888 117 960 215 929 160 b 741 14 847 71 798 37 b 547 -21 684 -9 619 -21 b 353 14 476 -21 411 -9 b 205 117 295 38 245 72 b 111 281 164 161 133 216 b 78 505 89 347 78 421 b 111 726 78 587 89 661 b 205 894 132 791 164 847 b 354 996 245 938 295 972 b 547 1031 413 1019 477 1031 b 742 995 619 1031 684 1019 b 888 894 799 971 848 938 m 876 505 b 788 808 876 636 847 737 b 547 915 729 879 649 915 b 306 808 445 915 364 879 b 218 505 247 737 218 636 b 307 200 218 372 248 271 b 547 95 367 130 447 95 b 787 200 648 95 728 130 b 876 505 846 271 876 372 m 295 1158 l 295 1263 l 798 1263 l 798 1158 "},"ō":{"ha":843,"x_min":0,"x_max":0,"o":"m 771 378 b 676 86 771 255 739 158 b 422 -21 613 15 528 -21 b 166 86 315 -21 230 15 b 72 378 103 158 72 255 b 166 671 72 502 103 599 b 422 779 230 743 315 779 b 676 671 528 779 613 743 b 771 378 739 599 771 502 m 640 378 b 582 597 640 477 620 549 b 422 669 543 645 490 669 b 261 597 353 669 299 645 b 203 378 223 549 203 477 b 261 162 203 283 223 211 b 422 89 300 113 353 89 b 582 162 490 89 543 113 b 640 378 620 210 640 283 m 170 905 l 170 1010 l 673 1010 l 673 905 "},"Ŏ":{"ha":1093,"x_min":0,"x_max":0,"o":"m 888 894 b 983 728 930 849 961 793 b 1016 505 1005 662 1016 588 b 982 281 1016 421 1005 347 b 888 117 960 215 929 160 b 741 14 847 71 798 37 b 547 -21 684 -9 619 -21 b 353 14 476 -21 411 -9 b 205 117 295 38 245 72 b 111 281 164 161 133 216 b 78 505 89 347 78 421 b 111 726 78 587 89 661 b 205 894 132 791 164 847 b 354 996 245 938 295 972 b 547 1031 413 1019 477 1031 b 742 995 619 1031 684 1019 b 888 894 799 971 848 938 m 876 505 b 788 808 876 636 847 737 b 547 915 729 879 649 915 b 306 808 445 915 364 879 b 218 505 247 737 218 636 b 307 200 218 372 248 271 b 547 95 367 130 447 95 b 787 200 648 95 728 130 b 876 505 846 271 876 372 m 802 1390 b 728 1203 797 1314 773 1251 b 547 1131 683 1155 623 1131 b 365 1203 470 1131 410 1155 b 292 1390 321 1251 296 1314 l 405 1390 b 449 1259 410 1330 425 1286 b 547 1219 473 1232 506 1219 b 644 1259 588 1219 620 1232 b 690 1390 668 1286 683 1330 l 802 1390 "},"ŏ":{"ha":843,"x_min":0,"x_max":0,"o":"m 771 378 b 676 86 771 255 739 158 b 422 -21 613 15 528 -21 b 166 86 315 -21 230 15 b 72 378 103 158 72 255 b 166 671 72 502 103 599 b 422 779 230 743 315 779 b 676 671 528 779 613 743 b 771 378 739 599 771 502 m 640 378 b 582 597 640 477 620 549 b 422 669 543 645 490 669 b 261 597 353 669 299 645 b 203 378 223 549 203 477 b 261 162 203 283 223 211 b 422 89 300 113 353 89 b 582 162 490 89 543 113 b 640 378 620 210 640 283 m 677 1137 b 603 950 672 1061 648 998 b 422 878 559 902 498 878 b 240 950 345 878 285 902 b 168 1137 196 998 172 1061 l 280 1137 b 325 1006 286 1077 300 1034 b 422 966 349 979 381 966 b 519 1006 463 966 495 979 b 565 1137 543 1034 559 1077 l 677 1137 "},"Ő":{"ha":1093,"x_min":0,"x_max":0,"o":"m 888 894 b 983 728 930 849 961 793 b 1016 505 1005 662 1016 588 b 982 281 1016 421 1005 347 b 888 117 960 215 929 160 b 741 14 847 71 798 37 b 547 -21 684 -9 619 -21 b 353 14 476 -21 411 -9 b 205 117 295 38 245 72 b 111 281 164 161 133 216 b 78 505 89 347 78 421 b 111 726 78 587 89 661 b 205 894 132 791 164 847 b 354 996 245 938 295 972 b 547 1031 413 1019 477 1031 b 742 995 619 1031 684 1019 b 888 894 799 971 848 938 m 876 505 b 788 808 876 636 847 737 b 547 915 729 879 649 915 b 306 808 445 915 364 879 b 218 505 247 737 218 636 b 307 200 218 372 248 271 b 547 95 367 130 447 95 b 787 200 648 95 728 130 b 876 505 846 271 876 372 m 695 1136 l 601 1136 l 715 1390 l 870 1390 m 421 1136 l 327 1136 l 441 1390 l 596 1390 "},"ő":{"ha":843,"x_min":0,"x_max":0,"o":"m 771 378 b 676 86 771 255 739 158 b 422 -21 613 15 528 -21 b 166 86 315 -21 230 15 b 72 378 103 158 72 255 b 166 671 72 502 103 599 b 422 779 230 743 315 779 b 676 671 528 779 613 743 b 771 378 739 599 771 502 m 640 378 b 582 597 640 477 620 549 b 422 669 543 645 490 669 b 261 597 353 669 299 645 b 203 378 223 549 203 477 b 261 162 203 283 223 211 b 422 89 300 113 353 89 b 582 162 490 89 543 113 b 640 378 620 210 640 283 m 573 883 l 479 883 l 593 1137 l 748 1137 m 299 883 l 205 883 l 319 1137 l 474 1137 "},"Œ":{"ha":1486,"x_min":0,"x_max":0,"o":"m 680 0 b 459 18 591 0 517 6 b 301 81 400 31 348 51 b 142 253 236 122 183 179 b 81 504 102 327 81 410 b 140 757 81 601 101 685 b 302 929 180 828 234 886 b 440 987 338 952 384 971 b 682 1010 497 1002 577 1010 l 1408 1010 l 1408 890 l 890 890 l 890 614 l 1408 614 l 1408 494 l 890 494 l 890 119 l 1408 119 l 1408 0 m 757 893 l 674 893 b 514 882 608 893 555 890 b 388 835 473 875 431 859 b 266 706 335 805 295 762 b 222 506 236 650 222 583 b 260 309 222 429 235 363 b 372 182 286 255 323 213 b 505 130 413 157 458 139 b 674 117 552 121 608 117 l 757 117 "},"œ":{"ha":1363,"x_min":0,"x_max":0,"o":"m 750 366 b 770 243 750 319 757 278 b 826 159 784 209 802 181 b 909 110 850 137 877 120 b 1013 94 941 99 975 94 b 1156 120 1062 94 1110 103 b 1273 185 1202 138 1241 160 l 1281 185 l 1281 46 b 1150 0 1237 27 1193 12 b 1014 -18 1107 -12 1061 -18 b 821 24 938 -18 874 -4 b 692 136 769 51 726 89 b 575 20 661 85 622 47 b 415 -21 528 -7 474 -21 b 164 86 310 -21 226 15 b 72 378 103 158 72 255 b 166 672 72 504 103 602 b 415 779 230 743 312 779 b 578 738 478 779 533 765 b 692 619 623 710 661 671 b 813 735 724 667 764 706 b 983 779 861 764 918 779 b 1215 688 1084 779 1162 748 b 1295 435 1269 627 1295 543 l 1295 366 m 1171 463 b 1120 621 1170 533 1153 586 b 975 673 1087 656 1039 673 b 822 618 912 673 861 655 b 751 463 782 581 759 529 l 1171 463 m 627 378 b 571 596 627 476 608 548 b 416 669 534 645 482 669 b 258 593 347 669 294 643 b 203 378 222 542 203 471 b 260 162 203 283 222 210 b 416 89 298 113 350 89 b 571 161 482 89 533 113 b 627 378 608 209 627 282 "},"Ŕ":{"ha":966,"x_min":0,"x_max":0,"o":"m 797 0 l 459 401 l 270 401 l 270 0 l 136 0 l 136 1010 l 418 1010 b 571 998 479 1010 530 1006 b 681 956 612 990 648 976 b 767 868 718 932 746 903 b 798 735 787 833 798 789 b 743 552 798 662 779 601 b 591 441 706 503 656 466 l 971 0 m 657 726 b 642 803 657 755 652 780 b 591 859 632 825 615 844 b 522 887 572 872 549 882 b 428 895 496 892 464 895 l 270 895 l 270 513 l 406 513 b 517 525 448 513 485 517 b 597 566 548 532 575 546 b 643 632 618 585 633 607 b 657 726 652 656 657 688 m 461 1136 l 360 1136 l 481 1390 l 646 1390 "},"ŕ":{"ha":593,"x_min":0,"x_max":0,"o":"m 591 618 b 536 628 572 623 554 626 b 473 631 518 630 497 631 b 359 605 433 631 395 623 b 253 538 322 588 287 565 l 253 0 l 125 0 l 125 758 l 253 758 l 253 646 b 387 732 304 686 348 715 b 505 758 426 749 465 758 b 553 756 527 758 543 757 b 598 749 563 755 578 753 l 598 618 m 332 883 l 231 883 l 353 1137 l 517 1137 "},"Ŗ":{"ha":966,"x_min":0,"x_max":0,"o":"m 797 0 l 459 401 l 270 401 l 270 0 l 136 0 l 136 1010 l 418 1010 b 571 998 479 1010 530 1006 b 681 956 612 990 648 976 b 767 868 718 932 746 903 b 798 735 787 833 798 789 b 743 552 798 662 779 601 b 591 441 706 503 656 466 l 971 0 m 657 726 b 642 803 657 755 652 780 b 591 859 632 825 615 844 b 522 887 572 872 549 882 b 428 895 496 892 464 895 l 270 895 l 270 513 l 406 513 b 517 525 448 513 485 517 b 597 566 548 532 575 546 b 643 632 618 585 633 607 b 657 726 652 656 657 688 m 590 -60 b 528 -229 590 -134 569 -190 b 367 -287 487 -267 433 -287 b 302 -282 350 -287 329 -285 b 233 -269 276 -279 253 -275 l 233 -161 l 239 -161 b 286 -176 250 -165 266 -170 b 350 -185 306 -182 327 -185 b 454 -159 397 -185 432 -176 b 487 -73 476 -141 487 -112 b 485 -28 487 -59 486 -45 b 481 14 484 -12 482 2 l 585 14 b 588 -17 585 5 587 -5 b 590 -60 589 -29 590 -43 "},"ŗ":{"ha":593,"x_min":0,"x_max":0,"o":"m 67 -177 b 121 -185 85 -183 103 -185 b 212 -158 163 -185 194 -176 b 240 -73 231 -140 240 -112 b 240 -41 240 -63 240 -53 b 238 0 240 -30 239 -16 l 125 0 l 125 758 l 253 758 l 253 646 b 387 732 304 686 348 715 b 505 758 426 749 465 758 b 553 756 527 758 543 757 b 598 749 563 755 578 753 l 598 618 l 591 618 b 536 628 572 623 554 626 b 473 631 518 630 497 631 b 359 605 433 631 395 623 b 253 538 322 588 287 565 l 253 14 l 342 14 b 345 -17 343 5 344 -5 b 347 -60 346 -30 347 -44 b 288 -229 347 -134 327 -190 b 138 -287 248 -267 198 -287 b 79 -283 122 -287 102 -286 b 18 -271 57 -280 36 -276 l 18 -162 l 24 -162 b 67 -177 35 -167 50 -172 "},"Ř":{"ha":966,"x_min":0,"x_max":0,"o":"m 797 0 l 459 401 l 270 401 l 270 0 l 136 0 l 136 1010 l 418 1010 b 571 998 479 1010 530 1006 b 681 956 612 990 648 976 b 767 868 718 932 746 903 b 798 735 787 833 798 789 b 743 552 798 662 779 601 b 591 441 706 503 656 466 l 971 0 m 657 726 b 642 803 657 755 652 780 b 591 859 632 825 615 844 b 522 887 572 872 549 882 b 428 895 496 892 464 895 l 270 895 l 270 513 l 406 513 b 517 525 448 513 485 517 b 597 566 548 532 575 546 b 643 632 618 585 633 607 b 657 726 652 656 657 688 m 523 1133 l 369 1133 l 214 1390 l 322 1390 l 448 1216 l 572 1390 l 677 1390 "},"ř":{"ha":593,"x_min":0,"x_max":0,"o":"m 591 618 b 536 628 572 623 554 626 b 473 631 518 630 497 631 b 359 605 433 631 395 623 b 253 538 322 588 287 565 l 253 0 l 125 0 l 125 758 l 253 758 l 253 646 b 387 732 304 686 348 715 b 505 758 426 749 465 758 b 553 756 527 758 543 757 b 598 749 563 755 578 753 l 598 618 m 408 880 l 254 880 l 99 1137 l 207 1137 l 332 963 l 457 1137 l 562 1137 "},"Ś":{"ha":949,"x_min":0,"x_max":0,"o":"m 869 288 b 842 172 869 249 860 210 b 765 74 824 133 798 101 b 638 6 729 45 687 22 b 465 -18 590 -10 532 -18 b 268 2 392 -18 326 -12 b 91 62 210 16 151 36 l 91 231 l 100 231 b 277 132 151 188 210 155 b 466 98 344 109 407 98 b 660 144 549 98 614 113 b 730 269 707 176 730 217 b 697 368 730 314 719 347 b 597 418 675 389 642 406 b 487 440 563 427 526 434 b 361 463 447 446 405 453 b 162 560 271 481 205 514 b 97 739 119 606 97 666 b 204 947 97 824 133 893 b 476 1028 276 1001 366 1028 b 671 1008 547 1028 612 1021 b 829 958 731 994 783 977 l 829 799 l 819 799 b 668 880 781 831 730 858 b 475 912 605 901 541 912 b 302 867 404 912 346 897 b 237 752 258 838 237 799 b 269 653 237 710 248 677 b 384 598 291 629 329 611 b 507 575 413 592 454 584 b 643 547 561 566 606 557 b 812 457 718 527 774 497 b 869 288 850 417 869 361 m 481 1136 l 380 1136 l 502 1390 l 667 1390 "},"ś":{"ha":724,"x_min":0,"x_max":0,"o":"m 667 218 b 581 48 667 149 638 92 b 347 -18 524 4 446 -18 b 192 2 290 -18 239 -12 b 75 45 145 15 106 30 l 75 189 l 81 189 b 216 116 122 158 166 134 b 357 90 265 98 312 90 b 489 117 413 90 457 99 b 536 202 521 135 536 163 b 511 270 536 232 528 255 b 412 309 493 285 460 298 b 341 323 394 313 370 318 b 261 341 312 329 285 335 b 120 419 195 359 148 385 b 78 545 92 453 78 495 b 97 633 78 576 84 605 b 156 707 110 660 130 685 b 253 757 181 728 214 745 b 384 776 292 770 335 776 b 521 759 429 776 475 770 b 637 719 568 748 606 735 l 637 583 l 630 583 b 511 643 597 607 558 627 b 374 668 465 660 419 668 b 256 641 328 668 288 659 b 208 562 224 623 208 597 b 237 491 208 530 218 507 b 330 452 256 475 287 462 b 409 436 353 447 379 441 b 481 421 438 431 462 426 b 618 351 541 408 586 384 b 667 218 651 318 667 274 m 395 883 l 294 883 l 415 1137 l 580 1137 "},"Ŝ":{"ha":949,"x_min":0,"x_max":0,"o":"m 869 288 b 842 172 869 249 860 210 b 765 74 824 133 798 101 b 638 6 729 45 687 22 b 465 -18 590 -10 532 -18 b 268 2 392 -18 326 -12 b 91 62 210 16 151 36 l 91 231 l 100 231 b 277 132 151 188 210 155 b 466 98 344 109 407 98 b 660 144 549 98 614 113 b 730 269 707 176 730 217 b 697 368 730 314 719 347 b 597 418 675 389 642 406 b 487 440 563 427 526 434 b 361 463 447 446 405 453 b 162 560 271 481 205 514 b 97 739 119 606 97 666 b 204 947 97 824 133 893 b 476 1028 276 1001 366 1028 b 671 1008 547 1028 612 1021 b 829 958 731 994 783 977 l 829 799 l 819 799 b 668 880 781 831 730 858 b 475 912 605 901 541 912 b 302 867 404 912 346 897 b 237 752 258 838 237 799 b 269 653 237 710 248 677 b 384 598 291 629 329 611 b 507 575 413 592 454 584 b 643 547 561 566 606 557 b 812 457 718 527 774 497 b 869 288 850 417 869 361 m 616 1133 l 490 1306 l 366 1133 l 260 1133 l 415 1390 l 569 1390 l 724 1133 "},"ŝ":{"ha":724,"x_min":0,"x_max":0,"o":"m 667 218 b 581 48 667 149 638 92 b 347 -18 524 4 446 -18 b 192 2 290 -18 239 -12 b 75 45 145 15 106 30 l 75 189 l 81 189 b 216 116 122 158 166 134 b 357 90 265 98 312 90 b 489 117 413 90 457 99 b 536 202 521 135 536 163 b 511 270 536 232 528 255 b 412 309 493 285 460 298 b 341 323 394 313 370 318 b 261 341 312 329 285 335 b 120 419 195 359 148 385 b 78 545 92 453 78 495 b 97 633 78 576 84 605 b 156 707 110 660 130 685 b 253 757 181 728 214 745 b 384 776 292 770 335 776 b 521 759 429 776 475 770 b 637 719 568 748 606 735 l 637 583 l 630 583 b 511 643 597 607 558 627 b 374 668 465 660 419 668 b 256 641 328 668 288 659 b 208 562 224 623 208 597 b 237 491 208 530 218 507 b 330 452 256 475 287 462 b 409 436 353 447 379 441 b 481 421 438 431 462 426 b 618 351 541 408 586 384 b 667 218 651 318 667 274 m 511 880 l 385 1053 l 260 880 l 155 880 l 310 1137 l 464 1137 l 618 880 "},"Ş":{"ha":949,"x_min":0,"x_max":0,"o":"m 869 288 b 842 172 869 249 860 210 b 765 74 824 133 798 101 b 700 32 745 58 723 44 b 623 1 676 19 651 9 b 626 -28 624 -9 625 -19 b 627 -60 626 -38 627 -49 b 566 -227 627 -131 606 -187 b 401 -287 525 -267 470 -287 b 336 -282 384 -287 363 -285 b 267 -269 310 -279 287 -275 l 267 -159 l 273 -159 b 318 -176 284 -164 300 -169 b 384 -185 337 -182 359 -185 b 488 -159 431 -185 465 -176 b 521 -73 510 -141 521 -112 b 520 -42 521 -62 520 -52 b 517 -16 519 -33 518 -24 l 491 -18 b 465 -18 483 -18 474 -18 b 268 2 392 -18 326 -12 b 91 62 210 16 151 36 l 91 231 l 100 231 b 277 132 151 188 210 155 b 466 98 344 109 407 98 b 660 144 549 98 614 113 b 730 269 707 176 730 217 b 697 368 730 314 719 347 b 597 418 675 389 642 406 b 487 440 563 427 526 434 b 361 463 447 446 405 453 b 162 560 271 481 205 514 b 97 739 119 606 97 666 b 204 947 97 824 133 893 b 476 1028 276 1001 366 1028 b 671 1008 547 1028 612 1021 b 829 958 731 994 783 977 l 829 799 l 819 799 b 668 880 781 831 730 858 b 475 912 605 901 541 912 b 302 867 404 912 346 897 b 237 752 258 838 237 799 b 269 653 237 710 248 677 b 384 598 291 629 329 611 b 507 575 413 592 454 584 b 643 547 561 566 606 557 b 812 457 718 527 774 497 b 869 288 850 417 869 361 "},"ş":{"ha":724,"x_min":0,"x_max":0,"o":"m 667 218 b 624 91 667 170 652 127 b 505 7 595 54 555 26 b 508 -24 506 -2 507 -12 b 510 -60 509 -37 510 -49 b 448 -229 510 -134 489 -190 b 287 -287 407 -267 353 -287 b 222 -282 270 -287 249 -285 b 153 -269 196 -279 173 -275 l 153 -161 l 159 -161 b 206 -176 170 -165 186 -170 b 270 -185 226 -182 247 -185 b 374 -159 317 -185 352 -176 b 407 -73 396 -141 407 -112 b 406 -41 407 -62 407 -51 b 404 -16 405 -31 404 -22 b 376 -18 394 -17 385 -17 b 347 -18 367 -18 357 -18 b 192 2 290 -18 239 -12 b 75 45 145 15 106 30 l 75 189 l 81 189 b 216 116 122 158 166 134 b 357 90 265 98 312 90 b 489 117 413 90 457 99 b 536 202 521 135 536 163 b 511 270 536 232 528 255 b 412 309 493 285 460 298 b 341 323 394 313 370 318 b 261 341 312 329 285 335 b 120 419 195 359 148 385 b 78 545 92 453 78 495 b 97 633 78 576 84 605 b 156 707 110 660 130 685 b 253 757 181 728 214 745 b 384 776 292 770 335 776 b 521 759 429 776 475 770 b 637 719 568 748 606 735 l 637 583 l 630 583 b 511 643 597 607 558 627 b 374 668 465 660 419 668 b 256 641 328 668 288 659 b 208 562 224 623 208 597 b 237 491 208 530 218 507 b 330 452 256 475 287 462 b 409 436 353 447 379 441 b 481 421 438 431 462 426 b 618 351 541 408 586 384 b 667 218 651 318 667 274 "},"Š":{"ha":949,"x_min":0,"x_max":0,"o":"m 869 288 b 842 172 869 249 860 210 b 765 74 824 133 798 101 b 638 6 729 45 687 22 b 465 -18 590 -10 532 -18 b 268 2 392 -18 326 -12 b 91 62 210 16 151 36 l 91 231 l 100 231 b 277 132 151 188 210 155 b 466 98 344 109 407 98 b 660 144 549 98 614 113 b 730 269 707 176 730 217 b 697 368 730 314 719 347 b 597 418 675 389 642 406 b 487 440 563 427 526 434 b 361 463 447 446 405 453 b 162 560 271 481 205 514 b 97 739 119 606 97 666 b 204 947 97 824 133 893 b 476 1028 276 1001 366 1028 b 671 1008 547 1028 612 1021 b 829 958 731 994 783 977 l 829 799 l 819 799 b 668 880 781 831 730 858 b 475 912 605 901 541 912 b 302 867 404 912 346 897 b 237 752 258 838 237 799 b 269 653 237 710 248 677 b 384 598 291 629 329 611 b 507 575 413 592 454 584 b 643 547 561 566 606 557 b 812 457 718 527 774 497 b 869 288 850 417 869 361 m 568 1133 l 414 1133 l 260 1390 l 368 1390 l 493 1216 l 618 1390 l 723 1390 "},"š":{"ha":724,"x_min":0,"x_max":0,"o":"m 667 218 b 581 48 667 149 638 92 b 347 -18 524 4 446 -18 b 192 2 290 -18 239 -12 b 75 45 145 15 106 30 l 75 189 l 81 189 b 216 116 122 158 166 134 b 357 90 265 98 312 90 b 489 117 413 90 457 99 b 536 202 521 135 536 163 b 511 270 536 232 528 255 b 412 309 493 285 460 298 b 341 323 394 313 370 318 b 261 341 312 329 285 335 b 120 419 195 359 148 385 b 78 545 92 453 78 495 b 97 633 78 576 84 605 b 156 707 110 660 130 685 b 253 757 181 728 214 745 b 384 776 292 770 335 776 b 521 759 429 776 475 770 b 637 719 568 748 606 735 l 637 583 l 630 583 b 511 643 597 607 558 627 b 374 668 465 660 419 668 b 256 641 328 668 288 659 b 208 562 224 623 208 597 b 237 491 208 530 218 507 b 330 452 256 475 287 462 b 409 436 353 447 379 441 b 481 421 438 431 462 426 b 618 351 541 408 586 384 b 667 218 651 318 667 274 m 460 880 l 307 880 l 152 1137 l 260 1137 l 385 963 l 510 1137 l 615 1137 "},"Ţ":{"ha":856,"x_min":0,"x_max":0,"o":"m 495 890 l 495 25 b 500 -13 496 16 498 3 b 503 -60 502 -29 503 -45 b 441 -229 503 -134 483 -190 b 280 -287 400 -267 346 -287 b 216 -282 263 -287 242 -285 b 146 -269 189 -279 166 -275 l 146 -161 l 152 -161 b 199 -176 164 -165 179 -170 b 263 -185 219 -182 241 -185 b 367 -159 310 -185 345 -176 b 400 -73 389 -141 400 -112 b 398 -34 400 -59 400 -46 b 395 0 397 -22 396 -10 l 361 0 l 361 890 l 0 890 l 0 1010 l 856 1010 l 856 890 "},"ţ":{"ha":547,"x_min":0,"x_max":0,"o":"m 501 2 b 481 -2 495 1 488 -1 b 484 -29 482 -10 483 -19 b 485 -60 484 -39 485 -50 b 423 -229 485 -134 464 -190 b 262 -287 381 -267 328 -287 b 197 -282 245 -287 224 -285 b 127 -269 171 -279 148 -275 l 127 -161 l 134 -161 b 181 -176 145 -165 161 -170 b 245 -185 201 -182 222 -185 b 349 -159 292 -185 326 -176 b 382 -73 371 -141 382 -112 b 381 -41 382 -62 381 -52 b 378 -14 380 -30 379 -21 l 365 -14 b 189 48 288 -14 229 6 b 128 248 148 89 128 156 l 128 650 l 42 650 l 42 758 l 128 758 l 128 975 l 256 975 l 256 758 l 519 758 l 519 650 l 256 650 l 256 305 b 258 212 256 265 257 234 b 277 149 260 190 267 169 b 318 110 287 131 301 118 b 398 97 336 101 362 97 b 463 106 419 97 441 100 b 512 121 486 112 502 117 l 519 121 l 519 7 "},"Ť":{"ha":856,"x_min":0,"x_max":0,"o":"m 495 890 l 495 0 l 361 0 l 361 890 l 0 890 l 0 1010 l 856 1010 l 856 890 m 504 1133 l 350 1133 l 195 1390 l 303 1390 l 429 1216 l 553 1390 l 659 1390 "},"ť":{"ha":547,"x_min":0,"x_max":0,"o":"m 519 7 b 440 -9 495 0 469 -5 b 365 -15 412 -13 387 -15 b 189 47 288 -15 229 6 b 128 248 148 89 128 156 l 128 650 l 42 650 l 42 758 l 128 758 l 128 975 l 256 975 l 256 758 l 519 758 l 519 650 l 256 650 l 256 305 b 258 212 256 265 257 234 b 277 149 260 190 267 169 b 318 110 287 131 301 118 b 398 97 336 101 362 97 b 463 106 419 97 441 100 b 512 121 486 112 502 117 l 519 121 l 519 7 m 434 883 l 348 883 l 451 1219 l 604 1219 "},"Ŧ":{"ha":856,"x_min":0,"x_max":0,"o":"m 136 502 l 136 599 l 361 599 l 361 890 l 0 890 l 0 1010 l 856 1010 l 856 890 l 495 890 l 495 599 l 720 599 l 720 502 l 495 502 l 495 0 l 361 0 l 361 502 "},"ŧ":{"ha":547,"x_min":0,"x_max":0,"o":"m 519 7 b 440 -9 495 0 469 -5 b 365 -15 412 -13 387 -15 b 189 47 288 -15 229 6 b 128 248 148 89 128 156 l 128 361 l 42 361 l 42 452 l 128 452 l 128 650 l 42 650 l 42 758 l 128 758 l 128 975 l 256 975 l 256 758 l 519 758 l 519 650 l 256 650 l 256 452 l 460 452 l 460 361 l 256 361 l 256 305 b 258 212 256 265 257 234 b 277 149 260 190 267 169 b 318 110 287 131 301 118 b 398 97 336 101 362 97 b 463 106 419 97 441 100 b 512 121 486 112 502 117 l 519 121 l 519 7 "},"Ũ":{"ha":1017,"x_min":0,"x_max":0,"o":"m 896 406 b 872 214 896 332 888 268 b 793 78 856 159 829 114 b 671 3 758 44 717 19 b 508 -21 624 -13 570 -21 b 342 4 445 -21 389 -13 b 224 78 295 21 256 45 b 145 212 187 115 161 160 b 121 406 129 265 121 329 l 121 1010 l 255 1010 l 255 399 b 266 269 255 344 259 301 b 304 183 274 238 286 209 b 385 117 324 154 351 132 b 508 94 419 102 460 94 b 631 116 556 94 597 102 b 713 183 665 131 692 153 b 750 272 730 209 743 238 b 762 395 758 305 762 346 l 762 1010 l 896 1010 l 896 406 m 790 1351 b 738 1196 785 1282 768 1230 b 618 1143 708 1161 668 1143 b 550 1157 593 1143 571 1148 b 491 1195 529 1165 510 1178 b 437 1239 470 1214 452 1229 b 389 1253 422 1248 406 1253 b 336 1223 365 1253 347 1243 b 315 1141 324 1202 317 1175 l 227 1141 b 280 1295 230 1209 248 1260 b 398 1348 312 1330 352 1348 b 464 1334 421 1348 443 1343 b 524 1297 485 1325 505 1313 b 580 1255 545 1278 564 1264 b 627 1241 597 1246 612 1241 b 681 1272 650 1241 668 1251 b 703 1351 694 1293 701 1319 l 790 1351 "},"ũ":{"ha":879,"x_min":0,"x_max":0,"o":"m 626 0 l 626 84 b 503 6 583 50 542 24 b 372 -21 463 -12 420 -21 b 186 52 293 -21 231 3 b 120 266 142 100 120 172 l 120 758 l 248 758 l 248 326 b 253 228 248 288 249 255 b 276 157 257 200 264 177 b 323 114 288 137 304 123 b 408 100 343 105 371 100 b 516 126 441 100 477 109 b 626 192 556 143 592 165 l 626 758 l 753 758 l 753 0 m 728 1098 b 676 943 723 1029 706 977 b 556 890 646 908 606 890 b 488 904 532 890 509 895 b 429 942 467 912 448 925 b 375 986 408 961 390 976 b 327 1000 361 995 345 1000 b 274 970 303 1000 286 990 b 254 888 262 949 255 922 l 165 888 b 218 1042 168 956 186 1008 b 336 1095 250 1077 290 1095 b 402 1081 359 1095 381 1090 b 462 1044 423 1073 443 1060 b 518 1002 483 1025 502 1011 b 566 988 535 993 551 988 b 620 1019 589 988 607 998 b 641 1098 632 1040 640 1066 l 728 1098 "},"Ū":{"ha":1017,"x_min":0,"x_max":0,"o":"m 896 406 b 872 214 896 332 888 268 b 793 78 856 159 829 114 b 671 3 758 44 717 19 b 508 -21 624 -13 570 -21 b 342 4 445 -21 389 -13 b 224 78 295 21 256 45 b 145 212 187 115 161 160 b 121 406 129 265 121 329 l 121 1010 l 255 1010 l 255 399 b 266 269 255 344 259 301 b 304 183 274 238 286 209 b 385 117 324 154 351 132 b 508 94 419 102 460 94 b 631 116 556 94 597 102 b 713 183 665 131 692 153 b 750 272 730 209 743 238 b 762 395 758 305 762 346 l 762 1010 l 896 1010 l 896 406 m 257 1158 l 257 1263 l 760 1263 l 760 1158 "},"ū":{"ha":879,"x_min":0,"x_max":0,"o":"m 626 0 l 626 84 b 503 6 583 50 542 24 b 372 -21 463 -12 420 -21 b 186 52 293 -21 231 3 b 120 266 142 100 120 172 l 120 758 l 248 758 l 248 326 b 253 228 248 288 249 255 b 276 157 257 200 264 177 b 323 114 288 137 304 123 b 408 100 343 105 371 100 b 516 126 441 100 477 109 b 626 192 556 143 592 165 l 626 758 l 753 758 l 753 0 m 191 905 l 191 1010 l 694 1010 l 694 905 "},"Ŭ":{"ha":1017,"x_min":0,"x_max":0,"o":"m 896 406 b 872 214 896 332 888 268 b 793 78 856 159 829 114 b 671 3 758 44 717 19 b 508 -21 624 -13 570 -21 b 342 4 445 -21 389 -13 b 224 78 295 21 256 45 b 145 212 187 115 161 160 b 121 406 129 265 121 329 l 121 1010 l 255 1010 l 255 399 b 266 269 255 344 259 301 b 304 183 274 238 286 209 b 385 117 324 154 351 132 b 508 94 419 102 460 94 b 631 116 556 94 597 102 b 713 183 665 131 692 153 b 750 272 730 209 743 238 b 762 395 758 305 762 346 l 762 1010 l 896 1010 l 896 406 m 763 1390 b 689 1203 758 1314 734 1251 b 508 1131 645 1155 584 1131 b 327 1203 432 1131 371 1155 b 254 1390 282 1251 258 1314 l 366 1390 b 411 1259 372 1330 386 1286 b 509 1219 435 1232 467 1219 b 605 1259 549 1219 581 1232 b 651 1390 629 1286 645 1330 l 763 1390 "},"ŭ":{"ha":876,"x_min":0,"x_max":0,"o":"m 626 0 l 626 84 b 503 6 583 50 542 24 b 372 -21 463 -12 420 -21 b 186 52 293 -21 231 3 b 120 266 142 100 120 172 l 120 758 l 248 758 l 248 326 b 253 228 248 288 249 255 b 276 157 257 200 264 177 b 323 114 288 137 304 123 b 408 100 343 105 371 100 b 516 126 441 100 477 109 b 626 192 556 143 592 165 l 626 758 l 753 758 l 753 0 m 696 1137 b 623 950 692 1061 667 998 b 441 878 578 902 518 878 b 260 950 365 878 305 902 b 187 1137 216 998 191 1061 l 300 1137 b 344 1006 305 1077 320 1034 b 442 966 368 979 401 966 b 539 1006 482 966 515 979 b 585 1137 563 1034 578 1077 l 696 1137 "},"Ů":{"ha":1017,"x_min":0,"x_max":0,"o":"m 896 406 b 872 214 896 332 888 268 b 793 78 856 159 829 114 b 671 3 758 44 717 19 b 508 -21 624 -13 570 -21 b 342 4 445 -21 389 -13 b 224 78 295 21 256 45 b 145 212 187 115 161 160 b 121 406 129 265 121 329 l 121 1010 l 255 1010 l 255 399 b 266 269 255 344 259 301 b 304 183 274 238 286 209 b 385 117 324 154 351 132 b 508 94 419 102 460 94 b 631 116 556 94 597 102 b 713 183 665 131 692 153 b 750 272 730 209 743 238 b 762 395 758 305 762 346 l 762 1010 l 896 1010 l 896 406 m 746 1160 b 677 996 746 1095 723 1040 b 509 928 631 951 575 928 b 341 995 444 928 388 951 b 271 1160 295 1040 271 1095 b 340 1323 271 1224 294 1279 b 509 1390 387 1367 443 1390 b 677 1323 575 1390 631 1367 b 746 1160 723 1279 746 1224 m 648 1160 b 608 1258 648 1199 634 1231 b 509 1299 582 1285 548 1299 b 409 1259 469 1299 436 1285 b 370 1160 383 1232 370 1199 b 410 1061 370 1120 383 1087 b 509 1021 436 1034 469 1021 b 608 1061 548 1021 582 1034 b 648 1160 634 1087 648 1120 "},"ů":{"ha":879,"x_min":0,"x_max":0,"o":"m 626 0 l 626 84 b 503 6 583 50 542 24 b 372 -21 463 -12 420 -21 b 186 52 293 -21 231 3 b 120 266 142 100 120 172 l 120 758 l 248 758 l 248 326 b 253 228 248 288 249 255 b 276 157 257 200 264 177 b 323 114 288 137 304 123 b 408 100 343 105 371 100 b 516 126 441 100 477 109 b 626 192 556 143 592 165 l 626 758 l 753 758 l 753 0 m 679 1105 b 610 941 679 1041 656 986 b 441 874 564 897 507 874 b 274 941 376 874 321 896 b 204 1105 227 985 204 1040 b 273 1269 204 1170 227 1225 b 441 1335 319 1313 375 1335 b 610 1269 508 1335 564 1313 b 679 1105 656 1225 679 1170 m 581 1105 b 541 1204 581 1144 567 1177 b 441 1244 514 1231 481 1244 b 342 1204 402 1244 369 1231 b 302 1105 316 1178 302 1145 b 342 1006 302 1066 316 1033 b 441 966 369 980 402 966 b 541 1006 481 966 514 980 b 581 1105 567 1033 581 1066 "},"Ű":{"ha":1017,"x_min":0,"x_max":0,"o":"m 896 406 b 872 214 896 332 888 268 b 793 78 856 159 829 114 b 671 3 758 44 717 19 b 508 -21 624 -13 570 -21 b 342 4 445 -21 389 -13 b 224 78 295 21 256 45 b 145 212 187 115 161 160 b 121 406 129 265 121 329 l 121 1010 l 255 1010 l 255 399 b 266 269 255 344 259 301 b 304 183 274 238 286 209 b 385 117 324 154 351 132 b 508 94 419 102 460 94 b 631 116 556 94 597 102 b 713 183 665 131 692 153 b 750 272 730 209 743 238 b 762 395 758 305 762 346 l 762 1010 l 896 1010 l 896 406 m 682 1136 l 587 1136 l 702 1390 l 857 1390 m 408 1136 l 313 1136 l 428 1390 l 583 1390 "},"ű":{"ha":879,"x_min":0,"x_max":0,"o":"m 626 0 l 626 84 b 503 6 583 50 542 24 b 372 -21 463 -12 420 -21 b 186 52 293 -21 231 3 b 120 266 142 100 120 172 l 120 758 l 248 758 l 248 326 b 253 228 248 288 249 255 b 276 157 257 200 264 177 b 323 114 288 137 304 123 b 408 100 343 105 371 100 b 516 126 441 100 477 109 b 626 192 556 143 592 165 l 626 758 l 753 758 l 753 0 m 607 883 l 513 883 l 627 1137 l 782 1137 m 333 883 l 239 883 l 353 1137 l 508 1137 "},"Ų":{"ha":1017,"x_min":0,"x_max":0,"o":"m 534 -79 b 536 -48 534 -67 535 -57 b 541 -20 537 -39 539 -30 b 527 -20 537 -20 532 -20 b 508 -20 521 -20 515 -20 b 342 4 445 -20 389 -12 b 224 78 295 21 256 45 b 145 212 187 115 161 160 b 121 406 129 265 121 329 l 121 1010 l 255 1010 l 255 399 b 266 269 255 344 259 301 b 304 183 274 238 286 209 b 385 117 324 154 351 132 b 508 94 419 102 460 94 b 631 116 556 94 597 102 b 713 183 665 131 692 153 b 750 272 730 209 743 238 b 762 395 758 305 762 346 l 762 1010 l 896 1010 l 896 406 b 872 214 896 332 888 268 b 793 78 856 159 829 114 b 727 28 772 58 751 41 b 650 -3 703 15 678 5 b 646 -37 649 -12 647 -23 b 644 -73 645 -50 644 -62 b 672 -155 644 -110 654 -137 b 762 -181 691 -172 721 -181 b 813 -172 778 -181 795 -178 b 852 -157 832 -166 845 -161 l 858 -157 l 858 -265 b 797 -279 834 -271 814 -276 b 743 -283 780 -281 762 -283 b 591 -229 680 -283 629 -265 b 534 -79 553 -193 534 -143 "},"ų":{"ha":876,"x_min":0,"x_max":0,"o":"m 626 84 b 503 6 583 50 542 24 b 372 -21 463 -12 420 -21 b 186 52 293 -21 231 3 b 120 266 142 100 120 172 l 120 758 l 248 758 l 248 326 b 253 228 248 288 249 255 b 276 157 257 200 264 177 b 323 114 288 137 304 123 b 408 100 343 105 371 100 b 516 126 441 100 477 109 b 626 192 556 143 592 165 l 626 758 l 753 758 l 753 0 l 733 0 b 727 -36 730 -12 728 -24 b 724 -73 725 -48 724 -60 b 752 -155 724 -110 734 -137 b 842 -181 771 -172 801 -181 b 893 -172 858 -181 875 -178 b 932 -157 912 -166 925 -161 l 938 -157 l 938 -265 b 877 -279 914 -271 894 -276 b 823 -283 860 -281 842 -283 b 671 -229 760 -283 709 -265 b 614 -79 633 -192 614 -142 b 618 -37 614 -62 616 -48 l 626 0 "},"Ŵ":{"ha":1373,"x_min":0,"x_max":0,"o":"m 1048 0 l 897 0 l 685 838 l 477 0 l 330 0 l 62 1010 l 200 1010 l 412 170 l 621 1010 l 758 1010 l 968 162 l 1179 1010 l 1311 1010 m 810 1133 l 685 1306 l 560 1133 l 455 1133 l 610 1390 l 764 1390 l 918 1133 "},"ŵ":{"ha":1137,"x_min":0,"x_max":0,"o":"m 881 0 l 763 0 l 568 584 l 375 0 l 258 0 l 58 758 l 191 758 l 330 171 l 519 758 l 625 758 l 819 171 l 950 758 l 1078 758 m 692 880 l 567 1053 l 442 880 l 337 880 l 492 1137 l 646 1137 l 800 880 "},"Ŷ":{"ha":854,"x_min":0,"x_max":0,"o":"m 495 443 l 495 0 l 361 0 l 361 429 l 4 1010 l 153 1010 l 429 558 l 707 1010 l 850 1010 m 553 1133 l 428 1306 l 303 1133 l 198 1133 l 353 1390 l 507 1390 l 661 1133 "},"ŷ":{"ha":822,"x_min":0,"x_max":0,"o":"m 338 -279 l 202 -279 l 343 37 l 41 758 l 180 758 l 412 196 l 647 758 l 781 758 m 542 880 l 416 1053 l 292 880 l 186 880 l 341 1137 l 495 1137 l 650 880 "},"Ÿ":{"ha":854,"x_min":0,"x_max":0,"o":"m 495 443 l 495 0 l 361 0 l 361 429 l 4 1010 l 153 1010 l 429 558 l 707 1010 l 850 1010 m 502 1137 l 502 1270 l 637 1270 l 637 1137 m 222 1137 l 222 1270 l 357 1270 l 357 1137 "},"Ź":{"ha":951,"x_min":0,"x_max":0,"o":"m 85 0 l 85 125 l 705 890 l 109 890 l 109 1010 l 859 1010 l 859 888 l 233 119 l 873 119 l 873 0 m 473 1136 l 372 1136 l 493 1390 l 658 1390 "},"ź":{"ha":730,"x_min":0,"x_max":0,"o":"m 63 0 l 63 94 l 505 651 l 73 651 l 73 758 l 663 758 l 663 667 l 220 108 l 675 108 l 675 0 m 365 883 l 264 883 l 385 1137 l 550 1137 "},"Ż":{"ha":951,"x_min":0,"x_max":0,"o":"m 85 0 l 85 125 l 705 890 l 109 890 l 109 1010 l 859 1010 l 859 888 l 233 119 l 873 119 l 873 0 m 408 1137 l 408 1270 l 552 1270 l 552 1137 "},"ż":{"ha":730,"x_min":0,"x_max":0,"o":"m 63 0 l 63 94 l 505 651 l 73 651 l 73 758 l 663 758 l 663 667 l 220 108 l 675 108 l 675 0 m 295 884 l 295 1017 l 439 1017 l 439 884 "},"Ž":{"ha":951,"x_min":0,"x_max":0,"o":"m 85 0 l 85 125 l 705 890 l 109 890 l 109 1010 l 859 1010 l 859 888 l 233 119 l 873 119 l 873 0 m 550 1133 l 396 1133 l 241 1390 l 349 1390 l 475 1216 l 600 1390 l 705 1390 "},"ž":{"ha":730,"x_min":0,"x_max":0,"o":"m 63 0 l 63 94 l 505 651 l 73 651 l 73 758 l 663 758 l 663 667 l 220 108 l 675 108 l 675 0 m 443 880 l 289 880 l 134 1137 l 242 1137 l 368 963 l 492 1137 l 597 1137 "},"ſ":{"ha":417,"x_min":0,"x_max":0,"o":"m 519 932 b 465 944 505 936 487 940 b 405 951 442 949 422 951 b 288 915 350 951 311 939 b 253 783 265 890 253 847 l 253 0 l 125 0 l 125 783 b 191 988 125 870 147 939 b 387 1062 235 1037 300 1062 b 464 1058 415 1062 441 1061 b 526 1048 486 1055 507 1052 l 526 932 "},"Ə":{"ha":1048,"x_min":0,"x_max":0,"o":"m 971 505 b 865 135 971 351 936 228 b 524 -21 786 31 673 -21 b 199 117 387 -21 278 25 b 94 348 147 177 112 254 b 78 605 83 407 78 493 l 825 605 b 730 819 814 691 783 762 b 511 911 673 880 599 911 b 195 817 383 911 278 880 l 184 817 l 184 966 b 509 1028 283 1007 391 1028 b 860 880 663 1028 780 979 b 971 505 934 789 971 664 m 218 484 b 290 217 220 374 244 285 b 525 95 343 136 422 95 b 760 217 628 95 707 136 b 831 484 805 285 829 374 "},"ƒ":{"ha":883,"x_min":0,"x_max":0,"o":"m 861 896 b 803 911 848 900 829 906 b 736 920 777 917 755 920 b 612 880 682 920 640 907 b 545 731 583 853 561 803 l 517 600 l 734 600 l 734 506 l 498 506 l 428 174 b 377 23 415 113 398 63 b 302 -72 356 -17 331 -48 b 207 -122 273 -96 241 -113 b 93 -136 172 -132 135 -136 b 38 -134 74 -136 56 -136 b -24 -125 20 -132 -1 -130 l -24 -3 l -18 -3 b 37 -20 -3 -10 15 -15 b 98 -26 58 -24 78 -26 b 228 17 156 -26 199 -12 b 296 174 257 46 280 98 l 366 506 l 218 506 l 218 600 l 385 600 l 413 734 b 462 874 425 789 441 836 b 535 966 483 912 507 943 b 629 1015 563 989 594 1005 b 740 1030 664 1025 701 1030 b 806 1027 766 1030 788 1029 b 868 1018 824 1024 845 1022 l 868 896 "},"Ơ":{"ha":1120,"x_min":0,"x_max":0,"o":"m 977 744 b 1007 628 991 704 1001 666 b 1016 505 1013 590 1016 549 b 982 281 1016 421 1005 347 b 888 117 960 215 929 160 b 741 14 847 71 798 37 b 547 -21 684 -9 619 -21 b 353 14 476 -21 411 -9 b 205 117 295 38 245 72 b 111 281 164 161 133 216 b 78 505 89 347 78 421 b 111 726 78 587 89 661 b 205 894 132 791 164 847 b 354 996 245 938 295 972 b 547 1031 413 1019 477 1031 b 742 995 619 1031 684 1019 b 888 894 799 971 848 938 b 913 864 899 882 908 872 b 935 831 919 857 926 846 b 1011 855 971 833 996 841 b 1034 923 1027 870 1034 892 b 1027 978 1034 939 1032 958 b 1011 1025 1022 999 1017 1014 l 1011 1031 l 1120 1031 b 1132 975 1126 1010 1130 991 b 1136 918 1135 959 1136 940 b 1095 800 1136 869 1122 830 b 977 744 1068 771 1029 752 m 876 505 b 788 808 876 636 847 737 b 547 915 729 879 649 915 b 306 808 445 915 364 879 b 218 505 247 737 218 636 b 307 200 218 372 248 271 b 547 95 367 130 447 95 b 787 200 648 95 728 130 b 876 505 846 271 876 372 "},"ơ":{"ha":843,"x_min":0,"x_max":0,"o":"m 771 378 b 676 86 771 255 739 158 b 422 -21 613 15 528 -21 b 166 86 315 -21 230 15 b 72 378 103 158 72 255 b 166 671 72 502 103 599 b 422 779 230 743 315 779 b 489 773 445 779 467 777 b 551 758 511 770 531 765 l 614 758 b 700 780 654 758 683 765 b 725 850 717 794 725 818 b 718 905 725 866 722 884 b 702 951 713 926 707 941 l 702 958 l 810 958 b 823 902 816 936 820 918 b 827 844 825 886 827 867 b 788 729 827 796 814 758 b 675 672 762 700 724 681 b 747 546 707 637 730 595 b 771 378 763 497 771 441 m 640 378 b 582 597 640 477 620 549 b 422 669 543 645 490 669 b 261 597 353 669 299 645 b 203 378 223 549 203 477 b 261 162 203 283 223 211 b 422 89 300 113 353 89 b 582 162 490 89 543 113 b 640 378 620 210 640 283 "},"Ư":{"ha":1050,"x_min":0,"x_max":0,"o":"m 896 406 b 872 214 896 332 888 268 b 793 78 856 159 829 114 b 671 3 758 44 717 19 b 508 -21 624 -13 570 -21 b 342 4 445 -21 389 -13 b 224 78 295 21 256 45 b 145 212 187 115 161 160 b 121 406 129 265 121 329 l 121 1010 l 255 1010 l 255 399 b 266 269 255 344 259 301 b 304 183 274 238 286 209 b 385 117 324 154 351 132 b 508 94 419 102 460 94 b 631 116 556 94 597 102 b 713 183 665 131 692 153 b 750 272 730 209 743 238 b 762 395 758 305 762 346 l 762 1010 l 908 1010 b 994 1032 949 1010 977 1017 b 1019 1102 1011 1047 1019 1070 b 1012 1157 1019 1118 1017 1137 b 996 1204 1007 1178 1002 1193 l 996 1210 l 1105 1210 b 1117 1154 1111 1189 1115 1170 b 1121 1097 1120 1138 1121 1119 b 1063 963 1121 1037 1102 993 b 896 918 1024 933 968 918 l 896 406 "},"ư":{"ha":916,"x_min":0,"x_max":0,"o":"m 626 0 l 626 84 b 503 6 583 50 542 24 b 372 -21 463 -12 420 -21 b 186 52 293 -21 231 3 b 120 266 142 100 120 172 l 120 758 l 248 758 l 248 326 b 253 228 248 288 249 255 b 276 157 257 200 264 177 b 323 114 288 137 304 123 b 408 100 343 105 371 100 b 516 126 441 100 477 109 b 626 192 556 143 592 165 l 626 758 l 767 758 b 853 780 808 758 836 765 b 878 850 870 794 878 818 b 871 905 878 866 876 884 b 855 951 866 926 861 941 l 855 958 l 964 958 b 976 902 970 936 974 918 b 980 844 979 886 980 867 b 922 711 980 785 961 741 b 755 666 883 681 827 666 l 753 666 l 753 0 "},"Ǻ":{"ha":949,"x_min":0,"x_max":0,"o":"m 789 0 l 688 281 l 254 281 l 154 0 l 18 0 l 359 927 b 307 982 337 941 320 959 b 288 1060 294 1005 288 1031 b 342 1183 288 1109 306 1150 b 475 1232 379 1215 423 1232 b 607 1183 527 1232 571 1215 b 661 1060 643 1150 661 1109 b 642 982 661 1031 655 1005 b 590 927 629 959 612 941 l 932 0 m 562 1060 b 537 1122 562 1084 553 1105 b 475 1147 521 1139 500 1147 b 412 1122 449 1147 428 1139 b 387 1060 395 1106 387 1085 b 412 996 387 1034 395 1013 b 475 970 428 979 449 970 b 537 996 500 970 521 979 b 562 1060 553 1013 562 1035 m 471 882 l 296 397 l 646 397 m 498 1250 l 397 1250 l 498 1389 l 663 1389 "},"ǻ":{"ha":834,"x_min":0,"x_max":0,"o":"m 587 0 l 587 81 l 542 48 b 486 16 522 35 504 24 b 412 -11 464 5 440 -4 b 315 -21 385 -18 352 -21 b 142 47 247 -21 189 2 b 71 220 94 92 71 150 b 107 359 71 277 83 324 b 213 443 132 395 167 422 b 379 484 259 463 314 477 b 587 500 444 491 513 497 l 587 520 b 572 593 587 550 582 574 b 528 638 561 613 547 628 b 464 660 510 649 488 656 b 384 666 439 664 412 666 b 309 659 358 666 333 664 b 245 645 285 655 264 650 b 184 626 223 639 203 633 l 144 612 l 138 612 l 138 741 b 197 754 153 745 173 750 b 266 766 221 759 244 763 b 234 815 253 780 243 796 b 222 874 226 834 222 853 b 276 997 222 923 240 964 b 408 1046 312 1029 356 1046 b 539 997 460 1046 503 1029 b 593 874 575 964 593 923 b 577 809 593 851 588 829 b 538 757 567 788 554 771 b 668 676 594 741 638 715 b 714 514 699 638 714 584 l 714 0 m 587 397 b 450 387 548 395 503 392 b 325 368 397 383 356 376 b 236 319 288 357 259 341 b 202 229 213 297 202 267 b 241 131 202 185 215 152 b 361 98 268 109 308 98 b 484 124 406 98 447 106 b 587 186 521 141 556 162 m 494 874 b 470 936 494 899 486 919 b 408 962 454 953 433 962 b 345 937 382 962 361 953 b 320 874 328 920 320 899 b 345 810 320 848 328 827 b 408 784 361 793 382 784 b 470 810 433 784 454 793 b 494 874 486 827 494 849 m 431 1064 l 330 1064 l 431 1250 l 595 1250 "},"Ǽ":{"ha":1367,"x_min":0,"x_max":0,"o":"m 649 0 l 649 377 l 294 377 l 150 0 l 9 0 l 412 1010 l 1289 1010 l 1289 890 l 781 890 l 781 614 l 1289 614 l 1289 494 l 781 494 l 781 119 l 1289 119 l 1289 0 m 649 898 l 500 898 l 338 490 l 649 490 m 792 1136 l 691 1136 l 812 1390 l 977 1390 "},"ǽ":{"ha":1326,"x_min":0,"x_max":0,"o":"m 703 379 b 723 247 703 328 709 283 b 781 157 736 210 756 180 b 864 109 804 135 832 119 b 970 94 896 99 932 94 b 1118 122 1021 94 1070 103 b 1235 185 1166 140 1205 162 l 1243 185 l 1243 46 b 1118 2 1208 30 1166 16 b 972 -18 1070 -11 1021 -18 b 779 18 897 -18 832 -6 b 647 123 725 41 681 76 l 602 83 b 536 37 581 65 559 49 b 444 -4 508 20 477 7 b 315 -20 410 -14 367 -20 b 142 46 248 -20 190 2 b 71 215 94 90 71 146 b 107 351 71 271 83 316 b 212 431 132 386 167 412 b 376 467 255 449 310 461 b 585 479 442 474 511 477 l 585 520 b 569 593 585 550 579 574 b 526 637 559 612 544 627 b 460 659 507 648 486 655 b 382 665 435 663 409 665 b 268 650 346 665 308 660 b 146 612 227 641 186 628 l 137 612 l 137 741 b 244 764 162 748 198 756 b 382 777 291 773 337 777 b 562 746 454 777 514 767 b 672 652 610 725 646 694 b 787 743 703 689 742 720 b 941 779 833 767 884 779 b 1173 692 1039 779 1116 750 b 1258 435 1230 634 1258 548 l 1258 379 m 1135 477 b 1119 557 1132 507 1127 534 b 1084 617 1110 581 1099 600 b 1024 659 1069 635 1049 649 b 934 673 1000 668 970 673 b 783 623 874 673 823 656 b 705 477 742 589 716 540 l 1135 477 m 606 202 b 586 283 597 226 590 253 b 578 378 581 313 578 345 b 442 373 531 377 486 375 b 321 356 399 371 359 366 b 235 312 286 347 257 332 b 202 224 213 291 202 262 b 241 129 202 182 215 150 b 361 98 268 108 307 98 b 493 127 406 98 450 107 b 606 202 537 146 575 171 m 713 883 l 612 883 l 733 1137 l 898 1137 "},"Ǿ":{"ha":1093,"x_min":0,"x_max":0,"o":"m 1016 505 b 982 281 1016 421 1005 347 b 888 117 960 215 929 160 b 741 14 847 71 798 37 b 547 -21 684 -9 619 -21 b 400 -1 495 -21 446 -14 b 279 56 355 12 314 31 l 171 -99 l 81 -99 l 220 100 b 115 270 175 146 140 202 b 78 505 90 338 78 416 b 111 726 78 587 89 661 b 205 894 132 791 164 847 b 354 996 245 938 295 972 b 547 1031 413 1019 477 1031 b 692 1012 600 1031 649 1025 b 814 956 736 1000 777 981 l 910 1093 l 1000 1093 l 872 911 b 978 742 918 866 953 809 b 1016 505 1003 675 1016 596 m 744 854 b 656 901 718 875 689 891 b 547 916 624 911 588 916 b 412 890 498 916 452 908 b 306 811 371 873 336 846 b 239 682 277 777 255 734 b 216 505 223 630 216 571 b 236 334 216 441 222 384 b 295 206 249 283 269 241 l 744 854 m 878 505 b 858 676 878 567 871 625 b 798 804 844 728 824 770 l 348 155 b 438 109 375 135 405 120 b 547 94 471 99 507 94 b 684 121 597 94 643 103 b 788 199 725 139 760 165 b 856 331 818 236 841 280 b 878 505 871 382 878 440 m 549 1136 l 448 1136 l 570 1390 l 734 1390 "},"ǿ":{"ha":843,"x_min":0,"x_max":0,"o":"m 771 378 b 676 86 771 255 739 158 b 422 -21 613 15 528 -21 b 316 -7 384 -21 349 -16 b 228 34 284 3 255 16 l 138 -100 l 63 -100 l 179 73 b 100 202 145 108 119 151 b 72 378 81 253 72 312 b 166 671 72 502 103 599 b 422 779 230 743 315 779 b 529 764 461 779 497 774 b 614 725 561 754 589 741 l 692 842 l 768 842 l 663 685 b 743 557 697 651 724 608 b 771 378 762 507 771 447 m 551 631 b 493 660 535 644 515 654 b 422 670 470 667 447 670 b 259 595 352 670 297 645 b 201 378 221 546 201 473 b 213 262 201 335 205 296 b 248 176 221 229 232 200 l 551 631 m 642 378 b 630 496 642 422 638 461 b 595 584 622 530 610 559 l 291 129 b 350 98 309 115 328 104 b 422 87 371 91 395 87 b 583 161 490 87 543 112 b 642 378 622 210 642 283 m 448 883 l 347 883 l 468 1137 l 633 1137 "},"Ș":{"ha":949,"x_min":0,"x_max":0,"o":"m 869 288 b 842 172 869 249 860 210 b 765 74 824 133 798 101 b 638 6 729 45 687 22 b 465 -18 590 -10 532 -18 b 268 2 392 -18 326 -12 b 91 62 210 16 151 36 l 91 231 l 100 231 b 277 132 151 188 210 155 b 466 98 344 109 407 98 b 660 144 549 98 614 113 b 730 269 707 176 730 217 b 697 368 730 314 719 347 b 597 418 675 389 642 406 b 487 440 563 427 526 434 b 361 463 447 446 405 453 b 162 560 271 481 205 514 b 97 739 119 606 97 666 b 204 947 97 824 133 893 b 476 1028 276 1001 366 1028 b 671 1008 547 1028 612 1021 b 829 958 731 994 783 977 l 829 799 l 819 799 b 668 880 781 831 730 858 b 475 912 605 901 541 912 b 302 867 404 912 346 897 b 237 752 258 838 237 799 b 269 653 237 710 248 677 b 384 598 291 629 329 611 b 507 575 413 592 454 584 b 643 547 561 566 606 557 b 812 457 718 527 774 497 b 869 288 850 417 869 361 m 441 -287 l 342 -287 l 410 -78 l 559 -78 "},"ș":{"ha":724,"x_min":0,"x_max":0,"o":"m 667 218 b 581 48 667 149 638 92 b 347 -18 524 4 446 -18 b 192 2 290 -18 239 -12 b 75 45 145 15 106 30 l 75 189 l 81 189 b 216 116 122 158 166 134 b 357 90 265 98 312 90 b 489 117 413 90 457 99 b 536 202 521 135 536 163 b 511 270 536 232 528 255 b 412 309 493 285 460 298 b 341 323 394 313 370 318 b 261 341 312 329 285 335 b 120 419 195 359 148 385 b 78 545 92 453 78 495 b 97 633 78 576 84 605 b 156 707 110 660 130 685 b 253 757 181 728 214 745 b 384 776 292 770 335 776 b 521 759 429 776 475 770 b 637 719 568 748 606 735 l 637 583 l 630 583 b 511 643 597 607 558 627 b 374 668 465 660 419 668 b 256 641 328 668 288 659 b 208 562 224 623 208 597 b 237 491 208 530 218 507 b 330 452 256 475 287 462 b 409 436 353 447 379 441 b 481 421 438 431 462 426 b 618 351 541 408 586 384 b 667 218 651 318 667 274 m 334 -287 l 235 -287 l 303 -78 l 453 -78 "},"Ț":{"ha":856,"x_min":0,"x_max":0,"o":"m 495 890 l 495 0 l 361 0 l 361 890 l 0 890 l 0 1010 l 856 1010 l 856 890 m 389 -287 l 290 -287 l 358 -78 l 508 -78 "},"ț":{"ha":547,"x_min":0,"x_max":0,"o":"m 519 7 b 440 -9 495 0 469 -5 b 365 -15 412 -13 387 -15 b 189 47 288 -15 229 6 b 128 248 148 89 128 156 l 128 650 l 42 650 l 42 758 l 128 758 l 128 975 l 256 975 l 256 758 l 519 758 l 519 650 l 256 650 l 256 305 b 258 212 256 265 257 234 b 277 149 260 190 267 169 b 318 110 287 131 301 118 b 398 97 336 101 362 97 b 463 106 419 97 441 100 b 512 121 486 112 502 117 l 519 121 l 519 7 m 254 -287 l 155 -287 l 222 -78 l 372 -78 "},"ə":{"ha":827,"x_min":0,"x_max":0,"o":"m 760 387 b 665 99 760 268 728 172 b 391 -18 599 21 507 -18 b 151 77 286 -18 206 14 b 72 326 98 136 72 220 l 72 395 l 630 395 b 551 602 630 485 604 554 b 361 667 504 646 440 667 b 220 642 318 667 271 659 b 94 576 165 624 123 602 l 87 576 l 87 715 b 359 779 188 757 279 779 b 654 677 486 779 584 745 b 760 387 724 609 760 512 m 196 298 b 398 87 197 158 264 87 b 558 144 463 87 516 106 b 630 298 600 182 624 234 "},"ˆ":{"ha":883,"x_min":0,"x_max":0,"o":"m 566 880 l 440 1053 l 315 880 l 210 880 l 365 1137 l 519 1137 l 673 880 "},"ˇ":{"ha":883,"x_min":0,"x_max":0,"o":"m 516 880 l 362 880 l 208 1137 l 315 1137 l 441 963 l 566 1137 l 671 1137 "},"ˉ":{"ha":883,"x_min":0,"x_max":0,"o":"m 190 905 l 190 1010 l 693 1010 l 693 905 "},"˘":{"ha":883,"x_min":0,"x_max":0,"o":"m 696 1137 b 622 950 691 1061 667 998 b 441 878 578 902 517 878 b 259 950 364 878 304 902 b 186 1137 215 998 191 1061 l 299 1137 b 343 1006 304 1077 319 1034 b 441 966 368 979 400 966 b 538 1006 482 966 514 979 b 584 1137 562 1034 578 1077 l 696 1137 "},"˙":{"ha":883,"x_min":0,"x_max":0,"o":"m 370 884 l 370 1017 l 513 1017 l 513 884 "},"˚":{"ha":883,"x_min":0,"x_max":0,"o":"m 679 1105 b 610 941 679 1041 656 986 b 441 874 564 897 507 874 b 274 941 376 874 321 896 b 204 1105 227 985 204 1040 b 273 1269 204 1170 227 1225 b 441 1335 319 1313 375 1335 b 610 1269 508 1335 564 1313 b 679 1105 656 1225 679 1170 m 581 1105 b 541 1204 581 1144 567 1177 b 441 1244 514 1231 481 1244 b 342 1204 402 1244 369 1231 b 302 1105 316 1178 302 1145 b 342 1006 302 1066 316 1033 b 441 966 369 980 402 966 b 541 1006 481 966 514 980 b 581 1105 567 1033 581 1066 "},"˛":{"ha":883,"x_min":0,"x_max":0,"o":"m 605 -265 b 544 -279 581 -271 561 -276 b 490 -283 527 -281 509 -283 b 339 -229 427 -283 377 -265 b 281 -79 301 -194 281 -143 b 286 -32 281 -61 283 -46 l 294 7 l 399 7 b 393 -32 397 -5 395 -18 b 391 -73 392 -45 391 -59 b 419 -155 391 -110 401 -137 b 509 -181 438 -172 468 -181 b 561 -172 525 -181 542 -178 b 600 -157 579 -166 592 -161 l 605 -157 l 605 -265 "},"˜":{"ha":883,"x_min":0,"x_max":0,"o":"m 724 1098 b 672 943 719 1029 702 977 b 552 890 642 908 602 890 b 484 904 528 890 505 895 b 425 942 463 912 444 925 b 371 986 404 961 386 976 b 323 1000 357 995 340 1000 b 270 970 299 1000 282 990 b 250 888 258 949 251 922 l 161 888 b 214 1042 164 956 182 1008 b 332 1095 246 1077 286 1095 b 398 1081 355 1095 377 1090 b 458 1044 419 1073 439 1060 b 514 1002 479 1025 498 1011 b 562 988 531 993 547 988 b 615 1019 585 988 603 998 b 637 1098 628 1040 635 1066 l 724 1098 "},"˝":{"ha":883,"x_min":0,"x_max":0,"o":"m 600 883 l 506 883 l 621 1137 l 775 1137 m 326 883 l 232 883 l 347 1137 l 501 1137 "},"̀":{"ha":0,"x_min":0,"x_max":0,"o":"m -425 883 l -610 1137 l -446 1137 l -324 883 "},"́":{"ha":0,"x_min":0,"x_max":0,"o":"m -414 883 l -515 883 l -393 1137 l -229 1137 "},"̃":{"ha":0,"x_min":0,"x_max":0,"o":"m -123 1098 b -176 943 -128 1029 -146 977 b -296 890 -205 908 -245 890 b -363 904 -320 890 -343 895 b -422 942 -384 912 -404 925 b -476 986 -444 961 -462 976 b -525 1000 -491 995 -507 1000 b -578 970 -548 1000 -566 990 b -598 888 -590 949 -596 922 l -687 888 b -633 1042 -683 956 -666 1008 b -515 1095 -601 1077 -562 1095 b -450 1081 -493 1095 -471 1090 b -390 1044 -429 1073 -409 1060 b -333 1002 -369 1025 -350 1011 b -286 988 -317 993 -301 988 b -232 1019 -263 988 -245 998 b -211 1098 -219 1040 -212 1066 l -123 1098 "},"̉":{"ha":0,"x_min":0,"x_max":0,"o":"m -262 1036 b -285 966 -262 1007 -270 984 b -352 926 -300 949 -322 935 l -352 880 l -427 880 l -427 962 b -378 983 -405 967 -389 974 b -362 1023 -368 992 -362 1005 b -375 1052 -362 1034 -366 1043 b -410 1065 -384 1061 -395 1065 b -444 1062 -424 1065 -435 1064 b -473 1053 -452 1060 -462 1057 l -475 1053 l -475 1124 b -437 1133 -466 1127 -454 1130 b -387 1137 -421 1135 -404 1137 b -297 1107 -350 1137 -320 1127 b -262 1036 -274 1088 -262 1064 "},"̣":{"ha":0,"x_min":0,"x_max":0,"o":"m -505 -259 l -505 -127 l -361 -127 l -361 -259 "},"΄":{"ha":883,"x_min":0,"x_max":0,"o":"m 491 876 l 393 876 l 359 1137 l 524 1137 "},"΅":{"ha":883,"x_min":0,"x_max":0,"o":"m 486 876 l 399 876 l 366 1137 l 519 1137 m 581 884 l 581 1017 l 711 1017 l 711 884 m 174 884 l 174 1017 l 303 1017 l 303 884 "},"Ά":{"ha":949,"x_min":0,"x_max":0,"o":"m 789 0 l 690 281 l 253 281 l 154 0 l 18 0 l 385 1010 l 564 1010 l 932 0 m 471 892 l 294 397 l 648 397 m 136 749 l 38 749 l 5 1010 l 170 1010 "},"·":{"ha":631,"x_min":0,"x_max":0,"o":"m 235 564 l 235 758 l 397 758 l 397 564 "},"Έ":{"ha":1043,"x_min":0,"x_max":0,"o":"m 300 0 l 300 1010 l 966 1010 l 966 890 l 435 890 l 435 614 l 966 614 l 966 494 l 435 494 l 435 119 l 966 119 l 966 0 m 132 749 l 33 749 l 0 1010 l 165 1010 "},"Ή":{"ha":1208,"x_min":0,"x_max":0,"o":"m 939 0 l 939 494 l 435 494 l 435 0 l 300 0 l 300 1010 l 435 1010 l 435 614 l 939 614 l 939 1010 l 1073 1010 l 1073 0 m 132 749 l 33 749 l 0 1010 l 165 1010 "},"Ί":{"ha":749,"x_min":0,"x_max":0,"o":"m 258 0 l 258 103 l 390 103 l 390 907 l 258 907 l 258 1010 l 656 1010 l 656 907 l 524 907 l 524 103 l 656 103 l 656 0 m 132 749 l 33 749 l 0 1010 l 165 1010 "},"Ό":{"ha":1223,"x_min":0,"x_max":0,"o":"m 1018 894 b 1113 728 1059 849 1091 793 b 1145 505 1134 662 1145 588 b 1112 281 1145 421 1134 347 b 1018 117 1089 215 1058 160 b 870 14 976 71 927 37 b 676 -21 814 -9 749 -21 b 483 14 605 -21 541 -9 b 334 117 424 38 375 72 b 240 281 294 161 262 216 b 208 505 218 347 208 421 b 240 726 208 587 218 661 b 335 894 262 791 293 847 b 483 996 375 938 424 972 b 676 1031 542 1019 607 1031 b 871 995 748 1031 813 1019 b 1018 894 929 971 978 938 m 1006 505 b 918 808 1006 636 976 737 b 677 915 859 879 779 915 b 435 808 574 915 494 879 b 347 505 376 737 347 636 b 437 200 347 372 377 271 b 677 95 496 130 576 95 b 917 200 777 95 857 130 b 1006 505 976 271 1006 372 m 132 749 l 33 749 l 0 1010 l 165 1010 "},"Ύ":{"ha":1046,"x_min":0,"x_max":0,"o":"m 687 443 l 687 0 l 553 0 l 553 429 l 196 1010 l 345 1010 l 621 558 l 899 1010 l 1042 1010 m 132 749 l 33 749 l 0 1010 l 165 1010 "},"Ώ":{"ha":1261,"x_min":0,"x_max":0,"o":"m 797 0 l 797 262 b 878 318 824 280 851 298 b 948 387 905 338 928 361 b 996 480 968 413 984 445 b 1014 606 1008 516 1014 558 b 928 830 1014 699 985 774 b 692 915 870 887 792 915 b 457 830 593 915 515 887 b 371 606 400 774 371 699 b 389 480 371 558 377 516 b 437 387 400 445 416 413 b 507 318 457 361 481 338 b 588 262 534 298 561 280 l 588 0 l 197 0 l 197 118 l 475 118 l 475 202 b 300 369 404 243 346 298 b 231 606 254 439 231 519 b 358 912 231 731 274 833 b 692 1031 443 991 555 1031 b 1026 912 830 1031 942 991 b 1154 606 1111 833 1154 731 b 1085 369 1154 519 1131 439 b 909 202 1039 298 980 243 l 909 118 l 1187 118 l 1187 0 m 132 749 l 33 749 l 0 1010 l 165 1010 "},"ΐ":{"ha":381,"x_min":0,"x_max":0,"o":"m 127 0 l 127 758 l 254 758 l 254 0 m 219 876 l 162 876 l 124 1137 l 257 1137 m 301 884 l 301 1017 l 417 1017 l 417 884 m -36 884 l -36 1017 l 80 1017 l 80 884 "},"Α":{"ha":949,"x_min":0,"x_max":0,"o":"m 789 0 l 690 281 l 253 281 l 154 0 l 18 0 l 385 1010 l 564 1010 l 932 0 m 471 892 l 294 397 l 648 397 "},"Β":{"ha":952,"x_min":0,"x_max":0,"o":"m 897 311 b 869 178 897 260 888 216 b 792 83 850 139 824 108 b 667 19 754 53 712 32 b 494 0 622 6 564 0 l 136 0 l 136 1010 l 435 1010 b 600 1002 508 1010 564 1007 b 705 968 637 996 672 985 b 786 893 742 948 769 923 b 811 783 803 862 811 826 b 774 661 811 735 799 695 b 677 580 750 627 718 600 l 677 574 b 838 485 745 560 799 530 b 897 311 878 439 897 381 m 671 766 b 659 827 671 790 667 811 b 620 868 651 844 638 858 b 543 891 599 880 573 888 b 430 895 512 894 475 895 l 270 895 l 270 604 l 444 604 b 544 610 486 604 519 606 b 613 637 569 614 592 623 b 658 689 634 650 649 668 b 671 766 667 711 671 736 m 758 305 b 739 402 758 346 751 378 b 673 463 727 426 705 446 b 594 485 651 474 625 482 b 481 490 563 489 525 490 l 270 490 l 270 115 l 448 115 b 592 124 506 115 555 118 b 684 157 630 130 660 141 b 740 218 710 175 728 195 b 758 305 752 240 758 269 "},"Γ":{"ha":787,"x_min":0,"x_max":0,"o":"m 270 890 l 270 0 l 136 0 l 136 1010 l 788 1010 l 788 890 "},"Δ":{"ha":977,"x_min":0,"x_max":0,"o":"m 18 0 l 399 1010 l 578 1010 l 959 0 m 485 892 l 193 114 l 778 114 "},"Ε":{"ha":878,"x_min":0,"x_max":0,"o":"m 136 0 l 136 1010 l 801 1010 l 801 890 l 270 890 l 270 614 l 801 614 l 801 494 l 270 494 l 270 119 l 801 119 l 801 0 "},"Ζ":{"ha":951,"x_min":0,"x_max":0,"o":"m 85 0 l 85 125 l 705 890 l 109 890 l 109 1010 l 859 1010 l 859 888 l 233 119 l 873 119 l 873 0 "},"Η":{"ha":1044,"x_min":0,"x_max":0,"o":"m 774 0 l 774 494 l 270 494 l 270 0 l 136 0 l 136 1010 l 270 1010 l 270 614 l 774 614 l 774 1010 l 908 1010 l 908 0 "},"Θ":{"ha":1093,"x_min":0,"x_max":0,"o":"m 888 894 b 983 728 930 849 961 793 b 1016 505 1005 662 1016 588 b 982 281 1016 421 1005 347 b 888 117 960 215 929 160 b 741 14 847 71 798 37 b 547 -21 684 -9 619 -21 b 353 14 476 -21 411 -9 b 205 117 295 38 245 72 b 111 281 164 161 133 216 b 78 505 89 347 78 421 b 111 726 78 587 89 661 b 205 894 132 791 164 847 b 354 996 245 938 295 972 b 547 1031 413 1019 477 1031 b 742 995 619 1031 684 1019 b 888 894 799 971 848 938 m 876 505 b 788 808 876 636 847 737 b 547 915 729 879 649 915 b 306 808 445 915 364 879 b 218 505 247 737 218 636 b 307 200 218 372 248 271 b 547 95 367 130 447 95 b 787 200 648 95 728 130 b 876 505 846 271 876 372 m 334 484 l 334 605 l 760 605 l 760 484 "},"Ι":{"ha":585,"x_min":0,"x_max":0,"o":"m 93 0 l 93 103 l 225 103 l 225 907 l 93 907 l 93 1010 l 492 1010 l 492 907 l 359 907 l 359 103 l 492 103 l 492 0 "},"Κ":{"ha":962,"x_min":0,"x_max":0,"o":"m 773 0 l 374 450 l 273 342 l 273 0 l 139 0 l 139 1010 l 273 1010 l 273 483 l 764 1010 l 926 1010 l 475 535 l 947 0 "},"Λ":{"ha":952,"x_min":0,"x_max":0,"o":"m 790 0 l 473 871 l 155 0 l 18 0 l 395 1010 l 557 1010 l 935 0 "},"Μ":{"ha":1171,"x_min":0,"x_max":0,"o":"m 901 0 l 901 870 l 620 278 l 540 278 l 261 870 l 261 0 l 136 0 l 136 1010 l 319 1010 l 588 448 l 848 1010 l 1035 1010 l 1035 0 "},"Ν":{"ha":1039,"x_min":0,"x_max":0,"o":"m 740 0 l 261 903 l 261 0 l 136 0 l 136 1010 l 344 1010 l 781 185 l 781 1010 l 906 1010 l 906 0 "},"Ξ":{"ha":901,"x_min":0,"x_max":0,"o":"m 77 890 l 77 1010 l 824 1010 l 824 890 m 113 494 l 113 614 l 789 614 l 789 494 m 77 0 l 77 119 l 824 119 l 824 0 "},"Ο":{"ha":1093,"x_min":0,"x_max":0,"o":"m 888 894 b 983 728 930 849 961 793 b 1016 505 1005 662 1016 588 b 982 281 1016 421 1005 347 b 888 117 960 215 929 160 b 741 14 847 71 798 37 b 547 -21 684 -9 619 -21 b 353 14 476 -21 411 -9 b 205 117 295 38 245 72 b 111 281 164 161 133 216 b 78 505 89 347 78 421 b 111 726 78 587 89 661 b 205 894 132 791 164 847 b 354 996 245 938 295 972 b 547 1031 413 1019 477 1031 b 742 995 619 1031 684 1019 b 888 894 799 971 848 938 m 876 505 b 788 808 876 636 847 737 b 547 915 729 879 649 915 b 306 808 445 915 364 879 b 218 505 247 737 218 636 b 307 200 218 372 248 271 b 547 95 367 130 447 95 b 787 200 648 95 728 130 b 876 505 846 271 876 372 "},"Π":{"ha":1044,"x_min":0,"x_max":0,"o":"m 774 0 l 774 890 l 270 890 l 270 0 l 136 0 l 136 1010 l 908 1010 l 908 0 "},"Ρ":{"ha":838,"x_min":0,"x_max":0,"o":"m 796 705 b 773 580 796 660 788 618 b 707 481 757 542 735 509 b 584 402 673 446 631 420 b 404 376 536 385 477 376 l 270 376 l 270 0 l 136 0 l 136 1010 l 410 1010 b 564 995 470 1010 522 1005 b 675 947 606 984 643 968 b 765 850 714 921 744 889 b 796 705 786 812 796 763 m 656 701 b 638 792 656 736 650 766 b 583 855 626 818 607 839 b 508 885 561 869 536 879 b 403 895 480 891 445 895 l 270 895 l 270 491 l 383 491 b 515 506 437 491 481 496 b 598 552 549 515 577 531 b 643 621 619 574 634 597 b 656 701 652 644 656 671 "},"Σ":{"ha":934,"x_min":0,"x_max":0,"o":"m 80 0 l 80 125 l 500 532 l 94 888 l 94 1010 l 837 1010 l 837 890 l 273 890 l 670 547 l 670 530 l 243 119 l 868 119 l 868 0 "},"Τ":{"ha":856,"x_min":0,"x_max":0,"o":"m 495 890 l 495 0 l 361 0 l 361 890 l 0 890 l 0 1010 l 856 1010 l 856 890 "},"Υ":{"ha":854,"x_min":0,"x_max":0,"o":"m 495 443 l 495 0 l 361 0 l 361 429 l 4 1010 l 153 1010 l 429 558 l 707 1010 l 850 1010 "},"Φ":{"ha":1137,"x_min":0,"x_max":0,"o":"m 1066 512 b 1036 343 1066 449 1056 393 b 952 220 1016 294 988 253 b 812 135 914 185 867 156 b 635 102 757 114 698 103 l 635 -11 l 502 -11 l 502 102 b 328 134 441 103 383 114 b 185 220 272 155 224 183 b 101 344 149 254 122 295 b 71 512 81 393 71 449 b 100 673 71 574 81 627 b 181 794 120 720 147 760 b 318 881 218 831 263 860 b 502 916 373 902 434 914 l 502 1021 l 635 1021 l 635 916 b 819 880 702 914 764 902 b 956 794 875 858 921 829 b 1037 674 990 761 1017 721 b 1066 512 1056 627 1066 573 m 926 517 b 905 641 926 562 919 603 b 843 736 890 678 870 710 b 755 791 817 761 788 780 b 635 810 723 803 683 810 l 635 207 b 751 228 678 208 717 215 b 838 279 786 240 815 257 b 904 378 867 306 889 339 b 926 517 919 418 926 464 m 502 810 b 382 791 454 810 414 804 b 294 736 350 779 321 761 b 233 641 268 711 248 679 b 211 517 218 602 211 561 b 234 380 211 467 218 421 b 300 279 249 339 271 305 b 386 228 322 258 351 241 b 502 207 421 214 459 207 "},"Χ":{"ha":951,"x_min":0,"x_max":0,"o":"m 557 511 l 905 0 l 750 0 l 475 416 l 193 0 l 46 0 l 398 505 l 54 1010 l 209 1010 l 481 600 l 759 1010 l 906 1010 "},"Ψ":{"ha":1209,"x_min":0,"x_max":0,"o":"m 1088 617 b 1060 438 1088 546 1079 486 b 981 319 1042 389 1015 350 b 850 249 944 288 901 265 b 671 218 799 233 740 223 l 671 0 l 538 0 l 538 218 b 357 250 468 223 408 234 b 229 319 306 267 263 290 b 149 439 194 351 167 390 b 121 617 131 487 121 547 l 121 1010 l 256 1010 l 256 602 b 276 479 256 552 262 512 b 331 401 289 447 307 421 b 419 355 355 381 384 366 b 538 334 454 344 493 338 l 538 1010 l 671 1010 l 671 334 b 790 355 715 338 755 345 b 879 401 825 365 855 381 b 935 480 904 424 923 450 b 954 602 947 510 954 550 l 954 1010 l 1088 1010 l 1088 617 "},"Ω":{"ha":1137,"x_min":0,"x_max":0,"o":"m 673 0 l 673 262 b 754 318 700 280 727 298 b 824 387 781 338 804 361 b 872 480 844 413 860 445 b 890 606 884 516 890 558 b 804 830 890 699 861 774 b 568 915 746 887 668 915 b 333 830 469 915 390 887 b 247 606 276 774 247 699 b 264 480 247 558 253 516 b 313 387 276 445 292 413 b 383 318 333 361 356 338 b 464 262 410 298 437 280 l 464 0 l 73 0 l 73 118 l 351 118 l 351 202 b 176 369 280 243 222 298 b 107 606 130 439 107 519 b 234 912 107 731 150 833 b 568 1031 319 991 430 1031 b 902 912 706 1031 818 991 b 1029 606 987 833 1029 731 b 961 369 1029 519 1007 439 b 785 202 915 298 856 243 l 785 118 l 1063 118 l 1063 0 "},"Ϊ":{"ha":585,"x_min":0,"x_max":0,"o":"m 93 0 l 93 103 l 225 103 l 225 907 l 93 907 l 93 1010 l 492 1010 l 492 907 l 359 907 l 359 103 l 492 103 l 492 0 m 366 1137 l 366 1270 l 500 1270 l 500 1137 m 85 1137 l 85 1270 l 220 1270 l 220 1137 "},"Ϋ":{"ha":854,"x_min":0,"x_max":0,"o":"m 495 443 l 495 0 l 361 0 l 361 429 l 4 1010 l 153 1010 l 429 558 l 707 1010 l 850 1010 m 502 1137 l 502 1270 l 637 1270 l 637 1137 m 222 1137 l 222 1270 l 357 1270 l 357 1137 "},"ά":{"ha":865,"x_min":0,"x_max":0,"o":"m 612 0 l 612 79 b 498 5 576 48 538 23 b 368 -21 458 -12 415 -21 b 153 83 278 -21 206 14 b 73 373 100 153 73 250 b 101 545 73 437 82 494 b 175 673 119 595 144 637 b 282 751 206 707 242 733 b 410 779 323 769 366 779 b 515 764 449 779 485 774 b 612 722 546 754 578 740 l 612 758 l 740 758 l 740 0 m 612 618 b 520 651 578 633 547 644 b 431 662 493 658 463 662 b 264 587 360 662 304 637 b 205 376 225 538 205 467 b 251 171 205 286 220 217 b 399 100 282 124 331 100 b 509 124 435 100 472 108 b 612 186 546 140 580 161 m 471 876 l 372 876 l 339 1137 l 504 1137 "},"έ":{"ha":712,"x_min":0,"x_max":0,"o":"m 682 43 b 540 -3 634 22 586 6 b 392 -18 493 -13 444 -18 b 283 -7 356 -18 320 -14 b 180 31 246 0 211 13 b 103 101 149 49 123 72 b 74 208 84 129 74 165 b 112 321 74 251 87 289 b 233 396 138 354 178 379 l 233 401 b 134 462 191 412 159 432 b 98 569 110 492 98 527 b 130 669 98 609 108 643 b 206 732 151 695 177 716 b 304 765 235 747 268 758 b 413 776 341 772 377 776 b 535 765 457 776 498 772 b 652 734 572 757 611 747 l 652 594 l 643 594 b 532 648 613 617 576 635 b 398 667 488 660 443 667 b 341 663 378 667 359 665 b 286 646 323 660 305 655 b 245 613 270 639 257 628 b 228 560 234 598 228 580 b 247 496 228 533 234 511 b 298 463 260 480 277 469 b 364 452 319 456 341 453 b 435 451 388 451 411 451 l 511 451 l 511 338 l 404 338 b 328 335 375 338 350 337 b 265 321 305 333 284 328 b 221 284 247 313 232 301 b 204 219 210 267 204 246 b 222 158 204 195 210 175 b 267 119 234 141 249 128 b 327 99 284 110 304 104 b 399 92 349 94 373 92 b 547 117 445 92 494 100 b 673 183 599 133 641 155 l 682 183 l 682 43 m 456 876 l 357 876 l 324 1137 l 489 1137 "},"ή":{"ha":879,"x_min":0,"x_max":0,"o":"m 631 -279 l 631 431 b 625 529 631 466 629 499 b 603 601 621 560 614 584 b 554 643 592 620 575 634 b 471 657 533 653 505 657 b 362 631 437 657 400 649 b 253 566 324 614 288 592 l 253 0 l 125 0 l 125 758 l 253 758 l 253 673 b 376 751 293 706 334 732 b 507 779 419 769 463 779 b 694 705 589 779 651 754 b 759 492 737 655 759 584 l 759 -279 m 511 876 l 412 876 l 379 1137 l 544 1137 "},"ί":{"ha":381,"x_min":0,"x_max":0,"o":"m 127 0 l 127 758 l 254 758 l 254 0 m 240 876 l 142 876 l 109 1137 l 273 1137 "},"ΰ":{"ha":877,"x_min":0,"x_max":0,"o":"m 757 276 b 674 54 757 177 729 103 b 438 -20 619 4 540 -20 b 203 53 337 -20 259 4 b 120 276 148 101 120 176 l 120 758 l 248 758 l 248 323 b 254 219 248 281 250 246 b 283 147 259 192 268 168 b 340 103 297 128 316 113 b 439 89 364 94 397 89 b 536 104 478 89 510 94 b 595 149 562 114 582 129 b 622 220 609 168 617 192 b 629 323 627 248 629 282 l 629 758 l 757 758 l 757 276 m 482 876 l 395 876 l 362 1137 l 515 1137 m 578 884 l 578 1017 l 707 1017 l 707 884 m 170 884 l 170 1017 l 300 1017 l 300 884 "},"α":{"ha":865,"x_min":0,"x_max":0,"o":"m 612 0 l 612 79 b 498 5 576 48 538 23 b 368 -21 458 -12 415 -21 b 153 83 278 -21 206 14 b 73 373 100 153 73 250 b 101 545 73 437 82 494 b 175 673 119 595 144 637 b 282 751 206 707 242 733 b 410 779 323 769 366 779 b 515 764 449 779 485 774 b 612 722 546 754 578 740 l 612 758 l 740 758 l 740 0 m 612 618 b 520 651 578 633 547 644 b 431 662 493 658 463 662 b 264 587 360 662 304 637 b 205 376 225 538 205 467 b 251 171 205 286 220 217 b 399 100 282 124 331 100 b 509 124 435 100 472 108 b 612 186 546 140 580 161 "},"β":{"ha":861,"x_min":0,"x_max":0,"o":"m 790 301 b 699 75 790 210 760 134 b 469 -15 638 15 561 -15 b 355 0 433 -15 395 -10 b 253 43 316 10 281 24 l 253 -279 l 125 -279 l 125 731 b 211 969 125 832 154 912 b 448 1055 268 1027 347 1055 b 560 1041 489 1055 526 1050 b 650 995 594 1031 624 1016 b 712 919 676 975 697 950 b 735 810 727 888 735 852 b 688 660 735 753 719 703 b 555 571 657 617 612 588 l 555 559 b 726 474 627 548 684 519 b 790 301 769 429 790 372 m 659 304 b 635 402 659 345 651 377 b 572 461 620 428 599 447 b 483 490 546 476 516 485 b 384 498 450 495 417 498 l 359 498 l 359 606 l 384 606 b 473 616 414 606 443 610 b 543 646 502 623 526 633 b 590 703 564 662 579 680 b 605 793 600 725 605 755 b 558 909 605 844 589 883 b 437 948 527 935 487 948 b 353 930 404 948 376 942 b 295 882 329 918 310 902 b 263 813 281 862 270 839 b 253 731 256 786 253 759 l 253 146 b 349 110 283 129 315 117 b 448 100 382 103 416 100 b 604 153 516 100 568 117 b 659 304 640 188 659 239 "},"γ":{"ha":822,"x_min":0,"x_max":0,"o":"m 471 38 l 471 -279 l 343 -279 l 343 38 l 41 758 l 180 758 l 412 196 l 647 758 l 781 758 "},"δ":{"ha":844,"x_min":0,"x_max":0,"o":"m 772 374 b 679 84 772 251 741 154 b 423 -21 616 14 531 -21 b 166 82 314 -21 228 13 b 72 362 103 150 72 244 b 101 525 72 426 82 480 b 174 635 120 569 145 606 b 281 711 205 667 241 693 b 405 751 322 730 363 743 b 292 839 371 779 333 809 l 162 934 l 162 1055 l 711 1055 l 711 948 l 331 948 l 331 941 l 452 857 b 591 747 503 822 549 785 b 732 570 659 686 706 627 b 772 374 759 513 772 448 m 641 374 b 604 543 641 435 628 491 b 492 678 579 594 541 639 b 398 656 462 675 431 667 b 304 604 365 646 334 628 b 232 511 275 582 251 551 b 203 366 213 472 203 424 b 261 159 203 275 223 206 b 425 89 300 112 354 89 b 585 160 494 89 547 113 b 641 374 622 208 641 279 "},"ε":{"ha":712,"x_min":0,"x_max":0,"o":"m 682 43 b 540 -3 634 22 586 6 b 392 -18 493 -13 444 -18 b 283 -7 356 -18 320 -14 b 180 31 246 0 211 13 b 103 101 149 49 123 72 b 74 208 84 129 74 165 b 112 321 74 251 87 289 b 233 396 138 354 178 379 l 233 401 b 134 462 191 412 159 432 b 98 569 110 492 98 527 b 130 669 98 609 108 643 b 206 732 151 695 177 716 b 304 765 235 747 268 758 b 413 776 341 772 377 776 b 535 765 457 776 498 772 b 652 734 572 757 611 747 l 652 594 l 643 594 b 532 648 613 617 576 635 b 398 667 488 660 443 667 b 341 663 378 667 359 665 b 286 646 323 660 305 655 b 245 613 270 639 257 628 b 228 560 234 598 228 580 b 247 496 228 533 234 511 b 298 463 260 480 277 469 b 364 452 319 456 341 453 b 435 451 388 451 411 451 l 511 451 l 511 338 l 404 338 b 328 335 375 338 350 337 b 265 321 305 333 284 328 b 221 284 247 313 232 301 b 204 219 210 267 204 246 b 222 158 204 195 210 175 b 267 119 234 141 249 128 b 327 99 284 110 304 104 b 399 92 349 94 373 92 b 547 117 445 92 494 100 b 673 183 599 133 641 155 l 682 183 l 682 43 "},"ζ":{"ha":635,"x_min":0,"x_max":0,"o":"m 625 51 b 656 -7 640 33 650 13 b 666 -65 663 -28 666 -47 b 635 -179 666 -103 656 -141 b 559 -279 615 -218 590 -251 l 438 -279 l 438 -270 b 525 -176 479 -234 508 -203 b 551 -89 542 -149 551 -120 b 530 -24 551 -63 544 -42 b 477 1 516 -7 499 1 l 379 1 b 149 80 276 1 199 28 b 73 314 98 132 73 210 b 104 496 73 377 84 438 b 189 663 125 554 153 609 b 306 809 222 714 262 762 b 446 942 351 855 397 899 l 446 948 l 134 948 l 134 1055 l 639 1055 l 639 964 b 482 841 586 928 534 887 b 343 690 430 794 384 744 b 244 515 303 637 270 579 b 205 323 218 452 205 388 b 208 276 205 308 206 292 b 218 224 209 260 212 243 b 241 173 222 207 230 190 b 284 132 252 156 267 142 b 350 115 300 122 322 116 b 429 113 377 114 403 113 l 487 113 b 570 96 519 113 547 107 b 625 51 593 84 611 69 "},"η":{"ha":879,"x_min":0,"x_max":0,"o":"m 631 -279 l 631 431 b 625 529 631 466 629 499 b 603 601 621 560 614 584 b 554 643 592 620 575 634 b 471 657 533 653 505 657 b 362 631 437 657 400 649 b 253 566 324 614 288 592 l 253 0 l 125 0 l 125 758 l 253 758 l 253 673 b 376 751 293 706 334 732 b 507 779 419 769 463 779 b 694 705 589 779 651 754 b 759 492 737 655 759 584 l 759 -279 "},"θ":{"ha":867,"x_min":0,"x_max":0,"o":"m 774 521 b 758 306 774 435 769 363 b 718 163 748 249 734 201 b 608 25 692 102 655 56 b 433 -21 560 -6 502 -21 b 259 25 365 -21 307 -6 b 149 163 212 56 175 102 b 108 306 132 201 118 249 b 93 521 98 363 93 435 b 108 728 93 600 98 669 b 149 873 118 787 132 836 b 259 1008 175 932 212 977 b 433 1055 307 1040 365 1055 b 607 1008 502 1055 560 1040 b 718 873 655 977 692 932 b 758 728 734 836 748 787 b 774 521 769 668 774 600 m 646 582 b 626 751 644 647 637 703 b 588 861 615 800 602 836 b 524 927 569 892 548 915 b 433 947 499 940 469 947 b 343 927 398 947 368 940 b 279 861 319 915 297 892 b 240 751 263 836 250 799 b 221 582 229 703 223 647 l 646 582 m 221 473 b 237 297 221 408 226 350 b 277 176 247 245 260 204 b 342 109 295 145 316 123 b 433 87 367 94 398 87 b 525 109 469 87 500 94 b 590 176 550 123 572 145 b 630 297 606 204 620 245 b 646 473 640 350 646 408 "},"ι":{"ha":381,"x_min":0,"x_max":0,"o":"m 127 0 l 127 758 l 254 758 l 254 0 "},"κ":{"ha":822,"x_min":0,"x_max":0,"o":"m 640 0 l 334 332 l 258 258 l 258 0 l 131 0 l 131 758 l 258 758 l 258 385 l 519 667 b 611 740 551 703 582 727 b 696 759 639 753 668 759 b 736 758 709 759 722 759 b 761 758 749 758 758 758 l 761 645 l 753 645 b 727 647 746 646 737 647 b 702 648 716 647 708 648 b 644 632 681 648 661 642 b 598 593 627 621 611 608 l 428 410 l 808 0 "},"λ":{"ha":822,"x_min":0,"x_max":0,"o":"m 642 0 l 419 562 l 174 0 l 41 0 l 357 716 l 211 1055 l 354 1055 l 781 0 "},"μ":{"ha":888,"x_min":0,"x_max":0,"o":"m 637 0 l 637 80 b 541 6 603 45 571 20 b 442 -14 510 -7 477 -14 b 351 4 408 -14 378 -8 b 253 77 323 16 291 40 l 253 -279 l 125 -279 l 125 758 l 253 758 l 253 189 b 328 135 267 172 293 153 b 444 107 364 116 402 107 b 553 130 486 107 522 115 b 635 193 583 145 611 166 l 635 758 l 763 758 l 763 0 "},"ν":{"ha":822,"x_min":0,"x_max":0,"o":"m 474 0 l 346 0 l 41 758 l 180 758 l 414 155 l 647 758 l 781 758 "},"ξ":{"ha":699,"x_min":0,"x_max":0,"o":"m 706 -65 b 675 -180 706 -104 696 -142 b 600 -279 655 -218 629 -251 l 477 -279 l 477 -270 b 565 -176 519 -234 548 -203 b 591 -89 582 -149 591 -120 b 571 -25 591 -64 584 -43 b 520 1 558 -7 541 1 l 425 1 b 268 20 362 1 309 7 b 162 77 226 32 191 51 b 94 169 132 104 110 134 b 71 279 78 203 71 240 b 87 377 71 315 76 347 b 137 458 99 407 115 434 b 213 514 157 480 182 499 b 311 551 244 530 277 542 l 311 558 b 176 633 255 571 210 596 b 125 760 142 670 125 713 b 154 862 125 797 135 831 b 245 947 174 892 204 921 l 245 951 l 90 951 l 90 1055 l 649 1055 l 649 948 l 475 948 b 392 938 445 948 417 945 b 323 905 368 932 345 921 b 274 849 302 891 286 872 b 256 769 262 826 256 799 b 278 682 256 733 263 704 b 334 631 292 660 311 643 b 405 608 355 621 378 613 b 499 601 432 603 463 601 l 614 601 l 614 489 l 414 489 b 334 475 385 489 358 484 b 267 435 310 466 288 453 b 220 374 247 419 232 398 b 203 298 209 350 203 325 b 228 191 203 252 211 216 b 297 135 245 165 268 146 b 392 116 326 124 357 117 b 505 113 426 114 464 113 l 524 113 b 605 97 554 113 581 108 b 662 56 628 87 647 73 b 694 0 676 40 687 22 b 706 -65 702 -21 706 -43 "},"ο":{"ha":843,"x_min":0,"x_max":0,"o":"m 771 378 b 676 86 771 255 739 158 b 422 -21 613 15 528 -21 b 166 86 315 -21 230 15 b 72 378 103 158 72 255 b 166 671 72 502 103 599 b 422 779 230 743 315 779 b 676 671 528 779 613 743 b 771 378 739 599 771 502 m 640 378 b 582 597 640 477 620 549 b 422 669 543 645 490 669 b 261 597 353 669 299 645 b 203 378 223 549 203 477 b 261 162 203 283 223 211 b 422 89 300 113 353 89 b 582 162 490 89 543 113 b 640 378 620 210 640 283 "},"π":{"ha":885,"x_min":0,"x_max":0,"o":"m 632 0 l 632 648 l 253 648 l 253 0 l 125 0 l 125 758 l 760 758 l 760 0 "},"ρ":{"ha":868,"x_min":0,"x_max":0,"o":"m 795 391 b 701 101 795 275 764 178 b 456 -15 638 24 557 -15 b 357 -3 427 -15 394 -11 b 253 39 320 5 286 19 l 253 -279 l 125 -279 l 125 438 b 150 584 125 494 133 542 b 218 692 166 626 189 662 b 324 756 246 720 282 741 b 456 779 366 771 410 779 b 708 679 566 779 650 745 b 795 391 766 612 795 517 m 663 383 b 609 600 663 482 645 554 b 456 669 573 646 522 669 b 301 604 384 669 333 648 b 253 416 269 561 253 498 l 253 142 b 343 110 286 127 316 116 b 434 100 370 103 400 100 b 604 175 507 100 564 125 b 663 383 643 225 663 295 "},"ς":{"ha":705,"x_min":0,"x_max":0,"o":"m 690 -65 b 659 -182 690 -104 680 -143 b 585 -279 637 -220 613 -253 l 465 -279 l 465 -270 b 549 -178 503 -236 532 -205 b 575 -89 566 -151 575 -121 b 555 -25 575 -64 568 -43 b 504 1 541 -8 524 1 l 441 1 b 295 22 389 1 340 8 b 177 87 250 35 211 57 b 99 203 144 117 118 156 b 71 372 81 250 71 306 b 177 665 71 494 106 592 b 458 775 247 739 341 775 b 569 763 496 775 533 771 b 669 732 605 754 638 744 l 669 589 l 661 589 b 544 648 618 617 579 636 b 444 665 508 659 475 665 b 268 584 369 665 310 638 b 203 372 225 530 203 460 b 223 248 203 322 210 280 b 276 170 236 216 253 190 b 354 126 299 150 325 135 b 448 113 383 118 414 113 l 516 113 b 642 61 568 113 610 96 b 690 -65 674 27 690 -15 "},"σ":{"ha":876,"x_min":0,"x_max":0,"o":"m 771 378 b 676 83 771 251 739 153 b 422 -21 612 14 528 -21 b 165 86 314 -21 228 15 b 72 378 103 158 72 255 b 168 672 72 503 104 601 b 424 779 231 743 317 779 b 497 771 449 779 473 776 b 553 758 521 766 540 762 l 878 758 l 878 646 l 683 646 b 748 530 711 613 733 574 b 771 378 763 486 771 436 m 640 378 b 584 597 640 476 621 548 b 424 669 547 645 493 669 b 259 593 351 669 296 644 b 203 378 222 543 203 471 b 260 163 203 284 222 212 b 422 89 298 113 352 89 b 583 162 491 89 545 113 b 640 378 621 210 640 283 "},"τ":{"ha":689,"x_min":0,"x_max":0,"o":"m 408 646 l 408 0 l 281 0 l 281 646 l 7 646 l 7 758 l 682 758 l 682 646 "},"υ":{"ha":877,"x_min":0,"x_max":0,"o":"m 757 276 b 674 54 757 177 729 103 b 438 -20 619 4 540 -20 b 203 53 337 -20 259 4 b 120 276 148 101 120 176 l 120 758 l 248 758 l 248 323 b 254 219 248 281 250 246 b 283 147 259 192 268 168 b 340 103 297 128 316 113 b 439 89 364 94 397 89 b 536 104 478 89 510 94 b 595 149 562 114 582 129 b 622 220 609 168 617 192 b 629 323 627 248 629 282 l 629 758 l 757 758 l 757 276 "},"φ":{"ha":1097,"x_min":0,"x_max":0,"o":"m 1027 391 b 910 108 1027 274 988 179 b 612 -9 833 36 733 -3 l 612 -279 l 485 -279 l 485 -9 b 322 22 426 -7 372 4 b 192 96 272 40 229 65 b 102 213 153 130 124 169 b 71 370 81 257 71 310 b 111 571 71 442 84 509 b 241 758 137 633 181 695 l 396 758 l 396 746 b 254 589 335 701 287 649 b 203 385 220 529 203 461 b 280 179 203 300 229 231 b 484 97 331 127 399 100 l 484 775 b 532 777 499 776 515 777 b 584 777 549 777 566 777 b 908 676 721 777 830 743 b 1027 391 987 608 1027 513 m 895 397 b 819 596 895 481 869 547 b 612 671 768 646 699 671 l 612 97 b 823 182 705 101 775 130 b 895 397 871 235 895 307 "},"χ":{"ha":819,"x_min":0,"x_max":0,"o":"m 642 -279 l 408 140 l 170 -279 l 33 -279 l 334 243 l 40 758 l 184 758 l 412 351 l 642 758 l 779 758 l 486 248 l 787 -279 "},"ψ":{"ha":1141,"x_min":0,"x_max":0,"o":"m 1022 302 b 989 168 1022 251 1011 206 b 903 75 968 130 939 99 b 780 19 866 50 825 32 b 634 -3 735 7 686 0 l 634 -279 l 507 -279 l 507 -3 b 362 19 455 0 407 7 b 238 75 317 31 276 50 b 152 169 202 100 173 131 b 119 302 130 206 119 251 l 119 758 l 247 758 l 247 342 b 272 220 247 291 255 251 b 333 151 289 190 309 166 b 416 115 358 133 386 121 b 507 102 447 108 477 104 l 507 758 l 634 758 l 634 102 b 725 115 664 104 695 108 b 808 151 755 121 783 133 b 871 219 835 169 856 192 b 895 342 887 247 895 288 l 895 758 l 1022 758 l 1022 302 "}}}
